<?xml version="1.0" encoding="utf-8"?>
<svg version="1.1" xmlns:xlink="http://www.w3.org/1999/xlink" width="27px" height="37px" xmlns="http://www.w3.org/2000/svg">
  <g transform="matrix(1 0 0 1 -68 -172 )">
    <path d="M 13.780155642023345 17.418044291952583  L 26.212062256809332 0.3471875649823062  C 26.433852140077818 0.042637069383800956  26.62062256809338 -0.06155125805781836  26.772373540856023 0.034622582657533485  C 26.924124513618693 0.13079642337282849  27 0.3872599986137004  27 0.8040133083801209  L 27 36.19598669161988  C 27 36.6127400013863  26.924124513618693 36.86920357662717  26.772373540856023 36.965377417342495  C 26.62062256809338 37.06155125805782  26.433852140077818 36.95736293061623  26.212062256809332 36.652812435017665  L 13.780155642023345 19.581955708047417  C 13.686770428015564 19.437694946974432  13.610894941634228 19.28541969917515  13.552529182879368 19.12512996464963  L 13.552529182879368 36.19598669161988  C 13.552529182879368 36.6127400013863  13.476653696498062 36.86920357662717  13.324902723735406 36.965377417342495  C 13.173151750972764 37.06155125805782  12.9863813229572 36.95736293061623  12.764591439688715 36.652812435017665  L 0.3326848249027208 19.581955708047417  C 0.11089494163424263 19.277405212448883  0 18.916753309766417  0 18.5  C 0 18.08324669023358  0.11089494163424263 17.722594787551117  0.3326848249027208 17.418044291952583  L 12.764591439688715 0.3471875649823062  C 12.9863813229572 0.042637069383800956  13.173151750972764 -0.06155125805781836  13.324902723735406 0.034622582657533485  C 13.476653696498062 0.13079642337282849  13.552529182879368 0.3872599986137004  13.552529182879368 0.8040133083801209  L 13.552529182879368 17.87487003535037  C 13.610894941634228 17.698551327372286  13.686770428015564 17.546276079573005  13.780155642023345 17.418044291952583  Z " fill-rule="nonzero" fill="#333333" stroke="none" transform="matrix(1 0 0 1 68 172 )" />
  </g>
</svg>