<?xml version="1.0" encoding="utf-8"?>
<svg version="1.1" xmlns:xlink="http://www.w3.org/1999/xlink" width="42px" height="26px" xmlns="http://www.w3.org/2000/svg">
  <g transform="matrix(1 0 0 1 -1625 -178 )">
    <path d="M 25.7578125 15.9453125  C 27.970552884615472 14.575520833333343  29.076923076923094 12.927083333333314  29.076923076923094 11  C 29.076923076923094 9.072916666666657  27.970552884615472 7.424479166666656  25.7578125 6.0546875  C 23.545072115384528 4.684895833333314  20.882211538461434 4  17.769230769230717 4  C 14.65625 4  11.993389423076907 4.684895833333314  9.780649038461661 6.0546875  C 7.56790865384619 7.424479166666656  6.461538461538339 9.072916666666657  6.461538461538339 11  C 6.461538461538339 12.927083333333314  7.56790865384619 14.575520833333343  9.780649038461661 15.9453125  C 11.993389423076907 17.315104166666657  14.65625 18  17.769230769230717 18  C 20.882211538461434 18  23.545072115384528 17.315104166666657  25.7578125 15.9453125  Z M 41.06610576923072 22.59375  C 41.688701923076906 22.979166666666686  42 23.447916666666657  42 24  C 42 24.541666666666657  41.68028846153857 25.010416666666686  41.04086538461547 25.40625  C 40.40144230769238 25.802083333333314  39.644230769230944 26  38.76923076923072 26  C 37.860576923076906 26  37.10336538461547 25.802083333333314  36.49759615384619 25.40625  L 27.840144230769283 20.0625  C 24.828125 21.354166666666686  21.47115384615381 22  17.769230769230717 22  C 15.362980769230942 22  13.061899038461661 21.7109375  10.865985576923094 21.1328125  C 8.670072115384528 20.5546875  6.777043269230717 19.7734375  5.186899038461661 18.7890625  C 3.5967548076923777 17.8046875  2.3347355769230944 16.6328125  1.4008413461538112 15.2734375  C 0.4669471153845279 13.9140625  0 12.489583333333343  0 11  C 0 9.510416666666657  0.4669471153845279 8.0859375  1.4008413461538112 6.7265625  C 2.3347355769230944 5.3671875  3.5967548076923777 4.1953125  5.186899038461661 3.2109375  C 6.777043269230717 2.2265625  8.670072115384528 1.4453125  10.865985576923094 0.8671875  C 13.061899038461661 0.2890625  15.362980769230942 0  17.769230769230717 0  C 20.175480769230717 0  22.4765625 0.2890625  24.67247596153834 0.8671875  C 26.868389423076906 1.4453125  28.761418269230717 2.2265625  30.3515625 3.2109375  C 31.941706730769283 4.1953125  33.20372596153834 5.3671875  34.13762019230762 6.7265625  C 35.071514423076906 8.0859375  35.53846153846166 9.510416666666657  35.53846153846166 11  C 35.53846153846166 13.291666666666657  34.49519230769238 15.369791666666655  32.40865384615381 17.234375  L 41.06610576923072 22.59375  Z " fill-rule="nonzero" fill="#ffffff" stroke="none" transform="matrix(1 0 0 1 1625 178 )" />
  </g>
</svg>