<?xml version="1.0" encoding="utf-8"?>
<svg version="1.1" xmlns:xlink="http://www.w3.org/1999/xlink" width="37px" height="26px" xmlns="http://www.w3.org/2000/svg">
  <g transform="matrix(1 0 0 1 -219 -178 )">
    <path d="M 36.26420454545453 9.971590909090907  C 36.754734848484844 10.316287878787875  37 10.73484848484847  37 11.22727272727272  L 37 14.77272727272728  C 37 15.26515151515153  36.754734848484844 15.683712121212125  36.26420454545453 16.028409090909093  C 35.77367424242425 16.373106060606062  35.17803030303031 16.545454545454533  34.47727272727272 16.545454545454533  L 23.545454545454533 16.545454545454533  L 23.545454545454533 24.22727272727272  C 23.545454545454533 24.71969696969697  23.300189393939377 25.138257575757564  22.809659090909093 25.482954545454533  C 22.31912878787881 25.82765151515153  21.723484848484844 26  21.022727272727256 26  L 15.977272727272748 26  C 15.276515151515156 26  14.680871212121218 25.82765151515153  14.190340909090907 25.482954545454533  C 13.699810606060623 25.138257575757564  13.454545454545439 24.71969696969697  13.454545454545439 24.22727272727272  L 13.454545454545439 16.545454545454533  L 2.522727272727252 16.545454545454533  C 1.8219696969696884 16.545454545454533  1.2263257575757507 16.373106060606062  0.735795454545439 16.028409090909093  C 0.24526515151515582 15.683712121212125  0 15.26515151515153  0 14.77272727272728  L 0 11.22727272727272  C 0 10.73484848484847  0.24526515151515582 10.316287878787875  0.735795454545439 9.971590909090907  C 1.2263257575757507 9.626893939393938  1.8219696969696884 9.454545454545467  2.522727272727252 9.454545454545467  L 13.454545454545439 9.454545454545467  L 13.454545454545439 1.7727272727272805  C 13.454545454545439 1.2803030303030312  13.699810606060623 0.8617424242424363  14.190340909090907 0.517045454545439  C 14.680871212121218 0.1723484848484702  15.276515151515156 0  15.977272727272748 0  L 21.022727272727256 0  C 21.723484848484844 0  22.31912878787881 0.1723484848484702  22.809659090909093 0.517045454545439  C 23.300189393939377 0.8617424242424363  23.545454545454533 1.2803030303030312  23.545454545454533 1.7727272727272805  L 23.545454545454533 9.454545454545467  L 34.47727272727272 9.454545454545467  C 35.17803030303031 9.454545454545467  35.77367424242425 9.626893939393938  36.26420454545453 9.971590909090907  Z " fill-rule="nonzero" fill="#ffffff" stroke="none" transform="matrix(1 0 0 1 219 178 )" />
  </g>
</svg>