<?xml version="1.0" encoding="utf-8"?>
<svg version="1.1" xmlns:xlink="http://www.w3.org/1999/xlink" width="33px" height="30px" xmlns="http://www.w3.org/2000/svg">
  <g transform="matrix(1 0 0 1 -1537 -330 )">
    <path d="M 15.390134529147872 22.5  L 16.42600896860972 22.5  L 18.5717488789237 20.028409090909065  L 15.760089686098581 16.789772727272748  L 13.614349775784603 19.261363636363626  L 13.614349775784603 20.45454545454544  L 15.390134529147872 20.45454545454544  L 15.390134529147872 22.5  Z M 24.546524663677246 7.862215909090934  C 24.756165919282466 7.620738636363626  24.76233183856516 7.386363636363626  24.565022421524645 7.159090909090935  C 24.367713004484358 6.931818181818187  24.164237668161377 6.938920454545439  23.954596412555702 7.180397727272748  L 17.480381165919425 14.637784090909065  C 17.270739910313978 14.879261363636374  17.26457399103151 15.113636363636374  17.46188340807157 15.340909090909063  C 17.659192825112314 15.568181818181815  17.86266816143484 15.561079545454561  18.072309417040287 15.319602272727252  L 24.546524663677246 7.862215909090934  Z M 25.674887892376773 19.197443181818187  C 25.921524663677246 19.31107954545456  26.044843049327483 19.51704545454544  26.044843049327483 19.815340909090935  L 26.044843049327483 23.863636363636374  C 26.044843049327483 25.553977272727252  25.52382286995521 26.999289772727252  24.481782511210668 28.199573863636374  C 23.43974215246635 29.39985795454544  22.184977578475355 30  20.717488789237677 30  L 5.327354260089578 30  C 3.8598654708519007 30  2.605100896860904 29.39985795454544  1.5630605381165878 28.199573863636374  C 0.5210201793722717 26.999289772727252  0 25.553977272727252  0 23.863636363636374  L 0 6.136363636363626  C 0 4.446022727272748  0.5210201793722717 3.000710227272748  1.5630605381165878 1.800426136363626  C 2.605100896860904 0.600142045454561  3.8598654708519007 0  5.327354260089578 0  L 20.717488789237677 0  C 21.49439461883412 0  22.215807174887914 0.17755681818181301  22.881726457399054 0.532670454545439  C 23.06670403587418 0.6321022727272521  23.177690582959713 0.795454545454561  23.21468609865451 1.022727272727252  C 23.251681614349764 1.264204545454561  23.19618834080711 1.470170454545439  23.048206278026782 1.640625  L 22.14181614349809 2.684659090909065  C 21.96917040358744 2.883522727272748  21.771860986547154 2.940340909090935  21.549887892376773 2.855113636363626  C 21.266255605381048 2.769886363636374  20.988789237668243 2.727272727272748  20.717488789237677 3  L 5.327354260089578 3  C 4.513452914798336 2.727272727272748  3.816704035874409 3.061079545454561  3.2371076233184795 3.728693181818187  C 2.6575112107623227 4.396306818181813  2.367713004484358 5.198863636363626  3 6.136363636363626  L 3 23.863636363636374  C 2.367713004484358 24.801136363636374  2.6575112107623227 25.603693181818187  3.2371076233184795 26.271306818181813  C 3.816704035874409 26.93892045454544  4.513452914798336 27.272727272727252  5.327354260089578 27  L 20.717488789237677 27  C 21.531390134529147 27.272727272727252  22.22813901345262 26.93892045454544  22.807735426009003 26.271306818181813  C 23.38733183856516 25.603693181818187  23.677130044843125 24.801136363636374  23.677130044843125 23.863636363636374  L 23.677130044843125 21.178977272727252  C 23.677130044843125 20.994318181818187  23.732623318385777 20.838068181818187  23.843609865470853 20.710227272727252  L 25.027466367713032 19.346590909090935  C 25.21244394618816 19.133522727272748  25.428251121076073 19.083806818181813  25.674887892376773 19.197443181818187  Z M 11.83856502242179 18.409090909090935  L 24.269058295964214 4.090909090909065  L 29.596412556053792 10.227272727272748  L 17.165919282511368 24.54545454545456  L 11.83856502242179 24.54545454545456  L 11.83856502242179 18.409090909090935  Z M 33 5.454545454545439  C 33 6.022727272727252  32.82735426008958 6.505681818181813  32.48206278026919 6.903409090909065  L 30.78026905829597 8.863636363636374  L 25.452914798206393 2.727272727272748  L 27.154708520179383 0.767045454545439  C 27.5 0.369318181818187  27.919282511210668 0.17045454545456096  28.41255605381184 0.17045454545456096  C 28.90582959641256 0.17045454545456096  29.325112107623227 0.369318181818187  29.670403587444298 0.767045454545439  L 32.48206278026919 4.005681818181813  C 32.82735426008958 4.403409090909065  33 4.886363636363626  33 5.454545454545439  Z " fill-rule="nonzero" fill="#ffffff" stroke="none" transform="matrix(1 0 0 1 1537 330 )" />
  </g>
</svg>