<?xml version="1.0" encoding="utf-8"?>
<svg version="1.1" xmlns:xlink="http://www.w3.org/1999/xlink" width="33px" height="32px" xmlns="http://www.w3.org/2000/svg">
  <g transform="matrix(1 0 0 1 -1655 -472 )">
    <path d="M 11.789062500000227 12.1875  C 11.929687499999773 12.3125  12.000000000000227 12.472222222222229  12 12.666666666666686  L 12 24.666666666666686  C 12.000000000000227 24.861111111111086  11.929687499999773 25.020833333333314  11.789062500000227 25.145833333333314  C 11.6484375 25.270833333333314  11.46875 25.333333333333314  11.250000000000227 25.333333333333314  L 9.75 25.333333333333314  C 9.53125 25.333333333333314  9.351562499999773 25.270833333333314  9.210937500000227 25.145833333333314  C 9.0703125 25.020833333333314  9 24.861111111111086  9 24.666666666666686  L 9 12.666666666666686  C 9 12.472222222222229  9.0703125 12.3125  9.210937500000227 12.1875  C 9.351562499999773 12.0625  9.53125 12  9.75 12  L 11.250000000000227 12  C 11.46875 12  11.6484375 12.0625  11.789062500000227 12.1875  Z M 17.7890625 12.1875  C 17.929687500000227 12.3125  18 12.472222222222229  18 12.666666666666686  L 18 24.666666666666686  C 18 24.861111111111086  17.929687500000227 25.020833333333314  17.7890625 25.145833333333314  C 17.648437499999773 25.270833333333314  17.46875 25.333333333333314  17.25 25.333333333333314  L 15.75 25.333333333333314  C 15.53125 25.333333333333314  15.351562500000227 25.270833333333314  15.2109375 25.145833333333314  C 15.070312499999773 25.020833333333314  15 24.861111111111086  15 24.666666666666686  L 15 12.666666666666686  C 15 12.472222222222229  15.070312499999773 12.3125  15.2109375 12.1875  C 15.351562500000227 12.0625  15.53125 12  15.75 12  L 17.25 12  C 17.46875 12  17.648437499999773 12.0625  17.7890625 12.1875  Z M 23.789062499999773 12.1875  C 23.9296875 12.3125  24 12.472222222222229  24 12.666666666666686  L 24 24.666666666666686  C 24 24.861111111111086  23.9296875 25.020833333333314  23.789062499999773 25.145833333333314  C 23.648437500000227 25.270833333333314  23.46875 25.333333333333314  23.25 25.333333333333314  L 21.749999999999773 25.333333333333314  C 21.53125 25.333333333333314  21.3515625 25.270833333333314  21.210937499999773 25.145833333333314  C 21.070312500000227 25.020833333333314  20.999999999999773 24.861111111111086  21 24.666666666666686  L 21 12.666666666666686  C 20.999999999999773 12.472222222222229  21.070312500000227 12.3125  21.210937499999773 12.1875  C 21.3515625 12.0625  21.53125 12  21.749999999999773 12  L 23.25 12  C 23.46875 12  23.648437500000227 12.0625  23.789062499999773 12.1875  Z M 26.8359375 28.59375  C 26.9453125 28.336805555555543  27.000000000000227 28.055555555555543  27 27.75  L 27 8  L 6 8  L 6 27.75  C 5.999999999999773 28.055555555555543  6.0546875 28.336805555555543  6.1640625 28.59375  C 6.2734375 28.850694444444457  6.386718749999773 29.038194444444457  6.503906250000227 29.15625  C 6.62109375 29.274305555555543  6.703125 29.333333333333314  6.75 29  L 26.25 29  C 26.296875 29.333333333333314  26.37890625 29.274305555555543  26.496093749999773 29.15625  C 26.613281250000227 29.038194444444457  26.7265625 28.850694444444457  26.8359375 28.59375  Z M 12.3984375 2.8958333333333144  L 11.250000000000227 5.333333333333314  L 21.749999999999773 5.333333333333314  L 20.625 2.8958333333333144  C 20.515625000000227 2.7708333333333144  20.3828125 2.694444444444457  20.226562499999773 2.6666666666666856  L 12.796875000000227 2.6666666666666856  C 12.640625 2.694444444444457  12.5078125 2.7708333333333144  12.3984375 2.8958333333333144  Z M 32.7890625 5.520833333333314  C 32.92968750000023 5.645833333333314  33 5.805555555555543  33 6  L 33 7.333333333333314  C 33 7.5277777777777715  32.92968750000023 7.6875  32.7890625 7.8125  C 32.64843750000023 7.9375  32.46875 8  32.25 8  L 30 8  L 30 27.75  C 29.999999999999773 28.90277777777777  29.6328125 29.899305555555543  28.8984375 30.739583333333314  C 28.1640625 31.579861111111086  27.28125 32  26.25 32  L 6.75 32  C 5.71875 32  4.8359375 31.59375  4.1015625 30.78125  C 3.3671875 29.96875  3.0000000000002274 28.986111111111086  3 27.833333333333314  L 3 8  L 0.75 8  C 0.53125 8  0.3515624999997726 7.9375  0.2109375 7.8125  C 0.07031249999977263 7.6875  0 7.5277777777777715  0 7.333333333333314  L 0 6  C 0 5.805555555555543  0.07031249999977263 5.645833333333314  0.2109375 5.520833333333314  C 0.3515624999997726 5.395833333333314  0.53125 5.333333333333314  0.75 5.333333333333314  L 7.9921875 5.333333333333314  L 9.632812499999773 1.8541666666666856  C 9.867187499999773 1.3402777777777715  10.2890625 0.9027777777777715  10.898437499999773 0.5416666666666856  C 11.507812500000227 0.18055555555554292  12.125 0  12.749999999999773 0  L 20.250000000000227 0  C 20.875 0  21.492187499999773 0.18055555555554292  22.101562500000227 0.5416666666666856  C 22.7109375 0.9027777777777715  23.132812500000227 1.3402777777777715  23.367187500000227 1.8541666666666856  L 25.0078125 5.333333333333314  L 32.25 5.333333333333314  C 32.46875 5.333333333333314  32.64843750000023 5.395833333333314  32.7890625 5.520833333333314  Z " fill-rule="nonzero" fill="#ffffff" stroke="none" fill-opacity="0.9098039215686274" transform="matrix(1 0 0 1 1655 472 )" />
  </g>
</svg>