<?xml version="1.0" encoding="utf-8"?>
<svg version="1.1" xmlns:xlink="http://www.w3.org/1999/xlink" width="22px" height="29px" xmlns="http://www.w3.org/2000/svg">
  <g transform="matrix(1 0 0 1 -550 -13 )">
    <path d="M 21.481481481481524 21.676767676767668  C 21.827160493827137 22.1324354657688  22 22.685746352413034  22 23.336700336700332  C 22 23.987654320987666  21.827160493827137 24.540965207631885  21.481481481481524 24.996632996632982  L 18.962962962962933 28.31649831649831  C 18.61728395061732 28.77216610549945  18.197530864197574 29  17.70370370370358 29  C 17.20987654320993 29  16.790123456790184 28.77216610549945  16.444444444444457 28.31649831649831  L 11 21.13973063973065  L 5.555555555555543 28.31649831649831  C 5.209876543209816 28.77216610549945  4.79012345679007 29  4.296296296296418 29  C 3.8024691358024256 29  3.382716049382679 28.77216610549945  3.0370370370370665 28.31649831649831  L 0.5185185185184764 24.996632996632982  C 0.17283950617286337 24.540965207631885  0 23.987654320987666  0 23.336700336700332  C 0 22.685746352413034  0.17283950617286337 22.1324354657688  0.5185185185184764 21.676767676767668  L 5.9629629629629335 14.5  L 0.5185185185184764 7.323232323232337  C 0.17283950617286337 6.8675645342311995  0 6.314253647586966  0 5.663299663299668  C 0 5.012345679012352  0.17283950617286337 4.459034792368115  0.5185185185184764 4.003367003367018  L 3.0370370370370665 0.6835016835016834  C 3.382716049382679 0.22783389450054872  3.8024691358024256 0  4.296296296296418 0  C 4.79012345679007 0  5.209876543209816 0.22783389450054872  5.555555555555543 0.6835016835016834  L 11 7.860269360269348  L 16.444444444444457 0.6835016835016834  C 16.790123456790184 0.22783389450054872  17.20987654320993 0  17.70370370370358 0  C 18.197530864197574 0  18.61728395061732 0.22783389450054872  18.962962962962933 0.6835016835016834  L 21.481481481481524 4.003367003367018  C 21.827160493827137 4.459034792368115  22 5.012345679012352  22 5.663299663299668  C 22 6.314253647586966  21.827160493827137 6.8675645342311995  21.481481481481524 7.323232323232337  L 16.037037037037067 14.5  L 21.481481481481524 21.676767676767668  Z " fill-rule="nonzero" fill="#ffffff" stroke="none" transform="matrix(1 0 0 1 550 13 )" />
  </g>
</svg>