<?xml version="1.0" encoding="utf-8"?>
<svg version="1.1" xmlns:xlink="http://www.w3.org/1999/xlink" width="23px" height="28px" xmlns="http://www.w3.org/2000/svg">
  <g transform="matrix(1 0 0 1 -549 -13 )">
    <path d="M 22.45791245791247 20.929292929292913  C 22.819304152637415 21.36924803591471  23 21.903479236812586  23 22.531986531986533  C 23 23.160493827160508  22.819304152637415 23.69472502805837  22.45791245791247 24.134680134680117  L 19.82491582491582 27.340067340067336  C 19.463524130190763 27.78002244668913  19.02469135802471 28  18.508417508417438 28  C 17.992143658810278 28  17.553310886644226 27.78002244668913  17.191919191919283 27.340067340067336  L 11.5 20.410774410774422  L 5.808080808080717 27.340067340067336  C 5.446689113355774 27.78002244668913  5.007856341189722 28  4.491582491582562 28  C 3.9753086419752894 28  3.5364758698092373 27.78002244668913  3.1750841750841796 27.340067340067336  L 0.5420875420875291 24.134680134680117  C 0.18069584736258545 23.69472502805837  0 23.160493827160508  0 22.531986531986533  C 0 21.903479236812586  0.18069584736258545 21.36924803591471  0.5420875420875291 20.929292929292913  L 6.234006734006698 14  L 0.5420875420875291 7.070707070707081  C 0.18069584736258545 6.630751964085299  0 6.096520763187414  0 5.468013468013471  C 0 4.8395061728395135  0.18069584736258545 4.305274971941628  0.5420875420875291 3.8653198653198797  L 3.1750841750841796 0.6599326599326591  C 3.5364758698092373 0.2199775533108745  3.9753086419752894 0  4.491582491582562 0  C 5.007856341189722 0  5.446689113355774 0.2199775533108745  5.808080808080717 0.6599326599326591  L 11.5 7.5892255892255776  L 17.191919191919283 0.6599326599326591  C 17.553310886644226 0.2199775533108745  17.992143658810278 0  18.508417508417438 0  C 19.02469135802471 0  19.463524130190763 0.2199775533108745  19.82491582491582 0.6599326599326591  L 22.45791245791247 3.8653198653198797  C 22.819304152637415 4.305274971941628  23 4.8395061728395135  23 5.468013468013471  C 23 6.096520763187414  22.819304152637415 6.630751964085299  22.45791245791247 7.070707070707081  L 16.765993265993302 14  L 22.45791245791247 20.929292929292913  Z " fill-rule="nonzero" fill="#ffffff" stroke="none" transform="matrix(1 0 0 1 549 13 )" />
  </g>
</svg>