<?xml version="1.0" encoding="utf-8"?>
<svg version="1.1" xmlns:xlink="http://www.w3.org/1999/xlink" width="41px" height="39px" xmlns="http://www.w3.org/2000/svg">
  <g transform="matrix(1 0 0 1 -1168 -241 )">
    <path d="M 40.033670033670205 29.151515151515127  C 40.6778900112231 29.764309764309758  41 30.50841750841755  41 31.383838383838338  C 41 32.25925925925924  40.6778900112231 33.00336700336703  40.033670033670205 33.616161616161605  L 35.34006734006721 38.08080808080808  C 34.69584736251409 38.69360269360271  33.913580246913625 39  32.99326599326582 39  C 32.072951739618475 39  31.290684624018017 38.69360269360271  30.646464646464665 38.08080808080808  C 30.646464646464665 38.08080808080808  26.182020202020112 28.429292929292952  20.5 28.429292929292952  C 14.81797979797989 28.429292929292952  10.353535353535335 38.08080808080808  10.353535353535335 38.08080808080808  C 9.709315375981987 38.69360269360271  8.927048260381525 39  8.006734006734177 39  C 7.086419753086375 39  6.304152637485914 38.69360269360271  5.659932659932792 38.08080808080808  L 0.9663299663300222 33.616161616161605  C 0.3221099887769014 33.00336700336703  0 32.25925925925924  0 31.383838383838338  C 0 30.50841750841755  0.3221099887769014 29.764309764309758  0.9663299663300222 29.151515151515127  C 0.9663299663300222 29.151515151515127  11.112794612794687 24.904848484848458  11.112794612794687 19.5  C 11.112794612794687 14.095151515151542  0.9663299663300222 9.848484848484873  0.9663299663300222 9.848484848484873  C 0.3221099887769014 9.235690235690242  0 8.491582491582449  0 7.616161616161605  C 0 6.740740740740762  0.3221099887769014 5.996632996632968  0.9663299663300222 5.383838383838395  L 5.659932659932792 0.9191919191919169  C 6.304152637485914 0.3063973063972867  7.086419753086375 0  8.006734006734177 0  C 8.927048260381525 0  9.709315375981987 0.3063973063972867  10.353535353535335 0.9191919191919169  L 20.5 10.570707070707044  L 30.646464646464665 0.9191919191919169  C 31.290684624018017 0.3063973063972867  32.072951739618475 0  32.99326599326582 0  C 33.913580246913625 0  34.69584736251409 0.3063973063972867  35.34006734006721 0.9191919191919169  L 40.033670033670205 5.383838383838395  C 40.6778900112231 5.996632996632968  41 6.740740740740762  41 7.616161616161605  C 41 8.491582491582449  40.6778900112231 9.235690235690242  40.033670033670205 9.848484848484873  L 29.887205387205313 19.5  L 40.033670033670205 29.151515151515127  Z " fill-rule="nonzero" fill="#ffffff" stroke="none" transform="matrix(1 0 0 1 1168 241 )" />
  </g>
</svg>