<?xml version="1.0" encoding="utf-8"?>
<svg version="1.1" xmlns:xlink="http://www.w3.org/1999/xlink" width="12px" height="12px" viewBox="201 566  12 12" xmlns="http://www.w3.org/2000/svg">
  <path d="M 207 566  C 210.36 566  213 568.64  213 572  C 213 575.36  210.36 578  207 578  C 203.64 578  201 575.36  201 572  C 201 568.64  203.64 566  207 566  Z " fill-rule="nonzero" fill="#f0f0f0" stroke="none" />
  <path d="M 207 566.5  C 210.08 566.5  212.5 568.92  212.5 572  C 212.5 575.08  210.08 577.5  207 577.5  C 203.92 577.5  201.5 575.08  201.5 572  C 201.5 568.92  203.92 566.5  207 566.5  Z " stroke-width="1" stroke="#797979" fill="none" />
  <path d="M 207 575  C 205.32 575  204 573.68  204 572  C 204 570.32  205.32 569  207 569  C 208.68 569  210 570.32  210 572  C 210 573.68  208.68 575  207 575  " fill-rule="nonzero" fill="#797979" stroke="none" />
</svg>