<?xml version="1.0" encoding="utf-8"?>
<svg version="1.1" xmlns:xlink="http://www.w3.org/1999/xlink" width="12px" height="12px" viewBox="401 533  12 12" xmlns="http://www.w3.org/2000/svg">
  <path d="M 407 533  C 410.36 533  413 535.64  413 539  C 413 542.36  410.36 545  407 545  C 403.64 545  401 542.36  401 539  C 401 535.64  403.64 533  407 533  Z " fill-rule="nonzero" fill="#ffffff" stroke="none" />
  <path d="M 407 533.5  C 410.08 533.5  412.5 535.92  412.5 539  C 412.5 542.08  410.08 544.5  407 544.5  C 403.92 544.5  401.5 542.08  401.5 539  C 401.5 535.92  403.92 533.5  407 533.5  Z " stroke-width="1" stroke="#797979" fill="none" />
  <path d="M 407 542  C 405.32 542  404 540.68  404 539  C 404 537.32  405.32 536  407 536  C 408.68 536  410 537.32  410 539  C 410 540.68  408.68 542  407 542  " fill-rule="nonzero" fill="#797979" stroke="none" />
</svg>