<?xml version="1.0" encoding="utf-8"?>
<svg version="1.1" xmlns:xlink="http://www.w3.org/1999/xlink" width="12px" height="12px" viewBox="201 580  12 12" xmlns="http://www.w3.org/2000/svg">
  <path d="M 207 580  C 210.36 580  213 582.64  213 586  C 213 589.36  210.36 592  207 592  C 203.64 592  201 589.36  201 586  C 201 582.64  203.64 580  207 580  Z " fill-rule="nonzero" fill="#ffffff" stroke="none" />
  <path d="M 207 580.5  C 210.08 580.5  212.5 582.92  212.5 586  C 212.5 589.08  210.08 591.5  207 591.5  C 203.92 591.5  201.5 589.08  201.5 586  C 201.5 582.92  203.92 580.5  207 580.5  Z " stroke-width="1" stroke="#797979" fill="none" />
  <path d="M 207 589  C 205.32 589  204 587.68  204 586  C 204 584.32  205.32 583  207 583  C 208.68 583  210 584.32  210 586  C 210 587.68  208.68 589  207 589  " fill-rule="nonzero" fill="#797979" stroke="none" />
</svg>