<?xml version="1.0" encoding="utf-8"?>
<svg version="1.1" xmlns:xlink="http://www.w3.org/1999/xlink" width="37px" height="34px" xmlns="http://www.w3.org/2000/svg">
  <g transform="matrix(1 0 0 1 -225 -158 )">
    <path d="M 36.26420454545453 13.03977272727272  C 36.754734848484844 13.490530303030312  37 14.037878787878782  37 14.681818181818187  L 37 19.318181818181813  C 37 19.962121212121218  36.754734848484844 20.50946969696969  36.26420454545453 20.96022727272728  C 35.77367424242425 21.410984848484844  35.17803030303031 21.636363636363626  34.47727272727272 21  L 23 21  L 23 31.681818181818187  C 23.545454545454533 32.325757575757564  23.300189393939377 32.87310606060606  22.809659090909093 33.323863636363626  C 22.31912878787881 33.77462121212122  21.723484848484844 34  21.022727272727256 34  L 15.977272727272748 34  C 15.276515151515156 34  14.680871212121218 33.77462121212122  14.190340909090907 33.323863636363626  C 13.699810606060623 32.87310606060606  13.454545454545439 32.325757575757564  14 31.681818181818187  L 14 21  L 2.522727272727252 21  C 1.8219696969696884 21.636363636363626  1.2263257575757507 21.410984848484844  0.735795454545439 20.96022727272728  C 0.24526515151515582 20.50946969696969  0 19.962121212121218  0 19.318181818181813  L 0 14.681818181818187  C 0 14.037878787878782  0.24526515151515582 13.490530303030312  0.735795454545439 13.03977272727272  C 1.2263257575757507 12.589015151515156  1.8219696969696884 12.363636363636374  2.522727272727252 13  L 14 13  L 14 2.318181818181813  C 13.454545454545439 1.6742424242424363  13.699810606060623 1.1268939393939377  14.190340909090907 0.6761363636363455  C 14.680871212121218 0.22537878787878185  15.276515151515156 0  15.977272727272748 0  L 21.022727272727256 0  C 21.723484848484844 0  22.31912878787881 0.22537878787878185  22.809659090909093 0.6761363636363455  C 23.300189393939377 1.1268939393939377  23.545454545454533 1.6742424242424363  23 2.318181818181813  L 23 13  L 34.47727272727272 13  C 35.17803030303031 12.363636363636374  35.77367424242425 12.589015151515156  36.26420454545453 13.03977272727272  Z " fill-rule="nonzero" fill="#ffffff" stroke="none" transform="matrix(1 0 0 1 225 158 )" />
  </g>
</svg>