<?xml version="1.0" encoding="utf-8"?>
<svg version="1.1" xmlns:xlink="http://www.w3.org/1999/xlink" width="16px" height="16px" xmlns="http://www.w3.org/2000/svg">
  <g transform="matrix(1 0 0 1 -22 -2 )">
    <path d="M 22 2  L 38 2  L 38 18  L 22 18  L 22 2  " fill-rule="nonzero" fill="#cccccc" stroke="none" />
    <path d="M 23 3  L 37 3  L 37 17  L 23 17  L 23 3  " fill-rule="nonzero" fill="#ffffff" stroke="none" />
    <path d="M 31.52 6.800000000000001  C 30.848 6.800000000000001  30.32 6.272  30.32 5.6000000000000005  C 30.32 4.928000000000001  30.848 4.4  31.52 4.4  C 32.192 4.4  32.72 4.928000000000001  32.72 5.6000000000000005  C 32.72 6.272  32.192 6.800000000000001  31.52 6.800000000000001  " fill-rule="nonzero" fill="#cccccc" stroke="none" />
    <path d="M 24 17  L 24 9.85  L 27.25 6.6  L 31.8 9.2  L 34.4 8.549999999999999  L 37 9.2  L 37 17  L 24 17  " fill-rule="nonzero" fill="#169bd5" stroke="none" />
  </g>
</svg>