<?xml version="1.0" encoding="utf-8"?>
<svg version="1.1" xmlns:xlink="http://www.w3.org/1999/xlink" width="39px" height="30px" xmlns="http://www.w3.org/2000/svg">
  <g transform="matrix(1 0 0 1 -1259 -95 )">
    <path d="M 18.18834080717488 22.5  L 19.412556053811613 22.5  L 21.948430493273463 20.028409090909065  L 18.625560538116588 16.789772727272748  L 16.089686098654738 19.261363636363626  L 16.089686098654738 20.45454545454544  L 18.18834080717488 20.45454545454544  L 18.18834080717488 22.5  Z M 29.009529147981993 7.862215909090934  C 29.25728699551587 7.620738636363626  29.264573991031284 7.386363636363626  29.031390134529147 7.159090909090935  C 28.798206278026782 6.931818181818187  28.557735426009003 6.938920454545439  28.309977578475127 7.180397727272748  L 20.6586322869955 14.637784090909065  C 20.41087443946185 14.879261363636374  20.40358744394621 15.113636363636374  20.63677130044834 15.340909090909063  C 20.86995515695071 15.568181818181815  21.110426008968485 15.561079545454561  21.358183856502137 15.319602272727252  L 29.009529147981993 7.862215909090934  Z M 30.343049327354265 19.197443181818187  C 30.63452914798222 19.31107954545456  30.78026905829597 19.51704545454544  30.78026905829597 19.815340909090935  L 30.78026905829597 23.863636363636374  C 30.78026905829597 25.553977272727252  30.164517937219674 26.999289772727252  28.933015695067297 28.199573863636374  C 27.701513452914696 29.39985795454544  26.218609865470853 30  24.484304932735316 30  L 6.295964125560431 30  C 4.561659192824891 30  3.0787556053812746 29.39985795454544  1.847253363228674 28.199573863636374  C 0.6157511210763005 26.999289772727252  0 25.553977272727252  0 23.863636363636374  L 0 6.136363636363626  C 0 4.446022727272748  0.6157511210763005 3.000710227272748  1.847253363228674 1.800426136363626  C 3.0787556053812746 0.600142045454561  4.561659192824891 0  6.295964125560431 0  L 24.484304932735316 0  C 25.402466367713032 0  26.25504484304929 0.17755681818181301  27.042040358744316 0.532670454545439  C 27.26065022421517 0.6321022727272521  27.391816143497863 0.795454545454561  27.435538116591943 1.022727272727252  C 27.479260089686022 1.264204545454561  27.413677130045016 1.470170454545439  27.238789237668243 1.640625  L 26.16760089686113 2.684659090909065  C 25.963565022421335 2.883522727272748  25.73038116591943 2.940340909090935  25.468049327354265 2.855113636363626  C 25.13284753363223 2.769886363636374  24.804932735426068 2.727272727272748  24.484304932735316 3  L 6.295964125560431 3  C 5.33408071748886 2.727272727272748  4.5106502242153965 3.061079545454561  3.825672645739815 3.728693181818187  C 3.14069506726446 4.396306818181813  2.79820627802701 5.198863636363626  3 6.136363636363626  L 3 23.863636363636374  C 2.79820627802701 24.801136363636374  3.14069506726446 25.603693181818187  3.825672645739815 26.271306818181813  C 4.5106502242153965 26.93892045454544  5.33408071748886 27.272727272727252  6.295964125560431 27  L 24.484304932735316 27  C 25.446188340807108 27.272727272727252  26.269618834080575 26.93892045454544  26.95459641255616 26.271306818181813  C 27.639573991031515 25.603693181818187  27.98206278026896 24.801136363636374  27.98206278026896 23.863636363636374  L 27.98206278026896 21.178977272727252  C 27.98206278026896 20.994318181818187  28.047645739910426 20.838068181818187  28.178811659192892 20.710227272727252  L 29.577914798206166 19.346590909090935  C 29.79652466367702 19.133522727272748  30.051569506726537 19.083806818181813  30.343049327354265 19.197443181818187  Z M 13.991031390134593 18.409090909090935  L 28.681614349775828 4.090909090909065  L 34.97757847533626 10.227272727272748  L 20.286995515695025 24.54545454545456  L 13.991031390134593 24.54545454545456  L 13.991031390134593 18.409090909090935  Z M 39 5.454545454545439  C 39 6.022727272727252  38.79596412556066 6.505681818181813  38.38789237668152 6.903409090909065  L 36.37668161434976 8.863636363636374  L 30.080717488789105 2.727272727272748  L 32.09192825112132 0.767045454545439  C 32.50000000000023 0.369318181818187  32.99551569506707 0.17045454545456096  33.57847533632298 0.17045454545456096  C 34.16143497757844 0.17045454545456096  34.656950672645735 0.369318181818187  35.06502242152487 0.767045454545439  L 38.38789237668152 4.005681818181813  C 38.79596412556066 4.403409090909065  39 4.886363636363626  39 5.454545454545439  Z " fill-rule="nonzero" fill="#ffffff" stroke="none" transform="matrix(1 0 0 1 1259 95 )" />
  </g>
</svg>