<?xml version="1.0" encoding="utf-8"?>
<svg version="1.1" xmlns:xlink="http://www.w3.org/1999/xlink" width="30px" height="36px" xmlns="http://www.w3.org/2000/svg">
  <g transform="matrix(1 0 0 1 -1416 -92 )">
    <path d="M 10.717329545454731 13.7109375  C 10.845170454545269 13.8515625  10.90909090909122 14.03125  11 14.25  L 11 27.75  C 10.90909090909122 27.96875  10.845170454545269 28.1484375  10.717329545454731 28.2890625  C 10.58948863636374 28.4296875  10.42613636363626 28.5  10.227272727272975 28.5  L 8.86363636363626 28.5  C 8.664772727272748 28.5  8.501420454545269 28.4296875  8.373579545454731 28.2890625  C 8.24573863636374 28.1484375  8.181818181818244 27.96875  8.181818181818244 27.75  L 8.181818181818244 14.25  C 8.181818181818244 14.03125  8.24573863636374 13.8515625  8.373579545454731 13.7109375  C 8.501420454545269 13.5703125  8.664772727272748 13.5  8.86363636363626 13.5  L 10.227272727272975 13.5  C 10.42613636363626 13.5  10.58948863636374 13.5703125  10.717329545454731 13.7109375  Z M 16.171875 13.7109375  C 16.29971590909122 13.8515625  16.36363636363626 14.03125  16 14.25  L 16 27.75  C 16.36363636363626 27.96875  16.29971590909122 28.1484375  16.171875 28.2890625  C 16.04403409090878 28.4296875  15.880681818181756 28.5  15.681818181818244 28.5  L 14.318181818181756 28.5  C 14.119318181818244 28.5  13.95596590909122 28.4296875  13.828125 28.2890625  C 13.70028409090878 28.1484375  13.63636363636374 27.96875  14 27.75  L 14 14.25  C 13.63636363636374 14.03125  13.70028409090878 13.8515625  13.828125 13.7109375  C 13.95596590909122 13.5703125  14.119318181818244 13.5  14.318181818181756 13.5  L 15.681818181818244 13.5  C 15.880681818181756 13.5  16.04403409090878 13.5703125  16.171875 13.7109375  Z M 21.62642045454527 13.7109375  C 21.75426136363626 13.8515625  21.818181818181756 14.03125  21.818181818181756 14.25  L 21.818181818181756 27.75  C 21.818181818181756 27.96875  21.75426136363626 28.1484375  21.62642045454527 28.2890625  C 21.49857954545473 28.4296875  21.335227272727252 28.5  21.13636363636374 28.5  L 19.772727272727025 28.5  C 19.57386363636374 28.5  19.41051136363626 28.4296875  19.28267045454527 28.2890625  C 19.15482954545473 28.1484375  19.09090909090878 27.96875  19 27.75  L 19 14.25  C 19.09090909090878 14.03125  19.15482954545473 13.8515625  19.28267045454527 13.7109375  C 19.41051136363626 13.5703125  19.57386363636374 13.5  19.772727272727025 13.5  L 21.13636363636374 13.5  C 21.335227272727252 13.5  21.49857954545473 13.5703125  21.62642045454527 13.7109375  Z M 24.396306818181756 32.16796875  C 24.49573863636374 31.87890625  24.54545454545473 31.5625  24 31.21875  L 24 9  L 6 9  L 6 31.21875  C 5.4545454545452685 31.5625  5.50426136363626 31.87890625  5.603693181818244 32.16796875  C 5.703125 32.45703125  5.8061079545452685 32.66796875  5.9126420454547315 32.80078125  C 6.01917613636374 32.93359375  6.09375 33  6.13636363636374 33  L 23.86363636363626 33  C 23.90625 33  23.98082386363626 32.93359375  24.08735795454527 32.80078125  C 24.19389204545473 32.66796875  24.296875 32.45703125  24.396306818181756 32.16796875  Z M 11.271306818181756 3.2578125  L 10.227272727272975 6  L 19.772727272727025 6  L 18.75 3.2578125  C 18.65056818181847 3.1171875  18.529829545454504 3.03125  18.38778409090878 3  L 11.633522727272975 3  C 11.491477272727252 3.03125  11.37073863636374 3.1171875  11.271306818181756 3.2578125  Z M 29.80823863636374 6.2109375  C 29.93607954545473 6.3515625  30 6.53125  30 6.75  L 30 8.25  C 30 8.46875  29.93607954545473 8.6484375  29.80823863636374 8.7890625  C 29.680397727272975 8.9296875  29.517045454545496 9  29.318181818181756 9  L 27 9  L 27 31.21875  C 27.272727272727025 32.515625  26.938920454545496 33.63671875  26.271306818181756 34.58203125  C 25.603693181818244 35.52734375  24.80113636363626 36  23.86363636363626 36  L 6.13636363636374 36  C 5.19886363636374 36  4.396306818181756 35.54296875  3.728693181818244 34.62890625  C 3.061079545454504 33.71484375  2.7272727272729753 32.609375  3 31.3125  L 3 9  L 0.6818181818182438 9  C 0.4829545454545041 9  0.3196022727270247 8.9296875  0.19176136363626028 8.7890625  C 0.06392045454526851 8.6484375  0 8.46875  0 8.25  L 0 6.75  C 0 6.53125  0.06392045454526851 6.3515625  0.19176136363626028 6.2109375  C 0.3196022727270247 6.0703125  0.4829545454545041 6  0.6818181818182438 6  L 7.265625 6  L 8.757102272727025 2.0859375  C 8.970170454545269 1.5078125  9.353693181818244 1.015625  9.907670454545269 0.609375  C 10.461647727272975 0.203125  11.022727272727252 0  11.59090909090878 0  L 18.40909090909122 0  C 18.977272727272748 0  19.538352272727025 0.203125  20.09232954545473 0.609375  C 20.646306818181756 1.015625  21.02982954545473 1.5078125  21.242897727272975 2.0859375  L 22.734375 6  L 29.318181818181756 6  C 29.517045454545496 6  29.680397727272975 6.0703125  29.80823863636374 6.2109375  Z " fill-rule="nonzero" fill="#ffffff" stroke="none" fill-opacity="0.6274509803921569" transform="matrix(1 0 0 1 1416 92 )" />
  </g>
</svg>