<?xml version="1.0" encoding="utf-8"?>
<svg version="1.1" xmlns:xlink="http://www.w3.org/1999/xlink" width="42px" height="42px" xmlns="http://www.w3.org/2000/svg">
  <g transform="matrix(1 0 0 1 -530 -13 )">
    <path d="M 41.01010101010104 31.393939393939377  C 41.670033670033604 32.053872053872055  42 32.85521885521888  42 33.79797979797979  C 42 34.74074074074076  41.670033670033604 35.54208754208756  41.01010101010104 36.20202020202018  L 36.20202020202021 41.01010101010101  C 35.54208754208753 41.67003367003369  34.74074074074076 42  33.79797979797968 42  C 32.85521885521882 42  32.053872053872055 41.67003367003369  31.39393939393949 41.01010101010101  L 21 30.616161616161634  L 10.60606060606051 41.01010101010101  C 9.946127946127945 41.67003367003369  9.144781144781177 42  8.202020202020321 42  C 7.259259259259238 42  6.457912457912471 41.67003367003369  5.797979797979792 41.01010101010101  L 0.9898989898989612 36.20202020202018  C 0.32996632996639624 35.54208754208756  0 34.74074074074076  0 33.79797979797979  C 0 32.85521885521888  0.32996632996639624 32.053872053872055  0.9898989898989612 31.393939393939377  L 11.38383838383834 21  L 0.9898989898989612 10.606060606060623  C 0.32996632996639624 9.946127946127945  0 9.14478114478112  0 8.202020202020208  C 0 7.259259259259267  0.32996632996639624 6.4579124579124425  0.9898989898989612 5.797979797979821  L 5.797979797979792 0.9898989898989896  C 6.457912457912471 0.3299663299663109  7.259259259259238 0  8.202020202020321 0  C 9.144781144781177 0  9.946127946127945 0.3299663299663109  10.60606060606051 0.9898989898989896  L 21 11.383838383838366  L 31.39393939393949 0.9898989898989896  C 32.053872053872055 0.3299663299663109  32.85521885521882 0  33.79797979797968 0  C 34.74074074074076 0  35.54208754208753 0.3299663299663109  36.20202020202021 0.9898989898989896  L 41.01010101010104 5.797979797979821  C 41.670033670033604 6.4579124579124425  42 7.259259259259267  42 8.202020202020208  C 42 9.14478114478112  41.670033670033604 9.946127946127945  41.01010101010104 10.606060606060623  L 30.616161616161662 21  L 41.01010101010104 31.393939393939377  Z " fill-rule="nonzero" fill="#ffffff" stroke="none" transform="matrix(1 0 0 1 530 13 )" />
  </g>
</svg>