<?xml version="1.0" encoding="utf-8"?>
<svg version="1.1" xmlns:xlink="http://www.w3.org/1999/xlink" width="38px" height="30px" xmlns="http://www.w3.org/2000/svg">
  <g transform="matrix(1 0 0 1 -1337 -105 )">
    <path d="M 17.72197309417038 22.5  L 18.914798206277965 22.5  L 21.38565022421517 20.028409090909065  L 18.14798206278033 16.789772727272748  L 15.677130044843125 19.261363636363626  L 15.677130044843125 20.45454545454544  L 17.72197309417038 20.45454545454544  L 17.72197309417038 22.5  Z M 28.26569506726446 7.862215909090934  C 28.507100149476855 7.620738636363626  28.51420029895371 7.386363636363626  28.286995515695025 7.159090909090935  C 28.05979073243634 6.931818181818187  27.825485799701028 6.938920454545439  27.584080717488632 7.180397727272748  L 20.128923766816115 14.637784090909065  C 19.887518684603947 14.879261363636374  19.88041853512709 15.113636363636374  20.10762331838555 15.340909090909063  C 20.334828101644234 15.568181818181815  20.569133034379547 15.561079545454561  20.810538116591715 15.319602272727252  L 28.26569506726446 7.862215909090934  Z M 29.565022421524645 19.197443181818187  C 29.849028400598172 19.31107954545456  29.991031390134594 19.51704545454544  29.991031390134594 19.815340909090935  L 29.991031390134594 23.863636363636374  C 29.991031390134594 25.553977272727252  29.39106875934226 26.999289772727252  28.19114349775782 28.199573863636374  C 26.99121823617338 29.39985795454544  25.546337817638232 30  23.856502242152374 30  L 6.134529147981993 30  C 4.444693572496135 30  2.999813153961213 29.39985795454544  1.799887892376546 28.199573863636374  C 0.5999626307923336 26.999289772727252  0 25.553977272727252  0 23.863636363636374  L 0 6.136363636363626  C 0 4.446022727272748  0.5999626307923336 3.000710227272748  1.799887892376546 1.800426136363626  C 2.999813153961213 0.600142045454561  4.444693572496135 0  6.134529147981993 0  L 23.856502242152374 0  C 24.751121076233176 0  25.58183856502228 0.17755681818181301  26.348654708520144 0.532670454545439  C 26.56165919282489 0.6321022727272521  26.689461883408285 0.795454545454561  26.73206278026896 1.022727272727252  C 26.774663677129865 1.264204545454561  26.710762331838623 1.470170454545439  26.540358744394553 1.640625  L 25.4966367713007 2.684659090909065  C 25.29783258594898 2.883522727272748  25.070627802690524 2.940340909090935  24.815022421524645 2.855113636363626  C 24.488415545590442 2.769886363636374  24.168908819133094 2.727272727272748  23.856502242152374 3  L 6.134529147981993 3  C 5.197309417040287 2.727272727272748  4.394992526158603 3.061079545454561  3.7275784753362586 3.728693181818187  C 3.0601644245141415 4.396306818181813  2.726457399103083 5.198863636363626  3 6.136363636363626  L 3 23.863636363636374  C 2.726457399103083 24.801136363636374  3.0601644245141415 25.603693181818187  3.7275784753362586 26.271306818181813  C 4.394992526158603 26.93892045454544  5.197309417040287 27.272727272727252  6.134529147981993 27  L 23.856502242152374 27  C 24.793721973094307 27.272727272727252  25.59603886397599 26.93892045454544  26.26345291479811 26.271306818181813  C 26.930866965620453 25.603693181818187  27.264573991031284 24.801136363636374  27.264573991031284 23.863636363636374  L 27.264573991031284 21.178977272727252  C 27.264573991031284 20.994318181818187  27.32847533632298 20.838068181818187  27.456278026905693 20.710227272727252  L 28.819506726457348 19.346590909090935  C 29.032511210762323 19.133522727272748  29.281016442451346 19.083806818181813  29.565022421524645 19.197443181818187  Z M 13.63228699551587 18.409090909090935  L 27.94618834080711 4.090909090909065  L 34.080717488789105 10.227272727272748  L 19.766816143497863 24.54545454545456  L 13.63228699551587 24.54545454545456  L 13.63228699551587 18.409090909090935  Z M 38 5.454545454545439  C 38 6.022727272727252  37.801195814648736 6.505681818181813  37.40358744394621 6.903409090909065  L 35.44394618834076 8.863636363636374  L 29.309417040358767 2.727272727272748  L 31.269058295964214 0.767045454545439  C 31.666666666666742 0.369318181818187  32.14947683109108 0.17045454545456096  32.71748878923768 0.17045454545456096  C 33.28550074738405 0.17045454545456096  33.76831091180861 0.369318181818187  34.16591928251137 0.767045454545439  L 37.40358744394621 4.005681818181813  C 37.801195814648736 4.403409090909065  38 4.886363636363626  38 5.454545454545439  Z " fill-rule="nonzero" fill="#ffffff" stroke="none" transform="matrix(1 0 0 1 1337 105 )" />
  </g>
</svg>