<?xml version="1.0" encoding="utf-8"?>
<svg version="1.1" xmlns:xlink="http://www.w3.org/1999/xlink" width="29px" height="36px" xmlns="http://www.w3.org/2000/svg">
  <g transform="matrix(1 0 0 1 -1454 -102 )">
    <path d="M 10.360085227272975 13.7109375  C 10.483664772727025 13.8515625  10.545454545454731 14.03125  11 14.25  L 11 27.75  C 10.545454545454731 27.96875  10.483664772727025 28.1484375  10.360085227272975 28.2890625  C 10.236505681818244 28.4296875  10.078598484848499 28.5  9.88636363636374 28.5  L 8.568181818181756 28.5  C 8.375946969696997 28.5  8.218039772727025 28.4296875  8.094460227272975 28.2890625  C 7.970880681818244 28.1484375  7.909090909090992 27.96875  8 27.75  L 8 14.25  C 7.909090909090992 14.03125  7.970880681818244 13.8515625  8.094460227272975 13.7109375  C 8.218039772727025 13.5703125  8.375946969696997 13.5  8.568181818181756 13.5  L 9.88636363636374 13.5  C 10.078598484848499 13.5  10.236505681818244 13.5703125  10.360085227272975 13.7109375  Z M 15.6328125 13.7109375  C 15.756392045454733 13.8515625  15.818181818181756 14.03125  15.818181818181756 14.25  L 15.818181818181756 27.75  C 15.818181818181756 27.96875  15.756392045454733 28.1484375  15.6328125 28.2890625  C 15.509232954545267 28.4296875  15.351325757575749 28.5  15.159090909090992 28.5  L 13.840909090909008 28.5  C 13.64867424242425 28.5  13.490767045454731 28.4296875  13.3671875 28.2890625  C 13.243607954545269 28.1484375  13.181818181818244 27.96875  13.181818181818244 27.75  L 13.181818181818244 14.25  C 13.181818181818244 14.03125  13.243607954545269 13.8515625  13.3671875 13.7109375  C 13.490767045454731 13.5703125  13.64867424242425 13.5  13.840909090909008 13.5  L 15.159090909090992 13.5  C 15.351325757575749 13.5  15.509232954545267 13.5703125  15.6328125 13.7109375  Z M 20.905539772727025 13.7109375  C 21.029119318181756 13.8515625  21.09090909090901 14.03125  21 14.25  L 21 27.75  C 21.09090909090901 27.96875  21.029119318181756 28.1484375  20.905539772727025 28.2890625  C 20.781960227272975 28.4296875  20.624053030303003 28.5  20.431818181818244 28.5  L 19.11363636363626 28.5  C 18.9214015151515 28.5  18.763494318181756 28.4296875  18.639914772727025 28.2890625  C 18.516335227272975 28.1484375  18.45454545454527 27.96875  18 27.75  L 18 14.25  C 18.45454545454527 14.03125  18.516335227272975 13.8515625  18.639914772727025 13.7109375  C 18.763494318181756 13.5703125  18.9214015151515 13.5  19.11363636363626 13.5  L 20.431818181818244 13.5  C 20.624053030303003 13.5  20.781960227272975 13.5703125  20.905539772727025 13.7109375  Z M 23.58309659090901 32.16796875  C 23.6792140151515 31.87890625  23.727272727272975 31.5625  23.727272727272975 31.21875  L 23.727272727272975 9  L 5.272727272727025 9  L 5.272727272727025 31.21875  C 5.272727272727025 31.5625  5.320785984848499 31.87890625  5.416903409090992 32.16796875  C 5.5130208333332575 32.45703125  5.612571022727025 32.66796875  5.715553977272975 32.80078125  C 5.818536931818244 32.93359375  5.890625 33  5.931818181818244 33  L 23.068181818181756 33  C 23.109375 33  23.181463068181756 32.93359375  23.284446022727025 32.80078125  C 23.387428977272975 32.66796875  23.486979166666742 32.45703125  23.58309659090901 32.16796875  Z M 10.895596590909008 3.2578125  L 9.88636363636374 6  L 19.11363636363626 6  L 18.125 3.2578125  C 18.028882575757734 3.1171875  17.912168560606005 3.03125  17.77485795454527 3  L 11.24573863636374 3  C 11.108428030303003 3.03125  10.991714015151501 3.1171875  10.895596590909008 3.2578125  Z M 28.814630681818244 6.2109375  C 28.938210227272975 6.3515625  29 6.53125  29 6.75  L 29 8.25  C 29 8.46875  28.938210227272975 8.6484375  28.814630681818244 8.7890625  C 28.69105113636374 8.9296875  28.533143939393995 9  28.34090909090901 9  L 26 9  L 26 31.21875  C 26.36363636363626 32.515625  26.040956439393995 33.63671875  25.39559659090901 34.58203125  C 24.75023674242425 35.52734375  23.974431818181756 36  23.068181818181756 36  L 5.931818181818244 36  C 5.025568181818244 36  4.249763257575751 35.54296875  3.6044034090909918 34.62890625  C 2.9590435606060055 33.71484375  2.6363636363637397 32.609375  3 31.3125  L 3 9  L 0.6590909090909918 9  C 0.4668560606060055 9  0.3089488636362603 8.9296875  0.18536931818175617 8.7890625  C 0.06178977272702468 8.6484375  0 8.46875  0 8.25  L 0 6.75  C 0 6.53125  0.06178977272702468 6.3515625  0.18536931818175617 6.2109375  C 0.3089488636362603 6.0703125  0.4668560606060055 6  0.6590909090909918 6  L 7.0234375 6  L 8.46519886363626 2.0859375  C 8.671164772727025 1.5078125  9.041903409090992 1.015625  9.577414772727025 0.609375  C 10.11292613636374 0.203125  10.655303030303003 0  11.204545454545269 0  L 17.79545454545473 0  C 18.344696969696997 0  18.88707386363626 0.203125  19.422585227272975 0.609375  C 19.95809659090901 1.015625  20.328835227272975 1.5078125  20.53480113636374 2.0859375  L 21.9765625 6  L 28.34090909090901 6  C 28.533143939393995 6  28.69105113636374 6.0703125  28.814630681818244 6.2109375  Z " fill-rule="nonzero" fill="#ffffff" stroke="none" fill-opacity="0.6274509803921569" transform="matrix(1 0 0 1 1454 102 )" />
  </g>
</svg>