<?xml version="1.0" encoding="utf-8"?>
<svg version="1.1" xmlns:xlink="http://www.w3.org/1999/xlink" width="23px" height="27px" xmlns="http://www.w3.org/2000/svg">
  <g transform="matrix(1 0 0 1 -607 -13 )">
    <path d="M 22.45791245791247 20.181818181818173  C 22.819304152637415 20.60606060606061  23 21.12121212121214  23 21.72727272727272  C 23 22.333333333333343  22.819304152637415 22.84848484848486  22.45791245791247 23.272727272727252  L 19.82491582491582 26.36363636363636  C 19.463524130190763 26.787878787878796  19.02469135802471 27  18.508417508417438 27  C 17.992143658810278 27  17.553310886644226 26.787878787878796  17.191919191919283 26.36363636363636  L 11.5 19.681818181818194  L 5.808080808080717 26.36363636363636  C 5.446689113355774 26.787878787878796  5.007856341189722 27  4.491582491582562 27  C 3.9753086419752894 27  3.5364758698092373 26.787878787878796  3.1750841750841796 26.36363636363636  L 0.5420875420875291 23.272727272727252  C 0.18069584736258545 22.84848484848486  0 22.333333333333343  0 21.72727272727272  C 0 21.12121212121214  0.18069584736258545 20.60606060606061  0.5420875420875291 20.181818181818173  L 6.234006734006698 13.5  L 0.5420875420875291 6.818181818181827  C 0.18069584736258545 6.3939393939393945  0 5.878787878787861  0 5.272727272727277  C 0 4.666666666666671  0.18069584736258545 4.151515151515142  0.5420875420875291 3.727272727272741  L 3.1750841750841796 0.6363636363636367  C 3.5364758698092373 0.2121212121212004  3.9753086419752894 0  4.491582491582562 0  C 5.007856341189722 0  5.446689113355774 0.2121212121212004  5.808080808080717 0.6363636363636367  L 11.5 7.318181818181806  L 17.191919191919283 0.6363636363636367  C 17.553310886644226 0.2121212121212004  17.992143658810278 0  18.508417508417438 0  C 19.02469135802471 0  19.463524130190763 0.2121212121212004  19.82491582491582 0.6363636363636367  L 22.45791245791247 3.727272727272741  C 22.819304152637415 4.151515151515142  23 4.666666666666671  23 5.272727272727277  C 23 5.878787878787861  22.819304152637415 6.3939393939393945  22.45791245791247 6.818181818181827  L 16.765993265993302 13.5  L 22.45791245791247 20.181818181818173  Z " fill-rule="nonzero" fill="#ffffff" stroke="none" transform="matrix(1 0 0 1 607 13 )" />
  </g>
</svg>