<?xml version="1.0" encoding="utf-8"?>
<svg version="1.1" xmlns:xlink="http://www.w3.org/1999/xlink" width="21px" height="27px" xmlns="http://www.w3.org/2000/svg">
  <g transform="matrix(1 0 0 1 -607 -10 )">
    <path d="M 20.505050505050463 20.18181818181817  C 20.83501683501686 20.60606060606061  21 21.121212121212135  21 21.727272727272723  C 21 22.333333333333343  20.83501683501686 22.84848484848486  20.505050505050463 23.272727272727252  L 18.101010101010047 26.36363636363636  C 17.771043771043765 26.787878787878796  17.370370370370438 27  16.89898989898984 27  C 16.427609427609468 27  16.026936026936028 26.787878787878796  15.696969696969745 26.36363636363636  L 10.5 19.681818181818194  L 5.303030303030255 26.36363636363636  C 4.973063973063972 26.787878787878796  4.572390572390532 27  4.101010101010161 27  C 3.6296296296295623 27  3.2289562289562355 26.787878787878796  2.898989898989953 26.36363636363636  L 0.49494949494953744 23.272727272727252  C 0.16498316498314125 22.84848484848486  0 22.333333333333343  0 21.727272727272723  C 0 21.121212121212135  0.16498316498314125 20.60606060606061  0.49494949494953744 20.18181818181817  L 5.69191919191917 13.5  L 0.49494949494953744 6.818181818181827  C 0.16498316498314125 6.3939393939393945  0 5.878787878787863  0 5.272727272727277  C 0 4.666666666666671  0.16498316498314125 4.151515151515142  0.49494949494953744 3.727272727272741  L 2.898989898989953 0.6363636363636367  C 3.2289562289562355 0.2121212121212004  3.6296296296295623 0  4.101010101010161 0  C 4.572390572390532 0  4.973063973063972 0.2121212121212004  5.303030303030255 0.6363636363636367  L 10.5 7.318181818181806  L 15.696969696969745 0.6363636363636367  C 16.026936026936028 0.2121212121212004  16.427609427609468 0  16.89898989898984 0  C 17.370370370370438 0  17.771043771043765 0.2121212121212004  18.101010101010047 0.6363636363636367  L 20.505050505050463 3.727272727272741  C 20.83501683501686 4.151515151515142  21 4.666666666666671  21 5.272727272727277  C 21 5.878787878787863  20.83501683501686 6.3939393939393945  20.505050505050463 6.818181818181827  L 15.308080808080831 13.5  L 20.505050505050463 20.18181818181817  Z " fill-rule="nonzero" fill="#ffffff" stroke="none" transform="matrix(1 0 0 1 607 10 )" />
  </g>
</svg>