<?xml version="1.0" encoding="utf-8"?>
<svg version="1.1" xmlns:xlink="http://www.w3.org/1999/xlink" width="42px" height="43px" xmlns="http://www.w3.org/2000/svg">
  <g transform="matrix(1 0 0 1 -553 0 )">
    <path d="M 41.01010101010104 32.141414141414124  C 41.670033670033604 32.81705948372615  42 33.63748597081933  42 34.6026936026936  C 42 35.56790123456792  41.670033670033604 36.38832772166107  41.01010101010104 37.06397306397304  L 36.20202020202021 41.98653198653198  C 35.54208754208753 42.66217732884402  34.74074074074076 43  33.79797979797968 43  C 32.85521885521882 43  32.053872053872055 42.66217732884402  31.39393939393949 41.98653198653198  L 21 31.345117845117866  L 10.60606060606051 41.98653198653198  C 9.946127946127945 42.66217732884402  9.144781144781177 43  8.202020202020321 43  C 7.259259259259238 43  6.457912457912471 42.66217732884402  5.797979797979792 41.98653198653198  L 0.9898989898989612 37.06397306397304  C 0.32996632996639624 36.38832772166107  0 35.56790123456792  0 34.6026936026936  C 0 33.63748597081933  0.32996632996639624 32.81705948372615  0.9898989898989612 32.141414141414124  L 11.38383838383834 21.5  L 0.9898989898989612 10.858585858585874  C 0.32996632996639624 10.182940516273849  0 9.36251402918067  0 8.397306397306401  C 0 7.432098765432108  0.32996632996639624 6.611672278338929  0.9898989898989612 5.936026936026958  L 5.797979797979792 1.013468013468013  C 6.457912457912471 0.33782267115598535  7.259259259259238 0  8.202020202020321 0  C 9.144781144781177 0  9.946127946127945 0.33782267115598535  10.60606060606051 1.013468013468013  L 21 11.654882154882138  L 31.39393939393949 1.013468013468013  C 32.053872053872055 0.33782267115598535  32.85521885521882 0  33.79797979797968 0  C 34.74074074074076 0  35.54208754208753 0.33782267115598535  36.20202020202021 1.013468013468013  L 41.01010101010104 5.936026936026958  C 41.670033670033604 6.611672278338929  42 7.432098765432108  42 8.397306397306401  C 42 9.36251402918067  41.670033670033604 10.182940516273849  41.01010101010104 10.858585858585874  L 30.616161616161662 21.5  L 41.01010101010104 32.141414141414124  Z " fill-rule="nonzero" fill="#ffffff" stroke="none" transform="matrix(1 0 0 1 553 0 )" />
  </g>
</svg>