<?xml version="1.0" encoding="utf-8"?>
<svg version="1.1" xmlns:xlink="http://www.w3.org/1999/xlink" width="31px" height="28px" xmlns="http://www.w3.org/2000/svg">
  <g transform="matrix(1 0 0 1 -475 -9 )">
    <path d="M 30.269360269360277 20.929292929292927  C 30.756453423120092 21.369248035914694  31 21.903479236812558  31 22.531986531986547  C 31 23.160493827160508  30.756453423120092 23.69472502805837  30.269360269360277 24.13468013468014  L 26.720538720538684 27.34006734006732  C 26.23344556677887 27.780022446689088  25.64197530864203 28  24.946127946127945 28  C 24.25028058361397 28  23.65881032547702 27.780022446689088  23.171717171717205 27.34006734006732  L 15.5 20.410774410774422  L 7.828282828282794 27.34006734006732  C 7.34118967452298 27.780022446689088  6.749719416386029 28  6.053872053872055 28  C 5.3580246913579685 28  4.766554433221131 27.780022446689088  4.279461279461316 27.34006734006732  L 0.730639730639723 24.13468013468014  C 0.24354657687990766 23.69472502805837  0 23.160493827160508  0 22.531986531986547  C 0 21.903479236812558  0.24354657687990766 21.369248035914694  0.730639730639723 20.929292929292927  L 8.402356902356928 14  L 0.730639730639723 7.070707070707073  C 0.24354657687990766 6.630751964085306  0 6.096520763187442  0 5.468013468013481  C 0 4.839506172839492  0.24354657687990766 4.305274971941628  0.730639730639723 3.8653198653198615  L 4.279461279461316 0.6599326599326503  C 4.766554433221131 0.21997755331088342  5.3580246913579685 0  6.053872053872055 0  C 6.749719416386029 0  7.34118967452298 0.21997755331088342  7.828282828282794 0.6599326599326503  L 15.5 7.5892255892255776  L 23.171717171717205 0.6599326599326503  C 23.65881032547702 0.21997755331088342  24.25028058361397 0  24.946127946127945 0  C 25.64197530864203 0  26.23344556677887 0.21997755331088342  26.720538720538684 0.6599326599326503  L 30.269360269360277 3.8653198653198615  C 30.756453423120092 4.305274971941628  31 4.839506172839492  31 5.468013468013481  C 31 6.096520763187442  30.756453423120092 6.630751964085306  30.269360269360277 7.070707070707073  L 22.597643097643072 14  L 30.269360269360277 20.929292929292927  Z " fill-rule="nonzero" fill="#333333" stroke="none" transform="matrix(1 0 0 1 475 9 )" />
  </g>
</svg>