<?xml version="1.0" encoding="utf-8"?>
<svg version="1.1" xmlns:xlink="http://www.w3.org/1999/xlink" width="35px" height="32px" xmlns="http://www.w3.org/2000/svg">
  <g transform="matrix(1 0 0 1 -1562 -292 )">
    <path d="M 12.50355113636374 12.1875  C 12.65269886363626 12.3125  12.727272727272748 12.472222222222229  13 12.666666666666686  L 13 24.666666666666686  C 12.727272727272748 24.861111111111086  12.65269886363626 25.020833333333314  12.50355113636374 25.145833333333314  C 12.354403409090992 25.270833333333314  12.163825757575752 25.333333333333314  11.931818181818016 25.333333333333314  L 10.340909090909008 25.333333333333314  C 10.108901515151501 25.333333333333314  9.91832386363626 25.270833333333314  9.76917613636374 25.145833333333314  C 9.620028409090992 25.020833333333314  9.545454545454504 24.861111111111086  10 24.666666666666686  L 10 12.666666666666686  C 9.545454545454504 12.472222222222229  9.620028409090992 12.3125  9.76917613636374 12.1875  C 9.91832386363626 12.0625  10.108901515151501 12  10.340909090909008 12  L 11.931818181818016 12  C 12.163825757575752 12  12.354403409090992 12.0625  12.50355113636374 12.1875  Z M 18.8671875 12.1875  C 19.016335227272748 12.3125  19.09090909090901 12.472222222222229  19 12.666666666666686  L 19 24.666666666666686  C 19.09090909090901 24.861111111111086  19.016335227272748 25.020833333333314  18.8671875 25.145833333333314  C 18.718039772727252 25.270833333333314  18.52746212121201 25.333333333333314  18.295454545454504 25.333333333333314  L 16.704545454545496 25.333333333333314  C 16.47253787878799 25.333333333333314  16.281960227272748 25.270833333333314  16.1328125 25.145833333333314  C 15.983664772727252 25.020833333333314  15.909090909090992 24.861111111111086  16 24.666666666666686  L 16 12.666666666666686  C 15.909090909090992 12.472222222222229  15.983664772727252 12.3125  16.1328125 12.1875  C 16.281960227272748 12.0625  16.47253787878799 12  16.704545454545496 12  L 18.295454545454504 12  C 18.52746212121201 12  18.718039772727252 12.0625  18.8671875 12.1875  Z M 25.23082386363626 12.1875  C 25.37997159090901 12.3125  25.454545454545496 12.472222222222229  25 12.666666666666686  L 25 24.666666666666686  C 25.454545454545496 24.861111111111086  25.37997159090901 25.020833333333314  25.23082386363626 25.145833333333314  C 25.08167613636374 25.270833333333314  24.891098484848495 25.333333333333314  24.65909090909099 25.333333333333314  L 23.068181818181984 25.333333333333314  C 22.83617424242425 25.333333333333314  22.64559659090901 25.270833333333314  22.49644886363626 25.145833333333314  C 22.34730113636374 25.020833333333314  22.272727272727252 24.861111111111086  22 24.666666666666686  L 22 12.666666666666686  C 22.272727272727252 12.472222222222229  22.34730113636374 12.3125  22.49644886363626 12.1875  C 22.64559659090901 12.0625  22.83617424242425 12  23.068181818181984 12  L 24.65909090909099 12  C 24.891098484848495 12  25.08167613636374 12.0625  25.23082386363626 12.1875  Z M 28.462357954545496 28.59375  C 28.57836174242425 28.336805555555543  28.63636363636374 28.055555555555543  28 27.75  L 28 8  L 7 8  L 7 27.75  C 6.36363636363626 28.055555555555543  6.421638257575751 28.336805555555543  6.537642045454504 28.59375  C 6.653645833333485 28.850694444444457  6.77379261363626 29.038194444444457  6.89808238636374 29.15625  C 7.022372159090992 29.274305555555543  7.109375 29.333333333333314  7.159090909090992 29  L 27.84090909090901 29  C 27.890625 29.333333333333314  27.97762784090901 29.274305555555543  28.10191761363626 29.15625  C 28.22620738636374 29.038194444444457  28.346354166666515 28.850694444444457  28.462357954545496 28.59375  Z M 13.149857954545496 2.8958333333333144  L 11.931818181818016 5.333333333333314  L 23.068181818181984 5.333333333333314  L 21.875 2.8958333333333144  C 21.758996212121247 2.7708333333333144  21.618134469696997 2.694444444444457  21.452414772727252 2.6666666666666856  L 13.572443181818016 2.6666666666666856  C 13.406723484848499 2.694444444444457  13.265861742424248 2.7708333333333144  13.149857954545496 2.8958333333333144  Z M 34.77627840909099 5.520833333333314  C 34.92542613636374 5.645833333333314  35 5.805555555555543  35 6  L 35 7.333333333333314  C 35 7.5277777777777715  34.92542613636374 7.6875  34.77627840909099 7.8125  C 34.62713068181802 7.9375  34.436553030303 8  34.204545454545496 8  L 31.818181818181984 8  L 31.818181818181984 27.75  C 31.818181818181984 28.90277777777777  31.428740530303003 29.899305555555543  30.649857954545496 30.739583333333314  C 29.87097537878799 31.579861111111086  28.93465909090901 32  27.84090909090901 32  L 7.159090909090992 32  C 6.065340909090992 32  5.129024621212011 31.59375  4.350142045454504 30.78125  C 3.5712594696969973 29.96875  3.1818181818180165 28.986111111111086  3.1818181818180165 27.833333333333314  L 3.1818181818180165 8  L 0.7954545454545041 8  C 0.5634469696969973 8  0.37286931818198354 7.9375  0.22372159090900823 7.8125  C 0.07457386363626028 7.6875  0 7.5277777777777715  0 7.333333333333314  L 0 6  C 0 5.805555555555543  0.07457386363626028 5.645833333333314  0.22372159090900823 5.520833333333314  C 0.37286931818198354 5.395833333333314  0.5634469696969973 5.333333333333314  0.7954545454545041 5.333333333333314  L 8.4765625 5.333333333333314  L 10.216619318181984 1.8541666666666856  C 10.46519886363626 1.3402777777777715  10.912642045454504 0.9027777777777715  11.55894886363626 0.5416666666666856  C 12.205255681818016 0.18055555555554292  12.859848484848499 0  13.522727272727252 0  L 21.477272727272748 0  C 22.140151515151505 0  22.794744318181984 0.18055555555554292  23.44105113636374 0.5416666666666856  C 24.087357954545496 0.9027777777777715  24.53480113636374 1.3402777777777715  24.783380681818016 1.8541666666666856  L 26.5234375 5.333333333333314  L 34.204545454545496 5.333333333333314  C 34.436553030303 5.333333333333314  34.62713068181802 5.395833333333314  34.77627840909099 5.520833333333314  Z " fill-rule="nonzero" fill="#ffffff" stroke="none" transform="matrix(1 0 0 1 1562 292 )" />
  </g>
</svg>