<?xml version="1.0" encoding="utf-8"?>
<svg version="1.1" xmlns:xlink="http://www.w3.org/1999/xlink" width="35px" height="28px" xmlns="http://www.w3.org/2000/svg">
  <g transform="matrix(1 0 0 1 -1556 -464 )">
    <path d="M 12.50355113636374 10.6640625  C 12.65269886363626 10.7734375  12.727272727272748 10.913194444444457  13 11.083333333333371  L 13 21.58333333333337  C 12.727272727272748 21.75347222222217  12.65269886363626 21.89322916666663  12.50355113636374 22.00260416666663  C 12.354403409090992 22.11197916666663  12.163825757575752 22.16666666666663  11.931818181818016 22.16666666666663  L 10.340909090909008 22.16666666666663  C 10.108901515151501 22.16666666666663  9.91832386363626 22.11197916666663  9.76917613636374 22.00260416666663  C 9.620028409090992 21.89322916666663  9.545454545454277 21.75347222222217  10 21.58333333333337  L 10 11.083333333333371  C 9.545454545454277 10.913194444444457  9.620028409090992 10.7734375  9.76917613636374 10.6640625  C 9.91832386363626 10.5546875  10.108901515151501 10.5  10.340909090909008 10.5  L 11.931818181818016 10.5  C 12.163825757575752 10.5  12.354403409090992 10.5546875  12.50355113636374 10.6640625  Z M 18.8671875 10.6640625  C 19.016335227272748 10.7734375  19.09090909090901 10.913194444444457  19 11.083333333333371  L 19 21.58333333333337  C 19.09090909090901 21.75347222222217  19.016335227272748 21.89322916666663  18.8671875 22.00260416666663  C 18.718039772727252 22.11197916666663  18.52746212121201 22.16666666666663  18.295454545454277 22.16666666666663  L 16.704545454545723 22.16666666666663  C 16.47253787878799 22.16666666666663  16.281960227272748 22.11197916666663  16.1328125 22.00260416666663  C 15.983664772727252 21.89322916666663  15.909090909090992 21.75347222222217  16 21.58333333333337  L 16 11.083333333333371  C 15.909090909090992 10.913194444444457  15.983664772727252 10.7734375  16.1328125 10.6640625  C 16.281960227272748 10.5546875  16.47253787878799 10.5  16.704545454545723 10.5  L 18.295454545454277 10.5  C 18.52746212121201 10.5  18.718039772727252 10.5546875  18.8671875 10.6640625  Z M 25.23082386363626 10.6640625  C 25.37997159090901 10.7734375  25.454545454545723 10.913194444444457  25 11.083333333333371  L 25 21.58333333333337  C 25.454545454545723 21.75347222222217  25.37997159090901 21.89322916666663  25.23082386363626 22.00260416666663  C 25.08167613636374 22.11197916666663  24.891098484848495 22.16666666666663  24.65909090909099 22.16666666666663  L 23.068181818181984 22.16666666666663  C 22.83617424242425 22.16666666666663  22.64559659090901 22.11197916666663  22.49644886363626 22.00260416666663  C 22.34730113636374 21.89322916666663  22.272727272727252 21.75347222222217  22 21.58333333333337  L 22 11.083333333333371  C 22.272727272727252 10.913194444444457  22.34730113636374 10.7734375  22.49644886363626 10.6640625  C 22.64559659090901 10.5546875  22.83617424242425 10.5  23.068181818181984 10.5  L 24.65909090909099 10.5  C 24.891098484848495 10.5  25.08167613636374 10.5546875  25.23082386363626 10.6640625  Z M 28.462357954545723 25.01953125  C 28.57836174242425 24.794704861111086  28.63636363636374 24.548611111111086  28 24.28125  L 28 7  L 7 7  L 7 24.28125  C 6.36363636363626 24.548611111111086  6.421638257575751 24.794704861111086  6.537642045454277 25.01953125  C 6.653645833333485 25.244357638888914  6.77379261363626 25.408420138888914  6.89808238636374 25.51171875  C 7.022372159090992 25.615017361111086  7.109375 25.66666666666663  7.159090909090992 25.66666666666663  L 27.84090909090901 25.66666666666663  C 27.890625 25.66666666666663  27.97762784090901 25.615017361111086  28.10191761363626 25.51171875  C 28.22620738636374 25.408420138888914  28.346354166666515 25.244357638888914  28.462357954545723 25.01953125  Z M 13.149857954545723 2.5338541666666288  L 11.931818181818016 5  L 23.068181818181984 5  L 21.875 2.5338541666666288  C 21.75899621212102 2.4244791666666288  21.618134469696997 2.357638888888914  21.452414772727252 2.3333333333333712  L 13.572443181818016 2.3333333333333712  C 13.406723484848499 2.357638888888914  13.265861742424248 2.4244791666666288  13.149857954545723 2.5338541666666288  Z M 34.77627840909099 4.830729166666629  C 34.92542613636374 4.940104166666629  35 5.079861111111086  35 5.25  L 35 6.416666666666629  C 35 6.586805555555543  34.92542613636374 6.7265625  34.77627840909099 6.8359375  C 34.62713068181802 6.9453125  34.436553030303 7  34.20454545454572 7  L 31.818181818181984 7  L 31.818181818181984 24.28125  C 31.818181818181984 25.289930555555543  31.428740530303003 26.161892361111086  30.649857954545723 26.89713541666663  C 29.87097537878799 27.63237847222217  28.93465909090901 28  27.84090909090901 28  L 7.159090909090992 28  C 6.065340909090992 28  5.129024621212011 27.64453125  4.350142045454277 26.93359375  C 3.5712594696969973 26.22265625  3.1818181818180165 25.36284722222217  3.1818181818180165 24.35416666666663  L 3.1818181818180165 7  L 0.7954545454542767 7  C 0.5634469696969973 7  0.37286931818198354 6.9453125  0.22372159090900823 6.8359375  C 0.07457386363626028 6.7265625  0 6.586805555555543  0 6.416666666666629  L 0 5.25  C 0 5.079861111111086  0.07457386363626028 4.940104166666629  0.22372159090900823 4.830729166666629  C 0.37286931818198354 4.721354166666629  0.5634469696969973 4.666666666666629  0.7954545454542767 4.666666666666629  L 8.4765625 4.666666666666629  L 10.216619318181984 1.6223958333333712  C 10.46519886363626 1.172743055555543  10.912642045454277 0.7899305555555429  11.55894886363626 0.4739583333333712  C 12.205255681818016 0.15798611111108585  12.859848484848499 0  13.522727272727252 0  L 21.477272727272748 0  C 22.140151515151505 0  22.794744318181984 0.15798611111108585  23.44105113636374 0.4739583333333712  C 24.087357954545723 0.7899305555555429  24.53480113636374 1.172743055555543  24.783380681818016 1.6223958333333712  L 26.5234375 4.666666666666629  L 34.20454545454572 4.666666666666629  C 34.436553030303 4.666666666666629  34.62713068181802 4.721354166666629  34.77627840909099 4.830729166666629  Z " fill-rule="nonzero" fill="#ffffff" stroke="none" transform="matrix(1 0 0 1 1556 464 )" />
  </g>
</svg>