<?xml version="1.0" encoding="utf-8"?>
<svg version="1.1" xmlns:xlink="http://www.w3.org/1999/xlink" width="43px" height="38px" xmlns="http://www.w3.org/2000/svg">
  <g transform="matrix(1 0 0 1 -1626 -181 )">
    <path d="M 26.37109375 23.3046875  C 28.636518429487296 21.302684294871796  29.769230769230944 18.893429487179475  29.769230769230944 16.076923076923094  C 29.769230769230944 13.260416666666657  28.636518429487296 10.851161858974365  26.37109375 8.84915865384616  C 24.105669070512704 6.847155448717955  21.379407051282215 5.846153846153839  18.192307692307622 5.846153846153839  C 15.005208333333485 5.846153846153839  12.27894631410254 6.847155448717955  10.013521634615245 8.84915865384616  C 7.748096955128403 10.851161858974365  6.615384615384755 13.260416666666657  6.615384615384755 16.076923076923094  C 6.615384615384755 18.893429487179475  7.748096955128403 21.302684294871796  10.013521634615245 23.3046875  C 12.27894631410254 25.306690705128204  15.005208333333485 26.30769230769232  18.192307692307622 26.30769230769232  C 21.379407051282215 26.30769230769232  24.105669070512704 25.306690705128204  26.37109375 23.3046875  Z M 42.04387019230762 33.02163461538461  C 42.68129006410254 33.58493589743591  43 34.270032051282044  43 35.076923076923094  C 43 35.86858974358975  42.67267628205127 36.55368589743591  42.01802884615381 37.13221153846155  C 41.36338141025635 37.71073717948718  40.58814102564111 38  39.69230769230762 38  C 38.762019230769056 38  37.98677884615381 37.71073717948718  37.36658653846143 37.13221153846155  L 28.503004807692378 29.322115384615387  C 25.41927083333348 31.209935897435912  21.982371794871597 32.15384615384616  18.192307692307622 32.15384615384616  C 15.728766025641109 32.15384615384616  13.372896634615246 31.73137019230768  11.124699519230946 30.886418269230774  C 8.876502403846189 30.04146634615384  6.938401442307623 28.899639423076906  5.310396634615245 27.4609375  C 3.682391826922867 26.022235576923094  2.390324519230944 24.30949519230768  1.4341947115385665 22.32271634615384  C 0.4780649038461888 20.3359375  0 18.25400641025641  0 16.076923076923094  C 0 13.899839743589752  0.4780649038461888 11.81790865384616  1.4341947115385665 9.831129807692323  C 2.390324519230944 7.844350961538453  3.682391826922867 6.131610576923066  5.310396634615245 4.69290865384616  C 6.938401442307623 3.2542067307692264  8.876502403846189 2.112379807692321  11.124699519230946 1.2674278846153868  C 13.372896634615246 0.4224759615384528  15.728766025641109 0  18.192307692307622 0  C 20.655849358974137 0  23.01171875 0.4224759615384528  25.259915865384755 1.2674278846153868  C 27.508112980769056 2.112379807692321  29.446213942307622 3.2542067307692264  31.07421875 4.69290865384616  C 32.70222355769238 6.131610576923066  33.994290865384755 7.844350961538453  34.95042067307713 9.831129807692323  C 35.906550480769056 11.81790865384616  36.384615384615245 13.899839743589752  36.384615384615245 16.076923076923094  C 36.384615384615245 19.426282051282044  35.31650641025635 22.463541666666657  33.18028846153857 25.188701923076906  L 42.04387019230762 33.02163461538461  Z " fill-rule="nonzero" fill="#169bd5" stroke="none" transform="matrix(1 0 0 1 1626 181 )" />
  </g>
</svg>