<?xml version="1.0" encoding="utf-8"?>
<svg version="1.1" xmlns:xlink="http://www.w3.org/1999/xlink" width="31px" height="26px" xmlns="http://www.w3.org/2000/svg">
  <g transform="matrix(1 0 0 1 -1560 -516 )">
    <path d="M 11.074573863636488 9.90234375  C 11.206676136363512 10.00390625  11.272727272727252 10.133680555555543  11.272727272727252 10.291666666666629  L 11.272727272727252 20.04166666666663  C 11.272727272727252 20.199652777777715  11.206676136363512 20.32942708333337  11.074573863636488 20.43098958333337  C 10.942471590909236 20.53255208333337  10.77367424242425 20.58333333333337  10.568181818181756 20.58333333333337  L 9.159090909090764 20.58333333333337  C 8.953598484848499 20.58333333333337  8.784801136363512 20.53255208333337  8.652698863636488 20.43098958333337  C 8.520596590909236 20.32942708333337  8.454545454545496 20.199652777777715  8.454545454545496 20.04166666666663  L 8.454545454545496 10.291666666666629  C 8.454545454545496 10.133680555555543  8.520596590909236 10.00390625  8.652698863636488 9.90234375  C 8.784801136363512 9.80078125  8.953598484848499 9.75  9.159090909090764 9.75  L 10.568181818181756 9.75  C 10.77367424242425 9.75  10.942471590909236 9.80078125  11.074573863636488 9.90234375  Z M 16.7109375 9.90234375  C 16.843039772727252 10.00390625  16.909090909090764 10.133680555555543  16.909090909090764 10.291666666666629  L 16.909090909090764 20.04166666666663  C 16.909090909090764 20.199652777777715  16.843039772727252 20.32942708333337  16.7109375 20.43098958333337  C 16.578835227272748 20.53255208333337  16.41003787878776 20.58333333333337  16.204545454545496 20.58333333333337  L 14.795454545454504 20.58333333333337  C 14.589962121212238 20.58333333333337  14.421164772727252 20.53255208333337  14.2890625 20.43098958333337  C 14.156960227272748 20.32942708333337  14.090909090909236 20.199652777777715  14.090909090909236 20.04166666666663  L 14.090909090909236 10.291666666666629  C 14.090909090909236 10.133680555555543  14.156960227272748 10.00390625  14.2890625 9.90234375  C 14.421164772727252 9.80078125  14.589962121212238 9.75  14.795454545454504 9.75  L 16.204545454545496 9.75  C 16.41003787878776 9.75  16.578835227272748 9.80078125  16.7109375 9.90234375  Z M 22.347301136363512 9.90234375  C 22.479403409090764 10.00390625  22.545454545454504 10.133680555555543  22.545454545454504 10.291666666666629  L 22.545454545454504 20.04166666666663  C 22.545454545454504 20.199652777777715  22.479403409090764 20.32942708333337  22.347301136363512 20.43098958333337  C 22.215198863636488 20.53255208333337  22.0464015151515 20.58333333333337  21.840909090909236 20.58333333333337  L 20.431818181818244 20.58333333333337  C 20.22632575757575 20.58333333333337  20.057528409090764 20.53255208333337  19.925426136363512 20.43098958333337  C 19.793323863636488 20.32942708333337  19.727272727272748 20.199652777777715  19.727272727272748 20.04166666666663  L 19.727272727272748 10.291666666666629  C 19.727272727272748 10.133680555555543  19.793323863636488 10.00390625  19.925426136363512 9.90234375  C 20.057528409090764 9.80078125  20.22632575757575 9.75  20.431818181818244 9.75  L 21.840909090909236 9.75  C 22.0464015151515 9.75  22.215198863636488 9.80078125  22.347301136363512 9.90234375  Z M 25.209517045454504 23.232421875  C 25.31226325757575 23.023654513888914  25.363636363636488 22.795138888888914  25 22.546875  L 25 7  L 6 7  L 6 22.546875  C 5.636363636363512 22.795138888888914  5.687736742424249 23.023654513888914  5.790482954545496 23.232421875  C 5.8932291666667425 23.441189236111086  5.999644886363512 23.593532986111086  6.109730113636488 23.689453125  C 6.219815340909236 23.785373263888914  6.296875 23.83333333333337  6.340909090909236 23.83333333333337  L 24.659090909090764 23.83333333333337  C 24.703125 23.83333333333337  24.780184659090764 23.785373263888914  24.890269886363512 23.689453125  C 25.000355113636488 23.593532986111086  25.106770833333258 23.441189236111086  25.209517045454504 23.232421875  Z M 11.647017045454504 2.3528645833333712  L 10.568181818181756 4.333333333333371  L 20.431818181818244 4.333333333333371  L 19.375 2.3528645833333712  C 19.272253787878753 2.2513020833333712  19.147490530303003 2.189236111111086  19.000710227272748 2.1666666666666288  L 12.021306818181756 2.1666666666666288  C 11.874526515151501 2.189236111111086  11.74976325757575 2.2513020833333712  11.647017045454504 2.3528645833333712  Z M 30.801846590909236 4.485677083333371  C 30.933948863636488 4.587239583333371  31 4.717013888888914  31 4.875  L 31 5.958333333333371  C 31 6.116319444444457  30.933948863636488 6.24609375  30.801846590909236 6.34765625  C 30.669744318181756 6.44921875  30.500946969696997 6.5  30.295454545454504 6.5  L 28 6.5  L 28 22.546875  C 28.181818181818244 23.483506944444457  27.836884469696997 24.293185763888914  27.147017045454504 24.97591145833337  C 26.45714962121224 25.658637152777715  25.627840909090764 26  24.659090909090764 26  L 6.340909090909236 26  C 5.372159090909236 26  4.542850378787762 25.669921875  3.852982954545496 25.009765625  C 3.1631155303030027 24.349609375  2.818181818181756 23.551215277777715  3 22.61458333333337  L 3 6.5  L 0.7045454545454959 6.5  C 0.49905303030300274 6.5  0.33025568181824383 6.44921875  0.1981534090907644 6.34765625  C 0.06605113636351234 6.24609375  0 6.116319444444457  0 5.958333333333371  L 0 4.875  C 0 4.717013888888914  0.06605113636351234 4.587239583333371  0.1981534090907644 4.485677083333371  C 0.33025568181824383 4.384114583333371  0.49905303030300274 4.333333333333371  0.7045454545454959 4.333333333333371  L 7.5078125 4.333333333333371  L 9.049005681818244 1.5065104166666288  C 9.269176136363512 1.088975694444457  9.665482954545496 0.7335069444444571  10.237926136363512 0.44010416666662877  C 10.810369318181756 0.14670138888891415  11.390151515151501 0  11.977272727272748 0  L 19.022727272727252 0  C 19.6098484848485 0  20.189630681818244 0.14670138888891415  20.762073863636488 0.44010416666662877  C 21.334517045454504 0.7335069444444571  21.730823863636488 1.088975694444457  21.950994318181756 1.5065104166666288  L 23.4921875 4.333333333333371  L 30.295454545454504 4.333333333333371  C 30.500946969696997 4.333333333333371  30.669744318181756 4.384114583333371  30.801846590909236 4.485677083333371  Z " fill-rule="nonzero" fill="#ffffff" stroke="none" transform="matrix(1 0 0 1 1560 516 )" />
  </g>
</svg>