<?xml version="1.0" encoding="utf-8"?>
<svg version="1.1" xmlns:xlink="http://www.w3.org/1999/xlink" width="34px" height="26px" xmlns="http://www.w3.org/2000/svg">
  <g transform="matrix(1 0 0 1 -165 -153 )">
    <path d="M 33.323863636363626 9.971590909090907  C 33.774621212121204 10.316287878787875  34 10.734848484848499  34 11.22727272727272  L 34 14.77272727272728  C 34 15.265151515151501  33.774621212121204 15.683712121212125  33.323863636363626 16.028409090909093  C 32.87310606060606 16.373106060606062  32.325757575757564 16.54545454545456  31.681818181818187 16.54545454545456  L 21.636363636363626 16.54545454545456  L 21.636363636363626 24.22727272727272  C 21.636363636363626 24.71969696969697  21.410984848484844 25.138257575757564  20.96022727272728 25.48295454545456  C 20.509469696969717 25.8276515151515  19.962121212121204 26  19.318181818181813 26  L 14.681818181818173 26  C 14.037878787878796 26  13.490530303030312 25.8276515151515  13.03977272727272 25.48295454545456  C 12.589015151515156 25.138257575757564  12.36363636363636 24.71969696969697  12.36363636363636 24.22727272727272  L 12.36363636363636 16.54545454545456  L 2.3181818181818272 16.54545454545456  C 1.674242424242422 16.54545454545456  1.1268939393939377 16.373106060606062  0.6761363636363598 16.028409090909093  C 0.22537878787879606 15.683712121212125  0 15.265151515151501  0 14.77272727272728  L 0 11.22727272727272  C 0 10.734848484848499  0.22537878787879606 10.316287878787875  0.6761363636363598 9.971590909090907  C 1.1268939393939377 9.626893939393938  1.674242424242422 9.454545454545467  2.3181818181818272 9.454545454545467  L 12.36363636363636 9.454545454545467  L 12.36363636363636 1.7727272727272805  C 12.36363636363636 1.2803030303030312  12.589015151515156 0.8617424242424363  13.03977272727272 0.5170454545454675  C 13.490530303030312 0.17234848484849863  14.037878787878796 0  14.681818181818173 0  L 19.318181818181813 0  C 19.962121212121204 0  20.509469696969717 0.17234848484849863  20.96022727272728 0.5170454545454675  C 21.410984848484844 0.8617424242424363  21.636363636363626 1.2803030303030312  21.636363636363626 1.7727272727272805  L 21.636363636363626 9.454545454545467  L 31.681818181818187 9.454545454545467  C 32.325757575757564 9.454545454545467  32.87310606060606 9.626893939393938  33.323863636363626 9.971590909090907  Z " fill-rule="nonzero" fill="#ffffff" stroke="none" transform="matrix(1 0 0 1 165 153 )" />
  </g>
</svg>