<?xml version="1.0" encoding="utf-8"?>
<svg version="1.1" xmlns:xlink="http://www.w3.org/1999/xlink" width="28px" height="21px" xmlns="http://www.w3.org/2000/svg">
  <g transform="matrix(1 0 0 1 -1216 -287 )">
    <path d="M 13.058295964125591 15.75  L 13.937219730941706 15.75  L 15.75784753363223 14.019886363636376  L 13.37219730941706 11.752840909090935  L 11.551569506726537 13.482954545454561  L 11.551569506726537 14.318181818181813  L 13.058295964125591 14.318181818181813  L 13.058295964125591 15.75  Z M 20.827354260089578 5.503551136363626  C 21.005231689088305 5.334517045454561  21.010463378176382 5.170454545454561  20.843049327354265 5.011363636363626  C 20.675635276532148 4.852272727272691  20.502989536621726 4.857244318181813  20.325112107623227 5.026278409090935  L 14.831838565022508 10.246448863636374  C 14.653961136024009 10.415482954545439  14.648729446935704 10.579545454545439  14.816143497757821 10.738636363636376  C 14.983557548579938 10.897727272727309  15.156203288490133 10.892755681818185  15.33408071748886 10.723721590909065  L 20.827354260089578 5.503551136363626  Z M 21.784753363228674 13.438210227272748  C 21.99402092675632 13.517755681818185  22.098654708520144 13.661931818181813  22.098654708520144 13.870738636363624  L 22.098654708520144 16.70454545454544  C 22.098654708520144 17.887784090909065  21.656576980567934 18.899502840909122  20.77242152466374 19.73970170454544  C 19.88826606875932 20.579900568181813  18.823617339312477 21  17.578475336322754 21  L 4.520179372197163 21  C 3.2750373692076664 21  2.210388639760822 20.579900568181813  1.3262331838566297 19.73970170454544  C 0.4420777279522099 18.899502840909122  0 17.887784090909065  0 16.70454545454544  L 0 4.295454545454561  C 0 3.1122159090909354  0.4420777279522099 2.100497159090878  1.3262331838566297 1.260298295454561  C 2.210388639760822 0.420099431818187  3.2750373692076664 0  4.520179372197163 0  L 17.578475336322754 0  C 18.237668161435067 0  18.84977578475332 0.12428977272725206  19.414798206277965 0.372869318181813  C 19.5717488789237 0.4424715909091219  19.66591928251114 0.556818181818187  19.697309417040515 0.7159090909090651  C 19.728699551569434 0.884943181818187  19.681614349775828 1.029119318181813  19.55605381165924 1.1484375  L 18.786995515695025 1.879261363636374  C 18.640508221225673 2.018465909090878  18.473094170403556 2.058238636363626  18.284753363228674 1.998579545454561  C 18.04409566517188 1.938920454545439  17.808669656203392 1.9090909090909347  17.578475336322754 2  L 4.520179372197163 2  C 3.829596412556157 1.9090909090909347  3.238415545590442 2.142755681818187  2.746636771300473 2.610085227272748  C 2.254857997010504 3.0774147727272516  2.0089686098654056 3.639204545454561  2 4.295454545454561  L 2 16.70454545454544  C 2.0089686098654056 17.36079545454544  2.254857997010504 17.922585227272748  2.746636771300473 18.389914772727252  C 3.238415545590442 18.857244318181813  3.829596412556157 19.090909090909065  4.520179372197163 19  L 17.578475336322754 19  C 18.269058295964214 19.090909090909065  18.8602391629297 18.857244318181813  19.35201793721967 18.389914772727252  C 19.843796711509867 17.922585227272748  20.089686098654738 17.36079545454544  20.089686098654738 16.70454545454544  L 20.089686098654738 14.825284090909065  C 20.089686098654738 14.696022727272691  20.136771300448572 14.586647727272748  20.230941704035786 14.497159090909065  L 21.23542600896849 13.542613636363624  C 21.392376681614223 13.393465909090935  21.575485799701028 13.358664772727309  21.784753363228674 13.438210227272748  Z M 10.044843049327255 12.886363636363624  L 20.59192825112109 2.863636363636374  L 25.11210762331848 7.159090909090935  L 14.565022421524647 17.181818181818187  L 10.044843049327255 17.181818181818187  L 10.044843049327255 12.886363636363624  Z M 28 3.818181818181813  C 28 4.215909090909122  27.853512705530648 4.553977272727252  27.560538116591943 4.832386363636374  L 26.116591928251182 6.204545454545438  L 21.596412556053792 1.9090909090909347  L 23.04035874439478 0.536931818181813  C 23.333333333333485 0.2585227272726911  23.689088191330256 0.119318181818187  24.107623318385777 0.119318181818187  C 24.52615844544107 0.119318181818187  24.88191330343784 0.2585227272726911  25.174887892376773 0.536931818181813  L 27.560538116591943 2.803977272727252  C 27.853512705530648 3.0823863636363735  28 3.420454545454504  28 3.818181818181813  Z " fill-rule="nonzero" fill="#ffffff" stroke="none" transform="matrix(1 0 0 1 1216 287 )" />
  </g>
</svg>