<?xml version="1.0" encoding="utf-8"?>
<svg version="1.1" xmlns:xlink="http://www.w3.org/1999/xlink" width="23px" height="21px" xmlns="http://www.w3.org/2000/svg">
  <g transform="matrix(1 0 0 1 -1365 -287 )">
    <path d="M 8.216619318181984 7.998046875  C 8.314630681818016 8.080078125  8.363636363636488 8.184895833333314  8.363636363636488 8.3125  L 8.363636363636488 16.1875  C 8.363636363636488 16.315104166666686  8.314630681818016 16.419921875  8.216619318181984 16.501953125  C 8.118607954545496 16.583984375  7.993371212121247 16.625  7.840909090909008 16.625  L 6.795454545454504 16.625  C 6.642992424242493 16.625  6.517755681818016 16.583984375  6.419744318181984 16.501953125  C 6.321732954545496 16.419921875  6.272727272727252 16.315104166666686  6.272727272727252 16.1875  L 6.272727272727252 8.3125  C 6.272727272727252 8.184895833333314  6.321732954545496 8.080078125  6.419744318181984 7.998046875  C 6.517755681818016 7.916015625  6.642992424242493 7.875  6.795454545454504 7.875  L 7.840909090909008 7.875  C 7.993371212121247 7.875  8.118607954545496 7.916015625  8.216619318181984 7.998046875  Z M 12.3984375 7.998046875  C 12.496448863636486 8.080078125  12.545454545454504 8.184895833333314  12.545454545454504 8.3125  L 12.545454545454504 16.1875  C 12.545454545454504 16.315104166666686  12.496448863636486 16.419921875  12.3984375 16.501953125  C 12.300426136363514 16.583984375  12.17518939393949 16.625  12.022727272727252 16.625  L 10.977272727272748 16.625  C 10.82481060606051 16.625  10.699573863636488 16.583984375  10.6015625 16.501953125  C 10.503551136363512 16.419921875  10.454545454545496 16.315104166666686  10.454545454545496 16.1875  L 10.454545454545496 8.3125  C 10.454545454545496 8.184895833333314  10.503551136363512 8.080078125  10.6015625 7.998046875  C 10.699573863636488 7.916015625  10.82481060606051 7.875  10.977272727272748 7.875  L 12.022727272727252 7.875  C 12.17518939393949 7.875  12.300426136363514 7.916015625  12.3984375 7.998046875  Z M 16.580255681818016 7.998046875  C 16.678267045454504 8.080078125  16.727272727272748 8.184895833333314  16.727272727272748 8.3125  L 16.727272727272748 16.1875  C 16.727272727272748 16.315104166666686  16.678267045454504 16.419921875  16.580255681818016 16.501953125  C 16.482244318181984 16.583984375  16.357007575757507 16.625  16.204545454545496 16.625  L 15.159090909090992 16.625  C 15.006628787878752 16.625  14.881392045454504 16.583984375  14.783380681818016 16.501953125  C 14.685369318181984 16.419921875  14.636363636363514 16.315104166666686  14.636363636363514 16.1875  L 14.636363636363514 8.3125  C 14.636363636363514 8.184895833333314  14.685369318181984 8.080078125  14.783380681818016 7.998046875  C 14.881392045454504 7.916015625  15.006628787878752 7.875  15.159090909090992 7.875  L 16.204545454545496 7.875  C 16.357007575757507 7.875  16.482244318181984 7.916015625  16.580255681818016 7.998046875  Z M 18.703835227272748 18.7646484375  C 18.780066287878753 18.59602864583337  18.818181818181984 18.41145833333337  18.818181818181984 18.2109375  L 18.818181818181984 5.25  L 4.1818181818180165 5.25  L 4.1818181818180165 18.2109375  C 4.1818181818180165 18.41145833333337  4.219933712121247 18.59602864583337  4.296164772727252 18.7646484375  C 4.372395833333485 18.93326822916663  4.4513494318180165 19.05631510416663  4.5330255681819835 19.1337890625  C 4.614701704545496 19.21126302083337  4.671875 19.25  4.704545454545496 19  L 18.295454545454504 19  C 18.328125 19.25  18.385298295454504 19.21126302083337  18.466974431818016 19.1337890625  C 18.548650568181984 19.05631510416663  18.627604166666515 18.93326822916663  18.703835227272748 18.7646484375  Z M 8.641335227272748 1.900390625  L 7.840909090909008 3.5  L 15.159090909090992 3.5  L 14.375 1.900390625  C 14.298768939393993 1.818359375  14.206202651515014 1.768229166666629  14.097301136363514 1.75  L 8.919034090909008 1.75  C 8.810132575757507 1.768229166666629  8.717566287878753 1.818359375  8.641335227272748 1.900390625  Z M 22.852982954545496 3.623046875  C 22.950994318181984 3.705078125  23 3.8098958333333712  23 3.9375  L 23 4.8125  C 23 4.940104166666686  22.950994318181984 5.044921875  22.852982954545496 5.126953125  C 22.75497159090901 5.208984375  22.629734848484986 5.25  22.477272727272748 5.25  L 21 5.25  L 21 18.2109375  C 20.90909090909099 18.967447916666686  20.653172348484986 19.62141927083337  20.141335227272748 20.1728515625  C 19.62949810606051 20.724283854166686  19.014204545454504 21  18.295454545454504 21  L 4.704545454545496 21  C 3.985795454545496 21  3.3705018939394904 20.7333984375  2.858664772727252 20.2001953125  C 2.3468276515150137 19.6669921875  2.0909090909090082 19.022135416666686  2 18.265625  L 2 5.25  L 0.5227272727272521 5.25  C 0.3702651515150137 5.25  0.24502840909099177 5.208984375  0.1470170454545041 5.126953125  C 0.049005681818016456 5.044921875  0 4.940104166666686  0 4.8125  L 0 3.9375  C 0 3.8098958333333712  0.049005681818016456 3.705078125  0.1470170454545041 3.623046875  C 0.24502840909099177 3.541015625  0.3702651515150137 3.5  0.5227272727272521 3.5  L 5.5703125 3.5  L 6.713778409090992 1.216796875  C 6.877130681818016 0.8795572916666855  7.171164772727252 0.5924479166666856  7.595880681818016 0.35546875  C 8.020596590909008 0.11848958333337123  8.450757575757507 0  8.886363636363512 0  L 14.113636363636486 0  C 14.549242424242493 0  14.979403409090992 0.11848958333337123  15.404119318181984 0.35546875  C 15.828835227272748 0.5924479166666856  16.122869318181984 0.8795572916666855  16.28622159090901 1.216796875  L 17.4296875 3.5  L 22.477272727272748 3.5  C 22.629734848484986 3.5  22.75497159090901 3.541015625  22.852982954545496 3.623046875  Z " fill-rule="nonzero" fill="#ffffff" stroke="none" transform="matrix(1 0 0 1 1365 287 )" />
  </g>
</svg>