<?xml version="1.0" encoding="utf-8"?>
<svg version="1.1" xmlns:xlink="http://www.w3.org/1999/xlink" width="28px" height="24px" xmlns="http://www.w3.org/2000/svg">
  <g transform="matrix(1 0 0 1 -1216 -402 )">
    <path d="M 13.058295964125591 18  L 13.937219730941706 18  L 15.75784753363223 16.022727272727252  L 13.37219730941706 13.431818181818187  L 11.551569506726537 15.409090909090935  L 11.551569506726537 16.363636363636317  L 13.058295964125591 16.363636363636317  L 13.058295964125591 18  Z M 20.827354260089578 6.289772727272748  C 21.005231689088305 6.096590909090878  21.010463378176382 5.909090909090878  20.843049327354265 5.727272727272748  C 20.675635276532148 5.545454545454504  20.502989536621726 5.551136363636374  20.325112107623227 5.744318181818187  L 14.831838565022508 11.710227272727252  C 14.653961136024009 11.903409090909122  14.648729446935704 12.090909090909122  14.816143497757821 12.272727272727252  C 14.983557548579938 12.454545454545496  15.156203288490133 12.448863636363626  15.33408071748886 12.255681818181813  L 20.827354260089578 6.289772727272748  Z M 21.784753363228674 15.357954545454618  C 21.99402092675632 15.448863636363626  22.098654708520144 15.613636363636317  22.098654708520144 15.852272727272748  L 22.098654708520144 19.090909090909065  C 22.098654708520144 20.443181818181756  21.656576980567934 21.599431818181813  20.77242152466374 22.559659090909065  C 19.88826606875932 23.519886363636374  18.823617339312477 24  17.578475336322754 24  L 4.520179372197163 24  C 3.2750373692076664 24  2.210388639760822 23.519886363636374  1.3262331838566297 22.559659090909065  C 0.4420777279522099 21.599431818181813  0 20.443181818181756  0 19.090909090909065  L 0 4.909090909090935  C 0 3.556818181818244  0.4420777279522099 2.400568181818187  1.3262331838566297 1.440340909090935  C 2.210388639760822 0.48011363636362603  3.2750373692076664 0  4.520179372197163 0  L 17.578475336322754 0  C 18.237668161435067 0  18.84977578475332 0.14204545454543904  19.414798206277965 0.42613636363631713  C 19.5717488789237 0.505681818181813  19.66591928251114 0.636363636363626  19.697309417040515 0.818181818181813  C 19.728699551569434 1.011363636363626  19.681614349775828 1.1761363636363171  19.55605381165924 1.3125  L 18.786995515695025 2.147727272727252  C 18.640508221225673 2.306818181818187  18.473094170403556 2.352272727272748  18.284753363228674 2.284090909090935  C 18.04409566517188 2.215909090909065  17.808669656203392 2.181818181818187  17.578475336322754 2.181818181818187  L 4.520179372197163 2.181818181818187  C 3.829596412556157 2.181818181818187  3.238415545590442 2.448863636363626  2.746636771300473 2.982954545454618  C 2.254857997010504 3.517045454545439  2.0089686098654056 4.159090909090935  2 4.909090909090935  L 2 19.090909090909065  C 2.0089686098654056 19.840909090909065  2.254857997010504 20.48295454545456  2.746636771300473 21.017045454545382  C 3.238415545590442 21.551136363636374  3.829596412556157 21.818181818181813  4.520179372197163 21.818181818181813  L 17.578475336322754 21.818181818181813  C 18.269058295964214 21.818181818181813  18.8602391629297 21.551136363636374  19.35201793721967 21.017045454545382  C 19.843796711509867 20.48295454545456  20.089686098654738 19.840909090909065  20.089686098654738 19.090909090909065  L 20.089686098654738 16.943181818181813  C 20.089686098654738 16.795454545454504  20.136771300448572 16.670454545454618  20.230941704035786 16.568181818181813  L 21.23542600896849 15.477272727272748  C 21.392376681614223 15.306818181818187  21.575485799701028 15.267045454545496  21.784753363228674 15.357954545454618  Z M 10.044843049327255 14.727272727272748  L 20.59192825112109 3.272727272727252  L 25.11210762331848 8.181818181818187  L 14.565022421524647 19.636363636363683  L 10.044843049327255 19.636363636363683  L 10.044843049327255 14.727272727272748  Z M 28 4.363636363636317  C 28 4.818181818181813  27.853512705530648 5.204545454545439  27.560538116591943 5.522727272727252  L 26.116591928251182 7.090909090909065  L 21.596412556053792 2.181818181818187  L 23.04035874439478 0.6136363636363171  C 23.333333333333485 0.2954545454545041  23.689088191330256 0.13636363636368287  24.107623318385777 0.13636363636368287  C 24.52615844544107 0.13636363636368287  24.88191330343784 0.2954545454545041  25.174887892376773 0.6136363636363171  L 27.560538116591943 3.204545454545382  C 27.853512705530648 3.522727272727309  28 3.9090909090908212  28 4.363636363636317  Z " fill-rule="nonzero" fill="#ffffff" stroke="none" transform="matrix(1 0 0 1 1216 402 )" />
  </g>
</svg>