<?xml version="1.0" encoding="utf-8"?>
<svg version="1.1" xmlns:xlink="http://www.w3.org/1999/xlink" width="30px" height="30px" xmlns="http://www.w3.org/2000/svg">
  <g transform="matrix(1 0 0 1 -1389 -97 )">
    <path d="M 13.991031390134594 22.5  L 14.932735426009003 22.5  L 16.883408071748818 20.028409090909065  L 14.327354260089578 16.789772727272748  L 12.376681614349764 19.261363636363626  L 12.376681614349764 20.45454545454544  L 13.991031390134594 20.45454545454544  L 13.991031390134594 22.5  Z M 22.315022421524645 7.862215909090934  C 22.505605381166106 7.620738636363626  22.511210762331757 7.386363636363626  22.331838565022508 7.159090909090935  C 22.152466367712805 6.931818181818187  21.967488789237677 6.938920454545439  21.776905829596217 7.180397727272748  L 15.891255605381046 14.637784090909065  C 15.700672645739814 14.879261363636374  15.695067264573938 15.113636363636374  15.87443946188341 15.340909090909063  C 16.05381165919289 15.568181818181815  16.238789237668016 15.561079545454561  16.42937219730925 15.319602272727252  L 22.315022421524645 7.862215909090934  Z M 23.340807174887914 19.197443181818187  C 23.565022421524873 19.31107954545456  23.677130044843125 19.51704545454544  23.677130044843125 19.815340909090935  L 23.677130044843125 23.863636363636374  C 23.677130044843125 25.553977272727252  23.203475336322754 26.999289772727252  22.256165919282466 28.199573863636374  C 21.30885650224218 29.39985795454544  20.168161434977492 30  18.834080717488632 30  L 4.843049327354265 30  C 3.5089686098654056 30  2.368273542600946 29.39985795454544  1.420964125560431 28.199573863636374  C 0.47365470852014374 26.999289772727252  0 25.553977272727252  0 23.863636363636374  L 0 6.136363636363626  C 0 4.446022727272748  0.47365470852014374 3.000710227272748  1.420964125560431 1.800426136363626  C 2.368273542600946 0.600142045454561  3.5089686098654056 0  4.843049327354265 0  L 18.834080717488632 0  C 19.540358744394553 0  20.19618834080711 0.17755681818181301  20.80156950672631 0.532670454545439  C 20.96973094170403 0.6321022727272521  21.07062780269075 0.795454545454561  21.104260089686022 1.022727272727252  C 21.13789237668152 1.264204545454561  21.087443946188387 1.470170454545439  20.952914798206393 1.640625  L 20.128923766816342 2.684659090909065  C 19.971973094170153 2.883522727272748  19.79260089686113 2.940340909090935  19.590807174887914 2.855113636363626  C 19.332959641255457 2.769886363636374  19.080717488789332 2.727272727272748  18.834080717488632 3  L 4.843049327354265 3  C 4.103139013453074 2.727272727272748  3.469730941704256 3.061079545454561  2.9428251121075846 3.728693181818187  C 2.4159192825111404 4.396306818181813  2.152466367713032 5.198863636363626  2.152466367713032 6.136363636363626  L 2.152466367713032 23.863636363636374  C 2.152466367713032 24.801136363636374  2.4159192825111404 25.603693181818187  2.9428251121075846 26.271306818181813  C 3.469730941704256 26.93892045454544  4.103139013453074 27.272727272727252  4.843049327354265 27  L 18.834080717488632 27  C 19.57399103139005 27.272727272727252  20.20739910313887 26.93892045454544  20.73430493273554 26.271306818181813  C 21.261210762331984 25.603693181818187  21.524663677129865 24.801136363636374  21.524663677129865 23.863636363636374  L 21.524663677129865 21.178977272727252  C 21.524663677129865 20.994318181818187  21.575112107623454 20.838068181818187  21.67600896860995 20.710227272727252  L 22.75224215246635 19.346590909090935  C 22.920403587443843 19.133522727272748  23.116591928251182 19.083806818181813  23.340807174887914 19.197443181818187  Z M 10.76233183856516 18.409090909090935  L 22.062780269058294 4.090909090909065  L 26.90582959641256 10.227272727272748  L 15.605381165919198 24.54545454545456  L 10.76233183856516 24.54545454545456  L 10.76233183856516 18.409090909090935  Z M 30 5.454545454545439  C 30 6.022727272727252  29.843049327354265 6.505681818181813  29.529147982062796 6.903409090909065  L 27.98206278026896 8.863636363636374  L 23.139013452914696 2.727272727272748  L 24.686098654708758 0.767045454545439  C 25.000000000000227 0.369318181818187  25.381165919282466 0.17045454545456096  25.829596412556157 0.17045454545456096  C 26.27802690582962 0.17045454545456096  26.659192825112086 0.369318181818187  26.973094170403783 0.767045454545439  L 29.529147982062796 4.005681818181813  C 29.843049327354265 4.403409090909065  30 4.886363636363626  30 5.454545454545439  Z " fill-rule="nonzero" fill="#ffffff" stroke="none" transform="matrix(1 0 0 1 1389 97 )" />
  </g>
</svg>