<?xml version="1.0" encoding="utf-8"?>
<svg version="1.1" xmlns:xlink="http://www.w3.org/1999/xlink" width="22px" height="36px" xmlns="http://www.w3.org/2000/svg">
  <g transform="matrix(1 0 0 1 -1499 -89 )">
    <path d="M 7.859375000000227 13.7109375  C 7.953124999999773 13.8515625  8.000000000000227 14.03125  8 14.25  L 8 27.75  C 8.000000000000227 27.96875  7.953124999999773 28.1484375  7.859375000000227 28.2890625  C 7.765625 28.4296875  7.6458333333332575 28.5  7.500000000000227 28.5  L 6.5 28.5  C 6.3541666666667425 28.5  6.234374999999773 28.4296875  6.140625000000227 28.2890625  C 6.046875 28.1484375  6 27.96875  6 27.75  L 6 14.25  C 6 14.03125  6.046875 13.8515625  6.140625000000227 13.7109375  C 6.234374999999773 13.5703125  6.3541666666667425 13.5  6.5 13.5  L 7.500000000000227 13.5  C 7.6458333333332575 13.5  7.765625 13.5703125  7.859375000000227 13.7109375  Z M 11.859375 13.7109375  C 11.953125000000227 13.8515625  12 14.03125  12 14.25  L 12 27.75  C 12 27.96875  11.953125000000227 28.1484375  11.859375 28.2890625  C 11.765624999999773 28.4296875  11.645833333333256 28.5  11.5 28.5  L 10.5 28.5  C 10.354166666666742 28.5  10.234375000000227 28.4296875  10.140625 28.2890625  C 10.046874999999773 28.1484375  10 27.96875  10 27.75  L 10 14.25  C 10 14.03125  10.046874999999773 13.8515625  10.140625 13.7109375  C 10.234375000000227 13.5703125  10.354166666666742 13.5  10.5 13.5  L 11.5 13.5  C 11.645833333333256 13.5  11.765624999999773 13.5703125  11.859375 13.7109375  Z M 15.859374999999773 13.7109375  C 15.953125 13.8515625  16 14.03125  16 14.25  L 16 27.75  C 16 27.96875  15.953125 28.1484375  15.859374999999773 28.2890625  C 15.765625000000227 28.4296875  15.645833333333258 28.5  15.5 28.5  L 14.499999999999773 28.5  C 14.354166666666742 28.5  14.234375 28.4296875  14.140624999999773 28.2890625  C 14.046875000000227 28.1484375  13.999999999999773 27.96875  14 27.75  L 14 14.25  C 13.999999999999773 14.03125  14.046875000000227 13.8515625  14.140624999999773 13.7109375  C 14.234375 13.5703125  14.354166666666742 13.5  14.499999999999773 13.5  L 15.5 13.5  C 15.645833333333258 13.5  15.765625000000227 13.5703125  15.859374999999773 13.7109375  Z M 17.890625 32.16796875  C 17.963541666666742 31.87890625  18.000000000000227 31.5625  18 31.21875  L 18 9  L 4 9  L 4 31.21875  C 3.999999999999772 31.5625  4.0364583333332575 31.87890625  4.109375 32.16796875  C 4.1822916666667425 32.45703125  4.257812499999773 32.66796875  4.335937500000227 32.80078125  C 4.4140625 32.93359375  4.46875 33  4.5 33  L 17.5 33  C 17.53125 33  17.5859375 32.93359375  17.664062499999773 32.80078125  C 17.742187500000227 32.66796875  17.817708333333258 32.45703125  17.890625 32.16796875  Z M 8.265625 3.2578125  L 7.500000000000227 6  L 14.499999999999773 6  L 13.75 3.2578125  C 13.677083333333485 3.1171875  13.588541666666742 3.03125  13.484374999999773 3  L 8.531250000000227 3  C 8.427083333333258 3.03125  8.338541666666742 3.1171875  8.265625 3.2578125  Z M 21.859375 6.2109375  C 21.953125000000227 6.3515625  22 6.53125  22 6.75  L 22 8.25  C 22 8.46875  21.953125000000227 8.6484375  21.859375 8.7890625  C 21.765625000000227 8.9296875  21.645833333333258 9  21.5 9  L 20 9  L 20 31.21875  C 19.999999999999773 32.515625  19.755208333333258 33.63671875  19.265625 34.58203125  C 18.776041666666742 35.52734375  18.1875 36  17.5 36  L 4.5 36  C 3.8125000000000004 36  3.2239583333332575 35.54296875  2.734375 34.62890625  C 2.2447916666667425 33.71484375  2.0000000000002274 32.609375  2 31.3125  L 2 9  L 0.5 9  C 0.35416666666674246 9  0.23437499999977263 8.9296875  0.140625 8.7890625  C 0.046874999999772626 8.6484375  0 8.46875  0 8.25  L 0 6.75  C 0 6.53125  0.046874999999772626 6.3515625  0.140625 6.2109375  C 0.23437499999977263 6.0703125  0.35416666666674246 6  0.5 6  L 5.328125 6  L 6.421874999999773 2.0859375  C 6.578124999999773 1.5078125  6.859375 1.015625  7.265624999999773 0.609375  C 7.671875000000227 0.203125  8.083333333333258 0  8.499999999999773 0  L 13.500000000000227 0  C 13.916666666666742 0  14.328124999999773 0.203125  14.734375000000227 0.609375  C 15.140625 1.015625  15.421875000000227 1.5078125  15.578125000000227 2.0859375  L 16.671875 6  L 21.5 6  C 21.645833333333258 6  21.765625000000227 6.0703125  21.859375 6.2109375  Z " fill-rule="nonzero" fill="#ffffff" stroke="none" fill-opacity="0.6274509803921569" transform="matrix(1 0 0 1 1499 89 )" />
  </g>
</svg>