<?xml version="1.0" encoding="utf-8"?>
<svg version="1.1" xmlns:xlink="http://www.w3.org/1999/xlink" width="12px" height="12px" viewBox="203 642  12 12" xmlns="http://www.w3.org/2000/svg">
  <path d="M 209 642  C 212.36 642  215 644.64  215 648  C 215 651.36  212.36 654  209 654  C 205.64 654  203 651.36  203 648  C 203 644.64  205.64 642  209 642  Z " fill-rule="nonzero" fill="#f0f0f0" stroke="none" />
  <path d="M 209 642.5  C 212.08 642.5  214.5 644.92  214.5 648  C 214.5 651.08  212.08 653.5  209 653.5  C 205.92 653.5  203.5 651.08  203.5 648  C 203.5 644.92  205.92 642.5  209 642.5  Z " stroke-width="1" stroke="#797979" fill="none" />
  <path d="M 209 651  C 207.32 651  206 649.68  206 648  C 206 646.32  207.32 645  209 645  C 210.68 645  212 646.32  212 648  C 212 649.68  210.68 651  209 651  " fill-rule="nonzero" fill="#797979" stroke="none" />
</svg>