<?xml version="1.0" encoding="utf-8"?>
<svg version="1.1" xmlns:xlink="http://www.w3.org/1999/xlink" width="12px" height="12px" viewBox="412 601  12 12" xmlns="http://www.w3.org/2000/svg">
  <path d="M 418 601  C 421.36 601  424 603.64  424 607  C 424 610.36  421.36 613  418 613  C 414.64 613  412 610.36  412 607  C 412 603.64  414.64 601  418 601  Z " fill-rule="nonzero" fill="#f0f0f0" stroke="none" />
  <path d="M 418 601.5  C 421.08 601.5  423.5 603.92  423.5 607  C 423.5 610.08  421.08 612.5  418 612.5  C 414.92 612.5  412.5 610.08  412.5 607  C 412.5 603.92  414.92 601.5  418 601.5  Z " stroke-width="1" stroke="#797979" fill="none" />
  <path d="M 418 610  C 416.32 610  415 608.68  415 607  C 415 605.32  416.32 604  418 604  C 419.68 604  421 605.32  421 607  C 421 608.68  419.68 610  418 610  " fill-rule="nonzero" fill="#797979" stroke="none" />
</svg>