<?xml version="1.0" encoding="utf-8"?>
<svg version="1.1" xmlns:xlink="http://www.w3.org/1999/xlink" width="12px" height="12px" viewBox="403 642  12 12" xmlns="http://www.w3.org/2000/svg">
  <path d="M 409 642  C 412.36 642  415 644.64  415 648  C 415 651.36  412.36 654  409 654  C 405.64 654  403 651.36  403 648  C 403 644.64  405.64 642  409 642  Z " fill-rule="nonzero" fill="#ffffff" stroke="none" />
  <path d="M 409 642.5  C 412.08 642.5  414.5 644.92  414.5 648  C 414.5 651.08  412.08 653.5  409 653.5  C 405.92 653.5  403.5 651.08  403.5 648  C 403.5 644.92  405.92 642.5  409 642.5  Z " stroke-width="1" stroke="#797979" fill="none" />
  <path d="M 409 651  C 407.32 651  406 649.68  406 648  C 406 646.32  407.32 645  409 645  C 410.68 645  412 646.32  412 648  C 412 649.68  410.68 651  409 651  " fill-rule="nonzero" fill="#797979" stroke="none" />
</svg>