<?xml version="1.0" encoding="utf-8"?>
<svg version="1.1" xmlns:xlink="http://www.w3.org/1999/xlink" width="12px" height="12px" viewBox="494 601  12 12" xmlns="http://www.w3.org/2000/svg">
  <path d="M 500 601  C 503.36 601  506 603.64  506 607  C 506 610.36  503.36 613  500 613  C 496.64 613  494 610.36  494 607  C 494 603.64  496.64 601  500 601  Z " fill-rule="nonzero" fill="#f0f0f0" stroke="none" />
  <path d="M 500 601.5  C 503.08 601.5  505.5 603.92  505.5 607  C 505.5 610.08  503.08 612.5  500 612.5  C 496.92 612.5  494.5 610.08  494.5 607  C 494.5 603.92  496.92 601.5  500 601.5  Z " stroke-width="1" stroke="#797979" fill="none" />
  <path d="M 500 610  C 498.32 610  497 608.68  497 607  C 497 605.32  498.32 604  500 604  C 501.68 604  503 605.32  503 607  C 503 608.68  501.68 610  500 610  " fill-rule="nonzero" fill="#797979" stroke="none" />
</svg>