<?xml version="1.0" encoding="utf-8"?>
<svg version="1.1" xmlns:xlink="http://www.w3.org/1999/xlink" width="12px" height="12px" viewBox="208 637  12 12" xmlns="http://www.w3.org/2000/svg">
  <path d="M 214 637  C 217.36 637  220 639.64  220 643  C 220 646.36  217.36 649  214 649  C 210.64 649  208 646.36  208 643  C 208 639.64  210.64 637  214 637  Z " fill-rule="nonzero" fill="#f0f0f0" stroke="none" />
  <path d="M 214 637.5  C 217.08 637.5  219.5 639.92  219.5 643  C 219.5 646.08  217.08 648.5  214 648.5  C 210.92 648.5  208.5 646.08  208.5 643  C 208.5 639.92  210.92 637.5  214 637.5  Z " stroke-width="1" stroke="#797979" fill="none" />
  <path d="M 214 646  C 212.32 646  211 644.68  211 643  C 211 641.32  212.32 640  214 640  C 215.68 640  217 641.32  217 643  C 217 644.68  215.68 646  214 646  " fill-rule="nonzero" fill="#797979" stroke="none" />
</svg>