<?xml version="1.0" encoding="utf-8"?>
<svg version="1.1" xmlns:xlink="http://www.w3.org/1999/xlink" width="12px" height="12px" viewBox="499 596  12 12" xmlns="http://www.w3.org/2000/svg">
  <path d="M 505 596  C 508.36 596  511 598.64  511 602  C 511 605.36  508.36 608  505 608  C 501.64 608  499 605.36  499 602  C 499 598.64  501.64 596  505 596  Z " fill-rule="nonzero" fill="#ffffff" stroke="none" />
  <path d="M 505 596.5  C 508.08 596.5  510.5 598.92  510.5 602  C 510.5 605.08  508.08 607.5  505 607.5  C 501.92 607.5  499.5 605.08  499.5 602  C 499.5 598.92  501.92 596.5  505 596.5  Z " stroke-width="1" stroke="#797979" fill="none" />
  <path d="M 505 605  C 503.32 605  502 603.68  502 602  C 502 600.32  503.32 599  505 599  C 506.68 599  508 600.32  508 602  C 508 603.68  506.68 605  505 605  " fill-rule="nonzero" fill="#797979" stroke="none" />
</svg>