<?xml version="1.0" encoding="utf-8"?>
<svg version="1.1" xmlns:xlink="http://www.w3.org/1999/xlink" width="12px" height="12px" viewBox="408 637  12 12" xmlns="http://www.w3.org/2000/svg">
  <path d="M 414 637  C 417.36 637  420 639.64  420 643  C 420 646.36  417.36 649  414 649  C 410.64 649  408 646.36  408 643  C 408 639.64  410.64 637  414 637  Z " fill-rule="nonzero" fill="#ffffff" stroke="none" />
  <path d="M 414 637.5  C 417.08 637.5  419.5 639.92  419.5 643  C 419.5 646.08  417.08 648.5  414 648.5  C 410.92 648.5  408.5 646.08  408.5 643  C 408.5 639.92  410.92 637.5  414 637.5  Z " stroke-width="1" stroke="#797979" fill="none" />
  <path d="M 414 646  C 412.32 646  411 644.68  411 643  C 411 641.32  412.32 640  414 640  C 415.68 640  417 641.32  417 643  C 417 644.68  415.68 646  414 646  " fill-rule="nonzero" fill="#797979" stroke="none" />
</svg>