<?xml version="1.0" encoding="utf-8"?>
<svg version="1.1" xmlns:xlink="http://www.w3.org/1999/xlink" width="37px" height="40px" xmlns="http://www.w3.org/2000/svg">
  <g transform="matrix(1 0 0 1 -196 -168 )">
    <path d="M 36.26420454545453 15.340909090909093  C 36.754734848484844 15.871212121212125  37 16.5151515151515  37 17.27272727272728  L 37 22.72727272727272  C 37 23.4848484848485  36.754734848484844 24.128787878787875  36.26420454545453 24.659090909090907  C 35.77367424242425 25.189393939393938  35.1780303030303 25.45454545454544  34.47727272727272 25  L 23 25  L 23 37.27272727272728  C 23.545454545454533 38.03030303030303  23.30018939393939 38.674242424242436  22.809659090909093 39.20454545454544  C 22.319128787878796 39.7348484848485  21.723484848484844 40  21.022727272727266 40  L 15.977272727272734 40  C 15.276515151515156 40  14.680871212121218 39.7348484848485  14.190340909090907 39.20454545454544  C 13.699810606060609 38.674242424242436  13.454545454545453 38.03030303030303  14 37.27272727272728  L 14 25  L 2.5227272727272663 25  C 1.8219696969697026 25.45454545454544  1.2263257575757507 25.189393939393938  0.7357954545454533 24.659090909090907  C 0.24526515151515582 24.128787878787875  0 23.4848484848485  0 22.72727272727272  L 0 17.27272727272728  C 0 16.5151515151515  0.24526515151515582 15.871212121212125  0.7357954545454533 15.340909090909093  C 1.2263257575757507 14.810606060606062  1.8219696969697026 14.545454545454561  2.5227272727272663 15  L 14 15  L 14 2.7272727272727195  C 13.454545454545453 1.9696969696969688  13.699810606060609 1.3257575757575637  14.190340909090907 0.7954545454545325  C 14.680871212121218 0.26515151515150137  15.276515151515156 0  15.977272727272734 0  L 21.022727272727266 0  C 21.723484848484844 0  22.319128787878796 0.26515151515150137  22.809659090909093 0.7954545454545325  C 23.30018939393939 1.3257575757575637  23.545454545454533 1.9696969696969688  23 2.7272727272727195  L 23 15  L 34.47727272727272 15  C 35.1780303030303 14.545454545454561  35.77367424242425 14.810606060606062  36.26420454545453 15.340909090909093  Z " fill-rule="nonzero" fill="#ffffff" stroke="none" transform="matrix(1 0 0 1 196 168 )" />
  </g>
</svg>