<?xml version="1.0" encoding="utf-8"?>
<svg version="1.1" xmlns:xlink="http://www.w3.org/1999/xlink" width="33px" height="28px" xmlns="http://www.w3.org/2000/svg">
  <g transform="matrix(1 0 0 1 -1536 -187 )">
    <path d="M 20.23828125 17.171875  C 21.976862980769283 15.696714743589752  22.84615384615381 13.921474358974336  22.84615384615381 11.84615384615384  C 22.84615384615381 9.770833333333343  21.976862980769283 7.995592948717927  20.23828125 6.520432692307679  C 18.499699519230717 5.045272435897431  16.407451923076906 4.307692307692321  13.961538461538339 4.307692307692321  C 11.515625 4.307692307692321  9.423377403846189 5.045272435897431  7.684795673077133 6.520432692307679  C 5.946213942307622 7.995592948717927  5.076923076922867 9.770833333333343  5.076923076922867 11.84615384615384  C 5.076923076922867 13.921474358974336  5.946213942307622 15.696714743589752  7.684795673077133 17.171875  C 9.423377403846189 18.64703525641025  11.515625 19.384615384615387  13.961538461538339 19.384615384615387  C 16.407451923076906 19.384615384615387  18.499699519230717 18.64703525641025  20.23828125 17.171875  Z M 32.26622596153834 24.331730769230774  C 32.75540865384619 24.74679487179489  33 25.25160256410257  33 25.84615384615384  C 33 26.429487179487182  32.748798076923094 26.93429487179489  32.24639423076928 27.360576923076934  C 31.743990384615472 27.786858974358978  31.149038461538566 28  30.46153846153834 28  C 29.74759615384619 28  29.152644230769283 27.786858974358978  28.676682692307622 27.360576923076934  L 21.87439903846166 21.605769230769226  C 19.5078125 22.99679487179489  16.870192307692378 23.69230769230768  13.961538461538339 23.69230769230768  C 12.070913461538566 23.69230769230768  10.262920673077133 23.381009615384613  8.537560096153811 22.758413461538453  C 6.812199519230717 22.13581730769232  5.324819711538339 21.29447115384616  4.075420673077133 20.234375  C 2.826021634615472 19.17427884615384  1.8344350961538112 17.912259615384613  1.1006610576923777 16.44831730769232  C 0.36688701923071676 14.984375  0 13.450320512820525  0 11.84615384615384  C 0 10.241987179487182  0.36688701923071676 8.70793269230768  1.1006610576923777 7.243990384615387  C 1.8344350961538112 5.780048076923066  2.826021634615472 4.51802884615384  4.075420673077133 3.457932692307679  C 5.324819711538339 2.397836538461519  6.812199519230717 1.5564903846153868  8.537560096153811 0.9338942307692548  C 10.262920673077133 0.311298076923066  12.070913461538566 0  13.961538461538339 0  C 15.852163461538339 0  17.66015625 0.311298076923066  19.385516826922867 0.9338942307692548  C 21.11087740384619 1.5564903846153868  22.59825721153834 2.397836538461519  23.84765625 3.457932692307679  C 25.09705528846166 4.51802884615384  26.088641826922867 5.780048076923066  26.822415865384528 7.243990384615387  C 27.55618990384619 8.70793269230768  27.923076923077133 10.241987179487182  27.923076923077133 11.84615384615384  C 27.923076923077133 14.31410256410257  27.103365384615472 16.552083333333343  25.463942307692378 18.56009615384616  L 32.26622596153834 24.331730769230774  Z " fill-rule="nonzero" fill="#ffffff" stroke="none" transform="matrix(1 0 0 1 1536 187 )" />
  </g>
</svg>