<?xml version="1.0" encoding="utf-8"?>
<svg version="1.1" xmlns:xlink="http://www.w3.org/1999/xlink" width="43px" height="30px" xmlns="http://www.w3.org/2000/svg">
  <g transform="matrix(1 0 0 1 -1208 -105 )">
    <path d="M 20.05381165919289 22.5  L 21.403587443946208 22.5  L 24.19955156950664 20.028409090909065  L 20.53587443946185 16.789772727272748  L 17.73991031390142 19.261363636363626  L 17.73991031390142 20.45454545454544  L 20.05381165919289 20.45454545454544  L 20.05381165919289 22.5  Z M 31.9848654708519 7.862215909090934  C 32.258034379671244 7.620738636363626  32.26606875934226 7.386363636363626  32.008968609865406 7.159090909090935  C 31.75186846038855 6.931818181818187  31.48673393124068 6.938920454545439  31.213565022421335 7.180397727272748  L 22.777466367713032 14.637784090909065  C 22.504297458893916 14.879261363636374  22.496263079222672 15.113636363636374  22.753363228699527 15.340909090909063  C 23.010463378176382 15.568181818181815  23.275597907324254 15.561079545454561  23.54876681614337 15.319602272727252  L 31.9848654708519 7.862215909090934  Z M 33.455156950672745 19.197443181818187  C 33.77653213751887 19.31107954545456  33.937219730941706 19.51704545454544  33.937219730941706 19.815340909090935  L 33.937219730941706 23.863636363636374  C 33.937219730941706 25.553977272727252  33.25831464872931 26.999289772727252  31.900504484304975 28.199573863636374  C 30.54269431988041 29.39985795454544  28.907698056801113 30  26.99551569506707 30  L 6.94170403587441 30  C 5.029521674140369 30  3.394525411061295 29.39985795454544  2.0367152466367315 28.199573863636374  C 0.6789050822123954 26.999289772727252  0 25.553977272727252  0 23.863636363636374  L 0 6.136363636363626  C 0 4.446022727272748  0.6789050822123954 3.000710227272748  2.0367152466367315 1.800426136363626  C 3.394525411061295 0.600142045454561  5.029521674140369 0  6.94170403587441 0  L 26.99551569506707 0  C 28.007847533632233 0  28.94786995515687 0.17755681818181301  29.815582959641233 0.532670454545439  C 30.056614349775597 0.6321022727272521  30.20123318385663 0.795454545454561  30.249439461883412 1.022727272727252  C 30.29764573991019 1.264204545454561  30.225336322870135 1.470170454545439  30.03251121076232 1.640625  L 28.85145739910331 2.684659090909065  C 28.62649476831075 2.883522727272748  28.36939461883412 2.940340909090935  28.08015695067274 2.855113636363626  C 27.710575485799612 2.769886363636374  27.349028400597945 2.727272727272748  26.99551569506707 3  L 6.94170403587441 3  C 5.881165919282466 2.727272727272748  4.97328101644257 3.061079545454561  4.218049327354265 3.728693181818187  C 3.4628176382659603 4.396306818181813  3.0852017937220353 5.198863636363626  3 6.136363636363626  L 3 23.863636363636374  C 3.0852017937220353 24.801136363636374  3.4628176382659603 25.603693181818187  4.218049327354265 26.271306818181813  C 4.97328101644257 26.93892045454544  5.881165919282466 27.272727272727252  6.94170403587441 27  L 26.99551569506707 27  C 28.05605381165924 27.272727272727252  28.963938714499136 26.93892045454544  29.71917040358744 26.271306818181813  C 30.474402092675746 25.603693181818187  30.85201793721967 24.801136363636374  30.85201793721967 23.863636363636374  L 30.85201793721967 21.178977272727252  C 30.85201793721967 20.994318181818187  30.924327354260186 20.838068181818187  31.06894618834076 20.710227272727252  L 32.611547085201664 19.346590909090935  C 32.85257847533626 19.133522727272748  33.13378176382662 19.083806818181813  33.455156950672745 19.197443181818187  Z M 15.426008968609949 18.409090909090935  L 31.623318385650233 4.090909090909065  L 38.565022421524645 10.227272727272748  L 22.36771300448436 24.54545454545456  L 15.426008968609949 24.54545454545456  L 15.426008968609949 18.409090909090935  Z M 43 5.454545454545439  C 43 6.022727272727252  42.775037369207894 6.505681818181813  42.32511210762323 6.903409090909065  L 40.10762331838555 8.863636363636374  L 33.16591928251114 2.727272727272748  L 35.383408071749045 0.767045454545439  C 35.833333333333485 0.369318181818187  36.37967115097149 0.17045454545456096  37.02242152466374 0.17045454545456096  C 37.665171898355766 0.17045454545456096  38.211509715994 0.369318181818187  38.661434977578665 0.767045454545439  L 42.32511210762323 4.005681818181813  C 42.775037369207894 4.403409090909065  43 4.886363636363626  43 5.454545454545439  Z " fill-rule="nonzero" fill="#333333" stroke="none" transform="matrix(1 0 0 1 1208 105 )" />
  </g>
</svg>