<?xml version="1.0" encoding="utf-8"?>
<svg version="1.1" xmlns:xlink="http://www.w3.org/1999/xlink" width="33px" height="36px" xmlns="http://www.w3.org/2000/svg">
  <g transform="matrix(1 0 0 1 -1379 -102 )">
    <path d="M 11.789062500000227 13.7109375  C 11.929687499999773 13.8515625  12.000000000000227 14.03125  12 14.25  L 12 27.75  C 12.000000000000227 27.96875  11.929687499999773 28.1484375  11.789062500000227 28.2890625  C 11.6484375 28.4296875  11.46875 28.5  11.250000000000227 28.5  L 9.75 28.5  C 9.53125 28.5  9.351562499999773 28.4296875  9.210937500000227 28.2890625  C 9.0703125 28.1484375  9 27.96875  9 27.75  L 9 14.25  C 9 14.03125  9.0703125 13.8515625  9.210937500000227 13.7109375  C 9.351562499999773 13.5703125  9.53125 13.5  9.75 13.5  L 11.250000000000227 13.5  C 11.46875 13.5  11.6484375 13.5703125  11.789062500000227 13.7109375  Z M 17.7890625 13.7109375  C 17.929687500000227 13.8515625  18 14.03125  18 14.25  L 18 27.75  C 18 27.96875  17.929687500000227 28.1484375  17.7890625 28.2890625  C 17.648437499999773 28.4296875  17.46875 28.5  17.25 28.5  L 15.75 28.5  C 15.53125 28.5  15.351562500000227 28.4296875  15.2109375 28.2890625  C 15.070312499999773 28.1484375  15 27.96875  15 27.75  L 15 14.25  C 15 14.03125  15.070312499999773 13.8515625  15.2109375 13.7109375  C 15.351562500000227 13.5703125  15.53125 13.5  15.75 13.5  L 17.25 13.5  C 17.46875 13.5  17.648437499999773 13.5703125  17.7890625 13.7109375  Z M 23.789062499999773 13.7109375  C 23.9296875 13.8515625  24 14.03125  24 14.25  L 24 27.75  C 24 27.96875  23.9296875 28.1484375  23.789062499999773 28.2890625  C 23.648437500000227 28.4296875  23.46875 28.5  23.25 28.5  L 21.749999999999773 28.5  C 21.53125 28.5  21.3515625 28.4296875  21.210937499999773 28.2890625  C 21.070312500000227 28.1484375  20.999999999999773 27.96875  21 27.75  L 21 14.25  C 20.999999999999773 14.03125  21.070312500000227 13.8515625  21.210937499999773 13.7109375  C 21.3515625 13.5703125  21.53125 13.5  21.749999999999773 13.5  L 23.25 13.5  C 23.46875 13.5  23.648437500000227 13.5703125  23.789062499999773 13.7109375  Z M 26.8359375 32.16796875  C 26.9453125 31.87890625  27.000000000000227 31.5625  27 31.21875  L 27 9  L 6 9  L 6 31.21875  C 5.999999999999773 31.5625  6.0546875 31.87890625  6.1640625 32.16796875  C 6.2734375 32.45703125  6.386718749999773 32.66796875  6.503906250000227 32.80078125  C 6.62109375 32.93359375  6.703125 33  6.75 33  L 26.25 33  C 26.296875 33  26.37890625 32.93359375  26.496093749999773 32.80078125  C 26.613281250000227 32.66796875  26.7265625 32.45703125  26.8359375 32.16796875  Z M 12.3984375 3.2578125  L 11.250000000000227 6  L 21.749999999999773 6  L 20.625 3.2578125  C 20.515625000000227 3.1171875  20.3828125 3.03125  20.226562499999773 3  L 12.796875000000227 3  C 12.640625 3.03125  12.5078125 3.1171875  12.3984375 3.2578125  Z M 32.7890625 6.2109375  C 32.92968750000023 6.3515625  33 6.53125  33 6.75  L 33 8.25  C 33 8.46875  32.92968750000023 8.6484375  32.7890625 8.7890625  C 32.64843750000023 8.9296875  32.46875 9  32.25 9  L 30 9  L 30 31.21875  C 29.999999999999773 32.515625  29.6328125 33.63671875  28.8984375 34.58203125  C 28.1640625 35.52734375  27.28125 36  26.25 36  L 6.75 36  C 5.71875 36  4.8359375 35.54296875  4.1015625 34.62890625  C 3.3671875 33.71484375  3.0000000000002274 32.609375  3 31.3125  L 3 9  L 0.75 9  C 0.53125 9  0.3515624999997726 8.9296875  0.2109375 8.7890625  C 0.07031249999977263 8.6484375  0 8.46875  0 8.25  L 0 6.75  C 0 6.53125  0.07031249999977263 6.3515625  0.2109375 6.2109375  C 0.3515624999997726 6.0703125  0.53125 6  0.75 6  L 7.9921875 6  L 9.632812499999773 2.0859375  C 9.867187499999773 1.5078125  10.2890625 1.015625  10.898437499999773 0.609375  C 11.507812500000227 0.203125  12.125 0  12.749999999999773 0  L 20.250000000000227 0  C 20.875 0  21.492187499999773 0.203125  22.101562500000227 0.609375  C 22.7109375 1.015625  23.132812500000227 1.5078125  23.367187500000227 2.0859375  L 25.0078125 6  L 32.25 6  C 32.46875 6  32.64843750000023 6.0703125  32.7890625 6.2109375  Z " fill-rule="nonzero" fill="#ffffff" stroke="none" fill-opacity="0.6274509803921569" transform="matrix(1 0 0 1 1379 102 )" />
  </g>
</svg>