<?xml version="1.0" encoding="utf-8"?>
<svg version="1.1" xmlns:xlink="http://www.w3.org/1999/xlink" width="38px" height="20px" xmlns="http://www.w3.org/2000/svg">
  <g transform="matrix(1 0 0 1 -1463 -220 )">
    <path d="M 17.72197309417038 15  L 18.914798206277965 15  L 21.38565022421517 13.352272727272776  L 18.147982062780102 11.193181818181813  L 15.677130044843125 12.840909090909122  L 15.677130044843125 13.636363636363654  L 17.72197309417038 13.636363636363654  L 17.72197309417038 15  Z M 28.26569506726446 5.241477272727224  C 28.507100149476855 5.080492424242408  28.514200298953938 4.924242424242408  28.286995515695253 4.772727272727224  C 28.059790732436568 4.621212121212125  27.825485799701255 4.62594696969694  27.584080717488632 4.786931818181813  L 20.128923766816342 9.758522727272776  C 19.88751868460372 9.919507575757592  19.88041853512709 10.075757575757592  20.10762331838555 10.227272727272776  C 20.334828101644234 10.378787878787875  20.569133034379774 10.374053030303003  20.810538116591943 10.213068181818187  L 28.26569506726446 5.241477272727224  Z M 29.565022421524645 12.79829545454541  C 29.849028400597945 12.874053030303003  29.991031390134594 13.011363636363654  29.991031390134594 13.210227272727224  L 29.991031390134594 15.909090909090878  C 29.991031390134594 17.035984848484816  29.39106875934226 17.99952651515153  28.19114349775782 18.799715909090878  C 26.99121823617338 19.59990530303031  25.546337817638463 20  23.8565022421526 20  L 6.134529147981993 20  C 4.444693572496135 20  2.999813153961213 19.59990530303031  1.7998878923767734 18.799715909090878  C 0.5999626307921062 17.99952651515153  0 17.035984848484816  0 15.909090909090878  L 0 4.090909090909065  C 0 2.9640151515151842  0.5999626307921062 2.00047348484847  1.7998878923767734 1.200284090909065  C 2.999813153961213 0.40009469696968836  4.444693572496135 0  6.134529147981993 0  L 23.8565022421526 0  C 24.751121076233407 0  25.581838565022736 0.11837121212121815  26.34865470852037 0.35511363636362603  C 26.561659192825346 0.4214015151515298  26.689461883408057 0.5303030303030596  26.732062780268734 0.681818181818187  C 26.77466367713032 0.8428030303030596  26.710762331838396 0.980113636363626  26.540358744394553 1.09375  L 25.496636771300928 1.7897727272727764  C 25.29783258594921 1.9223484848484702  25.070627802690524 1.9602272727272236  24.815022421524645 1.903409090909065  C 24.488415545590442 1.846590909090935  24.168908819133094 1.818181818181813  23.8565022421526 2  L 6.134529147981993 2  C 5.197309417040515 1.818181818181813  4.394992526158376 2.0407196969696884  3.7275784753362586 2.4857954545454106  C 3.060164424514369 2.930871212121218  2.726457399103083 3.465909090909065  3 4.090909090909065  L 3 15.909090909090878  C 2.726457399103083 16.534090909090878  3.060164424514369 17.06912878787881  3.7275784753362586 17.51420454545459  C 4.394992526158376 17.95928030303031  5.197309417040515 18.181818181818187  6.134529147981993 18  L 23.8565022421526 18  C 24.793721973094083 18.181818181818187  25.59603886397599 17.95928030303031  26.263452914798332 17.51420454545459  C 26.930866965620226 17.06912878787881  27.26457399103151 16.534090909090878  27.26457399103151 15.909090909090878  L 27.26457399103151 14.119318181818187  C 27.26457399103151 13.996212121212125  27.32847533632298 13.89204545454541  27.456278026905917 13.806818181818187  L 28.819506726457348 12.897727272727224  C 29.032511210762095 12.755681818181813  29.28101644245112 12.722537878787875  29.565022421524645 12.79829545454541  Z M 13.632286995516097 12.272727272727224  L 27.94618834080711 2.7272727272727764  L 34.08071748878933 6.818181818181813  L 19.766816143497863 16.363636363636346  L 13.632286995516097 16.363636363636346  L 13.632286995516097 12.272727272727224  Z M 38 3.636363636363626  C 38 4.01515151515153  37.80119581464851 4.33712121212119  37.403587443946435 4.602272727272776  L 35.44394618834099 5.909090909090935  L 29.309417040358994 1.818181818181813  L 31.26905829596376 0.511363636363626  C 31.666666666666288 0.24621212121212466  32.14947683109108 0.11363636363637397  32.717488789237905 0.11363636363637397  C 33.285500747384276 0.11363636363637397  33.76831091180884 0.24621212121212466  34.16591928251137 0.511363636363626  L 37.403587443946435 2.6704545454545894  C 37.80119581464851 2.935606060606034  38 3.257575757575779  38 3.636363636363626  Z " fill-rule="nonzero" fill="#ffffff" stroke="none" transform="matrix(1 0 0 1 1463 220 )" />
  </g>
</svg>