<?xml version="1.0" encoding="utf-8"?>
<svg version="1.1" xmlns:xlink="http://www.w3.org/1999/xlink" width="23px" height="23px" xmlns="http://www.w3.org/2000/svg">
  <g transform="matrix(1 0 0 1 -1605 -222 )">
    <path d="M 8.216619318181756 8.759765625  C 8.314630681818244 8.849609375  8.363636363636715 8.9644097222222  8.363636363636715 9.104166666666657  L 8.363636363636715 17.729166666666657  C 8.363636363636715 17.868923611111086  8.314630681818244 17.983723958333343  8.216619318181756 18.073567708333343  C 8.118607954545496 18.163411458333343  7.993371212121247 18.208333333333343  7.840909090909236 18.208333333333343  L 6.795454545454504 18.208333333333343  C 6.642992424242493 18.208333333333343  6.517755681818243 18.163411458333343  6.419744318181757 18.073567708333343  C 6.321732954545496 17.983723958333343  6.272727272727252 17.868923611111086  6.272727272727252 17.729166666666657  L 6.272727272727252 9.104166666666657  C 6.272727272727252 8.9644097222222  6.321732954545496 8.849609375  6.419744318181757 8.759765625  C 6.517755681818243 8.669921875  6.642992424242493 8.625  6.795454545454504 8.625  L 7.840909090909236 8.625  C 7.993371212121247 8.625  8.118607954545496 8.669921875  8.216619318181756 8.759765625  Z M 12.3984375 8.759765625  C 12.496448863636717 8.849609375  12.545454545454504 8.9644097222222  12.545454545454504 9.104166666666657  L 12.545454545454504 17.729166666666657  C 12.545454545454504 17.868923611111086  12.496448863636717 17.983723958333343  12.3984375 18.073567708333343  C 12.300426136363283 18.163411458333343  12.17518939393949 18.208333333333343  12.022727272727252 18.208333333333343  L 10.977272727272748 18.208333333333343  C 10.82481060606051 18.208333333333343  10.699573863636715 18.163411458333343  10.6015625 18.073567708333343  C 10.503551136363285 17.983723958333343  10.454545454545496 17.868923611111086  10.454545454545496 17.729166666666657  L 10.454545454545496 9.104166666666657  C 10.454545454545496 8.9644097222222  10.503551136363285 8.849609375  10.6015625 8.759765625  C 10.699573863636715 8.669921875  10.82481060606051 8.625  10.977272727272748 8.625  L 12.022727272727252 8.625  C 12.17518939393949 8.625  12.300426136363283 8.669921875  12.3984375 8.759765625  Z M 16.580255681818244 8.759765625  C 16.678267045454504 8.849609375  16.727272727272748 8.9644097222222  16.727272727272748 9.104166666666657  L 16.727272727272748 17.729166666666657  C 16.727272727272748 17.868923611111086  16.678267045454504 17.983723958333343  16.580255681818244 18.073567708333343  C 16.482244318181756 18.163411458333343  16.357007575757507 18.208333333333343  16.204545454545496 18.208333333333343  L 15.159090909090766 18.208333333333343  C 15.006628787878752 18.208333333333343  14.881392045454504 18.163411458333343  14.783380681818244 18.073567708333343  C 14.685369318181756 17.983723958333343  14.636363636363283 17.868923611111086  14.636363636363283 17.729166666666657  L 14.636363636363283 9.104166666666657  C 14.636363636363283 8.9644097222222  14.685369318181756 8.849609375  14.783380681818244 8.759765625  C 14.881392045454504 8.669921875  15.006628787878752 8.625  15.159090909090766 8.625  L 16.204545454545496 8.625  C 16.357007575757507 8.625  16.482244318181756 8.669921875  16.580255681818244 8.759765625  Z M 18.703835227272748 20.5517578125  C 18.780066287878753 20.36707899305557  18.818181818181756 20.16493055555557  18.818181818181756 19.9453125  L 18.818181818181756 6  L 4.181818181818244 6  L 4.181818181818244 19.9453125  C 4.181818181818244 20.16493055555557  4.219933712121247 20.36707899305557  4.296164772727252 20.5517578125  C 4.3723958333332575 20.73643663194443  4.451349431818244 20.87120225694443  4.533025568181756 20.9560546875  C 4.614701704545496 21.04090711805557  4.671875 21.083333333333314  4.704545454545496 21  L 18.295454545454504 21  C 18.328125 21.083333333333314  18.385298295454504 21.04090711805557  18.466974431818244 20.9560546875  C 18.548650568181756 20.87120225694443  18.627604166666742 20.73643663194443  18.703835227272748 20.5517578125  Z M 8.641335227272748 2.081380208333343  L 7.840909090909236 3.833333333333343  L 15.159090909090766 3.833333333333343  L 14.375 2.081380208333343  C 14.298768939393993 1.9915364583333428  14.206202651515241 1.9366319444444287  14.097301136363283 1.9166666666666572  L 8.919034090909236 1.9166666666666572  C 8.810132575757507 1.9366319444444287  8.717566287878753 1.9915364583333428  8.641335227272748 2.081380208333343  Z M 22.852982954545496 3.968098958333343  C 22.950994318181756 4.057942708333343  23 4.172743055555571  23 4.3125  L 23 5.270833333333343  C 23 5.4105902777778  22.950994318181756 5.525390625  22.852982954545496 5.615234375  C 22.754971590909236 5.705078125  22.62973484848476 5.75  22.477272727272748 5.75  L 21 5.75  L 21 19.9453125  C 20.909090909090764 20.7738715277778  20.65317234848476 21.49012586805557  20.141335227272748 22.094075520833314  C 19.62949810606051 22.698025173611086  19.014204545454504 23  18.295454545454504 23  L 4.704545454545496 23  C 3.985795454545496 23  3.3705018939394904 22.7080078125  2.858664772727252 22.1240234375  C 2.346827651515241 21.5400390625  2.0909090909092356 20.833767361111086  2 20.005208333333343  L 2 5.75  L 0.5227272727272521 5.75  C 0.37026515151524114 5.75  0.2450284090907644 5.705078125  0.1470170454545041 5.615234375  C 0.04900568181824383 5.525390625  0 5.4105902777778  0 5.270833333333343  L 0 4.3125  C 0 4.172743055555571  0.04900568181824383 4.057942708333343  0.1470170454545041 3.968098958333343  C 0.2450284090907644 3.878255208333343  0.37026515151524114 3.833333333333343  0.5227272727272521 3.833333333333343  L 5.5703125 3.833333333333343  L 6.713778409090764 1.3326822916666572  C 6.877130681818243 0.9633246527777999  7.171164772727252 0.6488715277777999  7.595880681818243 0.38932291666665725  C 8.020596590909236 0.12977430555557135  8.450757575757507 0  8.886363636363285 0  L 14.113636363636717 0  C 14.549242424242493 0  14.979403409090766 0.12977430555557135  15.404119318181756 0.38932291666665725  C 15.828835227272748 0.6488715277777999  16.122869318181756 0.9633246527777999  16.286221590909236 1.3326822916666572  L 17.4296875 3.833333333333343  L 22.477272727272748 3.833333333333343  C 22.62973484848476 3.833333333333343  22.754971590909236 3.878255208333343  22.852982954545496 3.968098958333343  Z " fill-rule="nonzero" fill="#ffffff" stroke="none" transform="matrix(1 0 0 1 1605 222 )" />
  </g>
</svg>