<?xml version="1.0" encoding="utf-8"?>
<svg version="1.1" xmlns:xlink="http://www.w3.org/1999/xlink" width="33px" height="20px" xmlns="http://www.w3.org/2000/svg">
  <g transform="matrix(1 0 0 1 -67 -106 )">
    <path d="M 32.34375 7.670454545454547  C 32.78125 7.935606060606062  33 8.25757575757575  33 8.63636363636364  L 33 11.36363636363636  C 33 11.742424242424235  32.78125 12.064393939393938  32.34375 12.329545454545467  C 31.90625 12.594696969696969  31.375 12.727272727272734  30.75 12.727272727272734  L 21 12.727272727272734  L 21 18.636363636363626  C 21 19.0151515151515  20.78125 19.337121212121218  20.34375 19.60227272727272  C 19.90625 19.86742424242425  19.375 20  18.75 20  L 14.25 20  C 13.625 20  13.09375 19.86742424242425  12.65625 19.60227272727272  C 12.21875 19.337121212121218  12 19.0151515151515  12 18.636363636363626  L 12 12.727272727272734  L 2.25 12.727272727272734  C 1.625 12.727272727272734  1.09375 12.594696969696969  0.65625 12.329545454545467  C 0.21875 12.064393939393938  0 11.742424242424235  0 11.36363636363636  L 0 8.63636363636364  C 0 8.25757575757575  0.21875 7.935606060606062  0.65625 7.670454545454547  C 1.09375 7.405303030303031  1.625 7.272727272727266  2.25 7.272727272727266  L 12 7.272727272727266  L 12 1.3636363636363598  C 12 0.9848484848484844  12.21875 0.6628787878787818  12.65625 0.3977272727272805  C 13.09375 0.1325757575757649  13.625 0  14.25 0  L 18.75 0  C 19.375 0  19.90625 0.1325757575757649  20.34375 0.3977272727272805  C 20.78125 0.6628787878787818  21 0.9848484848484844  21 1.3636363636363598  L 21 7.272727272727266  L 30.75 7.272727272727266  C 31.375 7.272727272727266  31.90625 7.405303030303031  32.34375 7.670454545454547  Z " fill-rule="nonzero" fill="#ffffff" stroke="none" transform="matrix(1 0 0 1 67 106 )" />
  </g>
</svg>