<?xml version="1.0" encoding="utf-8"?>
<svg version="1.1" xmlns:xlink="http://www.w3.org/1999/xlink" width="28px" height="23px" xmlns="http://www.w3.org/2000/svg">
  <g transform="matrix(1 0 0 1 -1322 -222 )">
    <path d="M 13.058295964125591 17.25  L 13.937219730941706 17.25  L 15.75784753363223 15.355113636363654  L 13.37219730941706 12.872159090909093  L 11.551569506726537 14.767045454545467  L 11.551569506726537 15.681818181818217  L 13.058295964125591 15.681818181818217  L 13.058295964125591 17.25  Z M 20.827354260089578 6.0276988636363455  C 21.005231689088305 5.842566287878782  21.010463378176155 5.662878787878782  20.843049327354265 5.4886363636363455  C 20.675635276532375 5.314393939393909  20.502989536621953 5.319839015151473  20.325112107623227 5.5049715909090935  L 14.83183856502228 11.222301136363654  C 14.653961136024009 11.407433712121218  14.648729446935704 11.587121212121216  14.816143497757821 11.761363636363654  C 14.983557548579938 11.93560606060609  15.15620328849036 11.930160984848468  15.33408071748886 11.745028409090907  L 20.827354260089578 6.0276988636363455  Z M 21.784753363228674 14.718039772727252  C 21.994020926756548 14.805160984848468  22.098654708520144 14.963068181818217  22.098654708520144 15.191761363636346  L 22.098654708520144 18.295454545454533  C 22.098654708520144 19.591382575757564  21.656576980567934 20.69945549242422  20.77242152466374 21.619673295454533  C 19.88826606875955 22.539891098484873  18.823617339312477 23  17.57847533632298 23  L 4.52017937219739 23  C 3.275037369207894 23  2.210388639760822 22.539891098484873  1.3262331838564023 21.619673295454533  C 0.4420777279522099 20.69945549242422  0 19.591382575757564  0 18.295454545454533  L 0 4.7045454545454675  C 0 3.4086174242424363  0.4420777279522099 2.300544507575779  1.3262331838564023 1.3803267045454675  C 2.210388639760822 0.4601089015151274  3.275037369207894 0  4.52017937219739 0  L 17.57847533632298 0  C 18.237668161435067 0  18.84977578475332 0.13612689393940514  19.414798206278192 0.408380681818187  C 19.571748878923927 0.48461174242422095  19.665919282511368 0.609848484848527  19.697309417040287 0.7840909090909065  C 19.728699551569434 0.969223484848527  19.681614349775828 1.127130681818187  19.55605381165924 1.2578125  L 18.786995515695253 2.0582386363636545  C 18.6405082212259 2.210700757575779  18.473094170403556 2.2542613636363455  18.284753363228674 2.1889204545454675  C 18.04409566517188 2.1235795454545325  17.808669656203165 2.0909090909090935  17.57847533632298 2  L 4.52017937219739 2  C 3.829596412556157 2.0909090909090935  3.2384155455902146 2.3468276515151274  2.746636771300473 2.858664772727252  C 2.254857997010504 3.3705018939394047  2.0089686098654056 3.9857954545454675  2 4.7045454545454675  L 2 18.295454545454533  C 2.0089686098654056 19.014204545454533  2.254857997010504 19.629498106060623  2.746636771300473 20.141335227272748  C 3.2384155455902146 20.653172348484873  3.829596412556157 20.909090909090907  4.52017937219739 21  L 17.57847533632298 21  C 18.269058295963987 20.909090909090907  18.8602391629297 20.653172348484873  19.352017937219898 20.141335227272748  C 19.84379671150964 19.629498106060623  20.08968609865451 19.014204545454533  20.08968609865451 18.295454545454533  L 20.08968609865451 16.237215909090907  C 20.08968609865451 16.09564393939391  20.136771300448345 15.975852272727252  20.230941704036013 15.877840909090907  L 21.235426008968716 14.832386363636346  C 21.39237668161445 14.669034090909093  21.575485799701255 14.63091856060609  21.784753363228674 14.718039772727252  Z M 10.044843049327483 14.113636363636346  L 20.591928251120862 3.1363636363636545  L 25.11210762331848 7.840909090909093  L 14.565022421524647 18.818181818181785  L 10.044843049327483 18.818181818181785  L 10.044843049327483 14.113636363636346  Z M 28 4.181818181818187  C 28 4.617424242424221  27.853512705530648 4.987689393939405  27.560538116591943 5.2926136363636545  L 26.116591928251182 6.795454545454533  L 21.596412556053565 2.0909090909090935  L 23.04035874439478 0.588068181818187  C 23.333333333333485 0.28314393939390925  23.689088191330484 0.13068181818181301  24.10762331838555 0.13068181818181301  C 24.52615844544107 0.13068181818181301  24.88191330343807 0.28314393939390925  25.174887892376773 0.588068181818187  L 27.560538116591943 3.071022727272748  C 27.853512705530648 3.375946969696969  28 3.746212121212125  28 4.181818181818187  Z " fill-rule="nonzero" fill="#ffffff" stroke="none" transform="matrix(1 0 0 1 1322 222 )" />
  </g>
</svg>