<?xml version="1.0" encoding="utf-8"?>
<svg version="1.1" xmlns:xlink="http://www.w3.org/1999/xlink" width="24px" height="23px" xmlns="http://www.w3.org/2000/svg">
  <g transform="matrix(1 0 0 1 -1491 -222 )">
    <path d="M 8.57386363636374 8.759765625  C 8.67613636363626 8.849609375  8.727272727272975 8.9644097222222  8.727272727272975 9.104166666666657  L 8.727272727272975 17.729166666666657  C 8.727272727272975 17.868923611111114  8.67613636363626 17.983723958333343  8.57386363636374 18.073567708333343  C 8.471590909090992 18.163411458333343  8.340909090909008 18.208333333333343  8.181818181818244 18.208333333333343  L 7.090909090909008 18.208333333333343  C 6.931818181818244 18.208333333333343  6.80113636363626 18.163411458333343  6.69886363636374 18.073567708333343  C 6.596590909090992 17.983723958333343  6.545454545454504 17.868923611111114  6.545454545454504 17.729166666666657  L 6.545454545454504 9.104166666666657  C 6.545454545454504 8.9644097222222  6.596590909090992 8.849609375  6.69886363636374 8.759765625  C 6.80113636363626 8.669921875  6.931818181818244 8.625  7.090909090909008 8.625  L 8.181818181818244 8.625  C 8.340909090909008 8.625  8.471590909090992 8.669921875  8.57386363636374 8.759765625  Z M 12.9375 8.759765625  C 13.039772727272975 8.849609375  13.090909090909008 8.9644097222222  13.090909090909008 9.104166666666657  L 13.090909090909008 17.729166666666657  C 13.090909090909008 17.868923611111114  13.039772727272975 17.983723958333343  12.9375 18.073567708333343  C 12.835227272727025 18.163411458333343  12.704545454545496 18.208333333333343  12.545454545454504 18.208333333333343  L 11.454545454545496 18.208333333333343  C 11.295454545454504 18.208333333333343  11.164772727272975 18.163411458333343  11.0625 18.073567708333343  C 10.960227272727025 17.983723958333343  10.909090909090992 17.868923611111114  10.909090909090992 17.729166666666657  L 10.909090909090992 9.104166666666657  C 10.909090909090992 8.9644097222222  10.960227272727025 8.849609375  11.0625 8.759765625  C 11.164772727272975 8.669921875  11.295454545454504 8.625  11.454545454545496 8.625  L 12.545454545454504 8.625  C 12.704545454545496 8.625  12.835227272727025 8.669921875  12.9375 8.759765625  Z M 17.30113636363626 8.759765625  C 17.40340909090901 8.849609375  17.454545454545496 8.9644097222222  17.454545454545496 9.104166666666657  L 17.454545454545496 17.729166666666657  C 17.454545454545496 17.868923611111114  17.40340909090901 17.983723958333343  17.30113636363626 18.073567708333343  C 17.19886363636374 18.163411458333343  17.068181818181756 18.208333333333343  16.90909090909099 18.208333333333343  L 15.818181818181756 18.208333333333343  C 15.659090909090992 18.208333333333343  15.528409090909008 18.163411458333343  15.42613636363626 18.073567708333343  C 15.32386363636374 17.983723958333343  15.272727272727025 17.868923611111114  15.272727272727025 17.729166666666657  L 15.272727272727025 9.104166666666657  C 15.272727272727025 8.9644097222222  15.32386363636374 8.849609375  15.42613636363626 8.759765625  C 15.528409090909008 8.669921875  15.659090909090992 8.625  15.818181818181756 8.625  L 16.90909090909099 8.625  C 17.068181818181756 8.625  17.19886363636374 8.669921875  17.30113636363626 8.759765625  Z M 19.517045454545496 20.5517578125  C 19.59659090909099 20.367078993055543  19.63636363636374 20.164930555555543  19.63636363636374 19.9453125  L 19.63636363636374 6  L 4.36363636363626 6  L 4.36363636363626 19.9453125  C 4.36363636363626 20.164930555555543  4.403409090909008 20.367078993055543  4.482954545454504 20.5517578125  C 4.5625 20.736436631944457  4.64488636363626 20.871202256944457  4.73011363636374 20.9560546875  C 4.815340909090992 21.040907118055543  4.875 21.083333333333343  4.909090909090992 21  L 19.09090909090901 21  C 19.125 21.083333333333343  19.18465909090901 21.040907118055543  19.26988636363626 20.9560546875  C 19.35511363636374 20.871202256944457  19.4375 20.736436631944457  19.517045454545496 20.5517578125  Z M 9.017045454545496 2.081380208333343  L 8.181818181818244 3.833333333333343  L 15.818181818181756 3.833333333333343  L 15 2.081380208333343  C 14.920454545454731 1.9915364583333428  14.82386363636374 1.936631944444457  14.710227272727025 1.9166666666666572  L 9.306818181818244 1.9166666666666572  C 9.193181818181756 1.936631944444457  9.096590909090992 1.9915364583333428  9.017045454545496 2.081380208333343  Z M 23.84659090909099 3.968098958333343  C 23.94886363636374 4.057942708333343  24 4.172743055555543  24 4.3125  L 24 5.270833333333343  C 24 5.4105902777778  23.94886363636374 5.525390625  23.84659090909099 5.615234375  C 23.744318181818244 5.705078125  23.61363636363626 5.75  23.454545454545496 5.75  L 21.818181818181756 5.75  L 21.818181818181756 19.9453125  C 21.818181818181756 20.77387152777777  21.55113636363626 21.490125868055543  21.017045454545496 22.094075520833343  C 20.482954545454504 22.698025173611114  19.84090909090901 23  19.09090909090901 23  L 4.909090909090992 23  C 4.159090909090992 23  3.517045454545496 22.7080078125  2.982954545454504 22.1240234375  C 2.4488636363637397 21.5400390625  2.181818181818244 20.833767361111114  2.181818181818244 20.005208333333343  L 2.181818181818244 5.75  L 0.5454545454545041 5.75  C 0.3863636363637397 5.75  0.25568181818175617 5.705078125  0.15340909090900823 5.615234375  C 0.051136363636260285 5.525390625  0 5.4105902777778  0 5.270833333333343  L 0 4.3125  C 0 4.172743055555543  0.051136363636260285 4.057942708333343  0.15340909090900823 3.968098958333343  C 0.25568181818175617 3.878255208333343  0.3863636363637397 3.833333333333343  0.5454545454545041 3.833333333333343  L 5.8125 3.833333333333343  L 7.005681818181756 1.3326822916666572  C 7.17613636363626 0.9633246527777999  7.482954545454504 0.6488715277777999  7.92613636363626 0.38932291666665725  C 8.369318181818244 0.12977430555554292  8.818181818181756 0  9.272727272727025 0  L 14.727272727272975 0  C 15.181818181818244 0  15.630681818181756 0.12977430555554292  16.07386363636374 0.38932291666665725  C 16.517045454545496 0.6488715277777999  16.82386363636374 0.9633246527777999  16.994318181818244 1.3326822916666572  L 18.1875 3.833333333333343  L 23.454545454545496 3.833333333333343  C 23.61363636363626 3.833333333333343  23.744318181818244 3.878255208333343  23.84659090909099 3.968098958333343  Z " fill-rule="nonzero" fill="#ffffff" stroke="none" transform="matrix(1 0 0 1 1491 222 )" />
  </g>
</svg>