<?xml version="1.0" encoding="utf-8"?>
<svg version="1.1" xmlns:xlink="http://www.w3.org/1999/xlink" width="28px" height="24px" xmlns="http://www.w3.org/2000/svg">
  <g transform="matrix(1 0 0 1 -66 -104 )">
    <path d="M 27.443181818181813 9.204545454545453  C 27.814393939393938 9.522727272727266  28 9.909090909090907  28 10.36363636363636  L 28 13.63636363636364  C 28 14.090909090909093  27.814393939393938 14.47727272727272  27.443181818181813 14.795454545454561  C 27.07196969696969 15.11363636363636  26.621212121212125 15.27272727272728  26.090909090909093 15.27272727272728  L 17.818181818181813 15.27272727272728  L 17.818181818181813 22.363636363636374  C 17.818181818181813 22.818181818181813  17.63257575757575 23.20454545454544  17.26136363636364 23.52272727272728  C 16.890151515151516 23.840909090909093  16.439393939393938 24  15.909090909090907 24  L 12.090909090909093 24  C 11.560606060606062 24  11.109848484848484 23.840909090909093  10.73863636363636 23.52272727272728  C 10.36742424242425 23.20454545454544  10.181818181818187 22.818181818181813  10.181818181818187 22.363636363636374  L 10.181818181818187 15.27272727272728  L 1.9090909090909065 15.27272727272728  C 1.3787878787878753 15.27272727272728  0.9280303030302973 15.11363636363636  0.556818181818187 14.795454545454561  C 0.18560606060606233 14.47727272727272  0 14.090909090909093  0 13.63636363636364  L 0 10.36363636363636  C 0 9.909090909090907  0.18560606060606233 9.522727272727266  0.556818181818187 9.204545454545453  C 0.9280303030302973 8.886363636363626  1.3787878787878753 8.72727272727272  1.9090909090909065 8.72727272727272  L 10.181818181818187 8.72727272727272  L 10.181818181818187 1.6363636363636402  C 10.181818181818187 1.181818181818187  10.36742424242425 0.7954545454545467  10.73863636363636 0.47727272727273373  C 11.109848484848484 0.1590909090909065  11.560606060606062 0  12.090909090909093 0  L 15.909090909090907 0  C 16.439393939393938 0  16.890151515151516 0.1590909090909065  17.26136363636364 0.47727272727273373  C 17.63257575757575 0.7954545454545467  17.818181818181813 1.181818181818187  17.818181818181813 1.6363636363636402  L 17.818181818181813 8.72727272727272  L 26.090909090909093 8.72727272727272  C 26.621212121212125 8.72727272727272  27.07196969696969 8.886363636363626  27.443181818181813 9.204545454545453  Z " fill-rule="nonzero" fill="#ffffff" stroke="none" transform="matrix(1 0 0 1 66 104 )" />
  </g>
</svg>