<?xml version="1.0" encoding="utf-8"?>
<svg version="1.1" xmlns:xlink="http://www.w3.org/1999/xlink" width="28px" height="18px" xmlns="http://www.w3.org/2000/svg">
  <g transform="matrix(1 0 0 1 -88 -178 )">
    <path d="M 27.443181818181813 6.9034090909090935  C 27.814393939393938 7.142045454545439  28 7.431818181818187  28 7.772727272727309  L 28 10.227272727272748  C 28 10.568181818181813  27.814393939393938 10.857954545454561  27.443181818181813 11.096590909090907  C 27.071969696969703 11.335227272727252  26.621212121212125 11.454545454545439  26.090909090909093 11.454545454545439  L 17.818181818181813 11.454545454545439  L 17.818181818181813 16.772727272727252  C 17.818181818181813 17.113636363636346  17.63257575757575 17.403409090909093  17.26136363636364 17.64204545454544  C 16.89015151515153 17.880681818181813  16.439393939393938 18  15.909090909090907 18  L 12.090909090909093 18  C 11.560606060606062 18  11.109848484848484 17.880681818181813  10.73863636363636 17.64204545454544  C 10.36742424242425 17.403409090909093  10.181818181818187 17.113636363636346  10.181818181818187 16.772727272727252  L 10.181818181818187 11.454545454545439  L 1.9090909090909065 11.454545454545439  C 1.3787878787878896 11.454545454545439  0.9280303030302973 11.335227272727252  0.556818181818187 11.096590909090907  C 0.18560606060606233 10.857954545454561  0 10.568181818181813  0 10.227272727272748  L 0 7.772727272727309  C 0 7.431818181818187  0.18560606060606233 7.142045454545439  0.556818181818187 6.9034090909090935  C 0.9280303030302973 6.664772727272748  1.3787878787878896 6.545454545454561  1.9090909090909065 6.545454545454561  L 10.181818181818187 6.545454545454561  L 10.181818181818187 1.227272727272748  C 10.181818181818187 0.8863636363636545  10.36742424242425 0.5965909090909065  10.73863636363636 0.35795454545453254  C 11.109848484848484 0.11931818181818699  11.560606060606062 0  12.090909090909093 0  L 15.909090909090907 0  C 16.439393939393938 0  16.89015151515153 0.11931818181818699  17.26136363636364 0.35795454545453254  C 17.63257575757575 0.5965909090909065  17.818181818181813 0.8863636363636545  17.818181818181813 1.227272727272748  L 17.818181818181813 6.545454545454561  L 26.090909090909093 6.545454545454561  C 26.621212121212125 6.545454545454561  27.071969696969703 6.664772727272748  27.443181818181813 6.9034090909090935  Z " fill-rule="nonzero" fill="#ffffff" stroke="none" transform="matrix(1 0 0 1 88 178 )" />
  </g>
</svg>