<?xml version="1.0" encoding="utf-8"?>
<svg version="1.1" xmlns:xlink="http://www.w3.org/1999/xlink" width="33px" height="26px" xmlns="http://www.w3.org/2000/svg">
  <g transform="matrix(1 0 0 1 -1475 -317 )">
    <path d="M 11.789062500000227 9.90234375  C 11.929687499999773 10.00390625  12.000000000000227 10.133680555555543  12.000000000000227 10.291666666666686  L 12.000000000000227 20.041666666666686  C 12.000000000000227 20.19965277777777  11.929687499999773 20.329427083333314  11.789062500000227 20.430989583333314  C 11.6484375 20.532552083333314  11.46875 20.583333333333314  11.250000000000227 20.583333333333314  L 9.75 20.583333333333314  C 9.53125 20.583333333333314  9.351562499999773 20.532552083333314  9.210937500000227 20.430989583333314  C 9.0703125 20.329427083333314  9 20.19965277777777  9 20.041666666666686  L 9 10.291666666666686  C 9 10.133680555555543  9.0703125 10.00390625  9.210937500000227 9.90234375  C 9.351562499999773 9.80078125  9.53125 9.75  9.75 9.75  L 11.250000000000227 9.75  C 11.46875 9.75  11.6484375 9.80078125  11.789062500000227 9.90234375  Z M 17.7890625 9.90234375  C 17.929687500000227 10.00390625  18 10.133680555555543  18 10.291666666666686  L 18 20.041666666666686  C 18 20.19965277777777  17.929687500000227 20.329427083333314  17.7890625 20.430989583333314  C 17.648437499999773 20.532552083333314  17.46875 20.583333333333314  17.25 20.583333333333314  L 15.75 20.583333333333314  C 15.53125 20.583333333333314  15.351562500000227 20.532552083333314  15.2109375 20.430989583333314  C 15.070312499999773 20.329427083333314  15 20.19965277777777  15 20.041666666666686  L 15 10.291666666666686  C 15 10.133680555555543  15.070312499999773 10.00390625  15.2109375 9.90234375  C 15.351562500000227 9.80078125  15.53125 9.75  15.75 9.75  L 17.25 9.75  C 17.46875 9.75  17.648437499999773 9.80078125  17.7890625 9.90234375  Z M 23.789062499999773 9.90234375  C 23.9296875 10.00390625  24 10.133680555555543  24 10.291666666666686  L 24 20.041666666666686  C 24 20.19965277777777  23.9296875 20.329427083333314  23.789062499999773 20.430989583333314  C 23.648437500000227 20.532552083333314  23.46875 20.583333333333314  23.25 20.583333333333314  L 21.749999999999773 20.583333333333314  C 21.53125 20.583333333333314  21.3515625 20.532552083333314  21.210937499999773 20.430989583333314  C 21.070312500000227 20.329427083333314  20.999999999999773 20.19965277777777  20.999999999999773 20.041666666666686  L 20.999999999999773 10.291666666666686  C 20.999999999999773 10.133680555555543  21.070312500000227 10.00390625  21.210937499999773 9.90234375  C 21.3515625 9.80078125  21.53125 9.75  21.749999999999773 9.75  L 23.25 9.75  C 23.46875 9.75  23.648437500000227 9.80078125  23.789062499999773 9.90234375  Z M 26.8359375 23.232421875  C 26.9453125 23.023654513888914  27.000000000000227 22.795138888888914  27 22.546875  L 27 7  L 6 7  L 6 22.546875  C 5.999999999999773 22.795138888888914  6.0546875 23.023654513888914  6.1640625 23.232421875  C 6.2734375 23.441189236111086  6.386718749999773 23.593532986111086  6.503906250000227 23.689453125  C 6.62109375 23.785373263888914  6.703125 23.833333333333314  6.75 23.833333333333314  L 26.25 23.833333333333314  C 26.296875 23.833333333333314  26.37890625 23.785373263888914  26.496093749999773 23.689453125  C 26.613281250000227 23.593532986111086  26.7265625 23.441189236111086  26.8359375 23.232421875  Z M 12.3984375 2.3528645833333144  L 11.250000000000227 4.333333333333314  L 21.749999999999773 4.333333333333314  L 20.625 2.3528645833333144  C 20.515625000000227 2.2513020833333144  20.3828125 2.189236111111086  20.226562499999773 2.1666666666666856  L 12.796875000000227 2.1666666666666856  C 12.640625 2.189236111111086  12.5078125 2.2513020833333144  12.3984375 2.3528645833333144  Z M 32.7890625 4.485677083333314  C 32.92968750000023 4.587239583333314  33 4.717013888888914  33 4.875  L 33 5.958333333333314  C 33 6.116319444444457  32.92968750000023 6.24609375  32.7890625 6.34765625  C 32.64843750000023 6.44921875  32.46875 6.5  32.25 6.5  L 30 6.5  L 30 22.546875  C 29.999999999999773 23.483506944444457  29.6328125 24.293185763888914  28.8984375 24.975911458333314  C 28.1640625 25.65863715277777  27.28125 26  26.25 26  L 6.75 26  C 5.71875 26  4.8359375 25.669921875  4.1015625 25.009765625  C 3.3671875 24.349609375  3.0000000000002274 23.55121527777777  3 22.614583333333314  L 3 6.5  L 0.75 6.5  C 0.53125 6.5  0.3515624999997726 6.44921875  0.2109375 6.34765625  C 0.07031249999977263 6.24609375  0 6.116319444444457  0 5.958333333333314  L 0 4.875  C 0 4.717013888888914  0.07031249999977263 4.587239583333314  0.2109375 4.485677083333314  C 0.3515624999997726 4.384114583333314  0.53125 4.333333333333314  0.75 4.333333333333314  L 7.9921875 4.333333333333314  L 9.632812499999773 1.5065104166666856  C 9.867187499999773 1.088975694444457  10.2890625 0.7335069444444571  10.898437499999773 0.44010416666668556  C 11.507812500000227 0.14670138888891415  12.125 0  12.749999999999773 0  L 20.250000000000227 0  C 20.875 0  21.492187499999773 0.14670138888891415  22.101562500000227 0.44010416666668556  C 22.7109375 0.7335069444444571  23.132812500000227 1.088975694444457  23.367187500000227 1.5065104166666856  L 25.0078125 4.333333333333314  L 32.25 4.333333333333314  C 32.46875 4.333333333333314  32.64843750000023 4.384114583333314  32.7890625 4.485677083333314  Z " fill-rule="nonzero" fill="#ffffff" stroke="none" transform="matrix(1 0 0 1 1475 317 )" />
  </g>
</svg>