<?xml version="1.0" encoding="utf-8"?>
<svg version="1.1" xmlns:xlink="http://www.w3.org/1999/xlink" width="35px" height="26px" xmlns="http://www.w3.org/2000/svg">
  <g transform="matrix(1 0 0 1 -1307 -317 )">
    <path d="M 16.322869955157103 19.5  L 17.421524663677246 19.5  L 19.697309417040287 17.357954545454504  L 16.715246636771326 14.551136363636374  L 14.439461883408057 16.693181818181813  L 14.439461883408057 17.72727272727269  L 16.322869955157103 17.72727272727269  L 16.322869955157103 19.5  Z M 26.034192825112086 6.813920454545495  C 26.256539611360267 6.604640151515127  26.263079222720535 6.401515151515127  26.05381165919266 6.204545454545496  C 25.844544095665015 6.007575757575751  25.628736920777328 6.013731060606062  25.40639013452892 6.223011363636374  L 18.539798206277965 12.686079545454504  C 18.31745142003001 12.895359848484873  18.310911808669516 13.09848484848487  18.52017937219739 13.295454545454504  C 18.729446935725036 13.492424242424251  18.94525411061272 13.48626893939394  19.167600896860904 13.276988636363626  L 26.034192825112086 6.813920454545495  Z M 27.230941704036013 16.637784090909122  C 27.49252615844557 16.736268939393938  27.623318385650236 16.91477272727269  27.623318385650236 17.173295454545496  L 27.623318385650236 20.681818181818187  C 27.623318385650236 22.14678030303031  27.070721225709804 23.39938446969694  25.96552690582962 24.439630681818187  C 24.86033258594921 25.479876893939377  23.52952167414037 26  21.97309417040333 26  L 5.650224215246681 26  C 4.09379671150964 26  2.7629857997010276 25.479876893939377  1.6577914798206166 24.439630681818187  C 0.5525971599404329 23.39938446969694  0 22.14678030303031  0 20.681818181818187  L 0 5.318181818181813  C 0 3.8532196969696884  0.5525971599404329 2.6006155303030596  1.6577914798206166 1.560369318181813  C 2.7629857997010276 0.5201231060606233  4.09379671150964 0  5.650224215246681 0  L 21.97309417040333 0  C 22.797085201793607 0  23.562219730941706 0.1538825757575637  24.268497757847626 0.46164772727269116  C 24.46468609865451 0.5478219696969404  24.582399103139096 0.6893939393939377  24.621636771300473 0.886363636363626  C 24.66087443946185 1.0956439393939377  24.602017937219898 1.274147727272691  24.445067264573936 1.421875  L 23.483744394618952 2.326704545454504  C 23.30063527653192 2.4990530303030596  23.0913677130045 2.548295454545496  22.855941704036013 2.474431818181813  C 22.55511958146485 2.400568181818187  22.260837070254187 2.363636363636374  21.97309417040333 2.363636363636374  L 5.650224215246681 2.363636363636374  C 4.7869955156950255 2.363636363636374  4.048019431988223 2.6529356060606233  3.433295964125591 3.231534090909122  C 2.8185724962629592 3.8101325757575637  2.5112107623319844 4.505681818181813  3 5.318181818181813  L 3 20.681818181818187  C 2.5112107623319844 21.494318181818187  2.8185724962629592 22.189867424242436  3.433295964125591 22.768465909090878  C 4.048019431988223 23.347064393939377  4.7869955156950255 23.636363636363626  5.650224215246681 23.636363636363626  L 21.97309417040333 23.636363636363626  C 22.83632286995521 23.636363636363626  23.575298953662013 23.347064393939377  24.190022421524645 22.768465909090878  C 24.80474588938728 22.189867424242436  25.112107623318252 21.494318181818187  25.112107623318252 20.681818181818187  L 25.112107623318252 18.355113636363626  C 25.112107623318252 18.19507575757575  25.170964125560662 18.059659090909122  25.28867713004479 17.948863636363626  L 26.544282511210668 16.767045454545496  C 26.74047085201778 16.582386363636374  26.969357249626228 16.53929924242425  27.230941704036013 16.637784090909122  Z M 12.556053811659238 15.954545454545496  L 25.73991031390142 3.545454545454504  L 31.390134529147872 8.863636363636374  L 18.20627802690592 21.27272727272731  L 12.556053811659238 21.27272727272731  L 12.556053811659238 15.954545454545496  Z M 35 4.727272727272691  C 35 5.21969696969694  34.81689088191342 5.638257575757564  34.450672645739814 5.982954545454504  L 32.64573991031375 7.681818181818187  L 26.995515695067297 2.363636363636374  L 28.80044843049336 0.6647727272726911  C 29.166666666666742 0.3200757575757507  29.611360239162877 0.1477272727273089  30.13452914798222 0.1477272727273089  C 30.65769805680111 0.1477272727273089  31.102391629297472 0.3200757575757507  31.46860986547108 0.6647727272726911  L 34.450672645739814 3.471590909090878  C 34.81689088191342 3.8162878787878753  35 4.234848484848499  35 4.727272727272691  Z " fill-rule="nonzero" fill="#ffffff" stroke="none" transform="matrix(1 0 0 1 1307 317 )" />
  </g>
</svg>