<?xml version="1.0" encoding="utf-8"?>
<svg version="1.1" xmlns:xlink="http://www.w3.org/1999/xlink" width="30px" height="17px" xmlns="http://www.w3.org/2000/svg">
  <g transform="matrix(1 0 0 1 -1582 -187 )">
    <path d="M 18.3984375 10.42578125  C 19.97896634615381 9.530148237179503  20.769230769230717 8.45232371794873  20.769230769230717 7.192307692307679  C 20.769230769230717 5.932291666666657  19.97896634615381 4.854467147435884  18.3984375 3.958834134615387  C 16.81790865384619 3.0632011217948616  14.915865384615245 2.615384615384613  12.692307692307622 2.615384615384613  C 10.46875 2.615384615384613  8.566706730769283 3.0632011217948616  6.986177884615472 3.958834134615387  C 5.405649038461661 4.854467147435884  4.615384615384528 5.932291666666657  4.615384615384528 7.192307692307679  C 4.615384615384528 8.45232371794873  5.405649038461661 9.530148237179503  6.986177884615472 10.42578125  C 8.566706730769283 11.321414262820497  10.46875 11.769230769230774  12.692307692307622 11.769230769230774  C 14.915865384615245 11.769230769230774  16.81790865384619 11.321414262820497  18.3984375 10.42578125  Z M 29.332932692307622 14.772836538461547  C 29.777644230769283 15.024839743589752  30 15.331330128205138  30 15.69230769230768  C 30 16.046474358974365  29.771634615384528 16.35296474358975  29.31490384615381 16.61177884615384  C 28.858173076923094 16.870592948717956  28.31730769230785 17  27.692307692307622 17  C 27.043269230769283 17  26.50240384615381 16.870592948717956  26.069711538461434 16.61177884615384  L 19.885817307692378 13.117788461538453  C 17.734375 13.962339743589752  15.33653846153834 14.384615384615387  12.692307692307622 14.384615384615387  C 10.97355769230785 14.384615384615387  9.329927884615472 14.195612980769226  7.761418269230717 13.817608173076906  C 6.192908653846189 13.439603365384613  4.840745192307622 12.92878605769232  3.704927884615472 12.28515625  C 2.569110576923322 11.64152644230768  1.6676682692307168 10.875300480769226  1.0006009615385665 9.986478365384613  C 0.3335336538461888 9.09765625  0 8.166266025641022  0 7.192307692307679  C 0 6.218349358974365  0.3335336538461888 5.286959134615387  1.0006009615385665 4.398137019230774  C 1.6676682692307168 3.5093149038461604  2.569110576923322 2.743088942307679  3.704927884615472 2.099459134615387  C 4.840745192307622 1.455829326923066  6.192908653846189 0.9450120192307736  7.761418269230717 0.5670072115384528  C 9.329927884615472 0.1890024038461604  10.97355769230785 0  12.692307692307622 0  C 14.411057692307622 0  16.0546875 0.1890024038461604  17.623197115384528 0.5670072115384528  C 19.191706730769283 0.9450120192307736  20.543870192307622 1.455829326923066  21.6796875 2.099459134615387  C 22.815504807692378 2.743088942307679  23.716947115384528 3.5093149038461604  24.384014423076678 4.398137019230774  C 25.051081730769283 5.286959134615387  25.384615384615472 6.218349358974365  25.384615384615472 7.192307692307679  C 25.384615384615472 8.690705128205138  24.639423076923094 10.049479166666657  23.149038461538566 11.26862980769232  L 29.332932692307622 14.772836538461547  Z " fill-rule="nonzero" fill="#c9c9c9" stroke="none" transform="matrix(1 0 0 1 1582 187 )" />
  </g>
</svg>