<?xml version="1.0" encoding="utf-8"?>
<svg version="1.1" xmlns:xlink="http://www.w3.org/1999/xlink" width="32px" height="40px" xmlns="http://www.w3.org/2000/svg">
  <g transform="matrix(1 0 0 1 -553 0 )">
    <path d="M 31.245791245791224 29.898989898989882  C 31.74859708193037 30.527497194163864  32 31.290684624017977  32 32.18855218855219  C 32 33.08641975308644  31.74859708193037 33.84960718294053  31.245791245791224 34.478114478114456  L 27.58249158249157 39.05723905723906  C 27.079685746352425 39.68574635241304  26.469135802469168 40  25.750841750841687 40  C 25.03254769921432 40  24.421997755331063 39.68574635241304  23.91919191919203 39.05723905723906  L 16 31  L 8.08080808080797 39.05723905723906  C 7.578002244668937 39.68574635241304  6.967452300785681 40  6.249158249158313 40  C 5.530864197530832 40  4.920314253647575 39.68574635241304  4.417508417508429 39.05723905723906  L 0.7542087542087756 34.478114478114456  C 0.2514029180696298 33.84960718294053  0 33.08641975308644  0 32.18855218855219  C 0 31.290684624017977  0.2514029180696298 30.527497194163864  0.7542087542087756 29.898989898989882  L 8.673400673400693 20  L 0.7542087542087756 10.101010101010118  C 0.2514029180696298 9.472502805836136  0 8.709315375982019  0 7.811447811447817  C 0 6.91358024691359  0.2514029180696298 6.150392817059469  0.7542087542087756 5.521885521885544  L 4.417508417508429 0.9427609427609429  C 4.920314253647575 0.3142536475869626  5.530864197530832 0  6.249158249158313 0  C 6.967452300785681 0  7.578002244668937 0.3142536475869626  8.08080808080797 0.9427609427609429  L 16 10.841750841750827  L 23.91919191919203 0.9427609427609429  C 24.421997755331063 0.3142536475869626  25.03254769921432 0  25.750841750841687 0  C 26.469135802469168 0  27.079685746352425 0.3142536475869626  27.58249158249157 0.9427609427609429  L 31.245791245791224 5.521885521885544  C 31.74859708193037 6.150392817059469  32 6.91358024691359  32 7.811447811447817  C 32 8.709315375982019  31.74859708193037 9.472502805836136  31.245791245791224 10.101010101010118  L 23.326599326599307 20  L 31.245791245791224 29.898989898989882  Z " fill-rule="nonzero" fill="#ffffff" stroke="none" transform="matrix(1 0 0 1 553 0 )" />
  </g>
</svg>