<?xml version="1.0" encoding="utf-8"?>
<svg version="1.1" xmlns:xlink="http://www.w3.org/1999/xlink" width="37px" height="31px" xmlns="http://www.w3.org/2000/svg">
  <g transform="matrix(1 0 0 1 -530 -26 )">
    <path d="M 36.12794612794619 23.171717171717162  C 36.70931537598187 23.658810325477  37 24.250280583613943  37 24.94612794612793  C 37 25.64197530864198  36.70931537598187 26.23344556677891  36.12794612794619 26.7205387205387  L 31.892255892255776 30.269360269360277  C 31.31088664421998 30.7564534231201  30.60493827160485 31  29.774410774410626 31  C 28.943883277216628 31  28.237934904601616 30.7564534231201  27.656565656565817 30.269360269360277  L 18.5 22.597643097643108  L 9.343434343434183 30.269360269360277  C 8.762065095398384 30.7564534231201  8.056116722783372 31  7.225589225589374 31  C 6.395061728395149 31  5.689113355780023 30.7564534231201  5.1077441077442245 30.269360269360277  L 0.8720538720538116 26.7205387205387  C 0.29068462401812667 26.23344556677891  0 25.64197530864198  0 24.94612794612793  C 0 24.250280583613943  0.29068462401812667 23.658810325477  0.8720538720538116 23.171717171717162  L 10.028619528619629 15.5  L 0.8720538720538116 7.828282828282845  C 0.29068462401812667 7.341189674523008  0 6.749719416386057  0 6.0538720538720625  C 0 5.3580246913580325  0.29068462401812667 4.7665544332210885  0.8720538720538116 4.2794612794612945  L 5.1077441077442245 0.7306397306397301  C 5.689113355780023 0.24354657687989345  6.395061728395149 0  7.225589225589374 0  C 8.056116722783372 0  8.762065095398384 0.24354657687989345  9.343434343434183 0.7306397306397301  L 18.5 8.402356902356885  L 27.656565656565817 0.7306397306397301  C 28.237934904601616 0.24354657687989345  28.943883277216628 0  29.774410774410626 0  C 30.60493827160485 0  31.31088664421998 0.24354657687989345  31.892255892255776 0.7306397306397301  L 36.12794612794619 4.2794612794612945  C 36.70931537598187 4.7665544332210885  37 5.3580246913580325  37 6.0538720538720625  C 37 6.749719416386057  36.70931537598187 7.341189674523008  36.12794612794619 7.828282828282845  L 26.97138047138037 15.5  L 36.12794612794619 23.171717171717162  Z " fill-rule="nonzero" fill="#ffffff" stroke="none" transform="matrix(1 0 0 1 530 26 )" />
  </g>
</svg>