<?xml version="1.0" encoding="utf-8"?>
<svg version="1.1" xmlns:xlink="http://www.w3.org/1999/xlink" width="24px" height="20px" xmlns="http://www.w3.org/2000/svg">
  <g transform="matrix(1 0 0 1 -1597 -181 )">
    <path d="M 14.71875 12.265625  C 15.983173076923094 11.211939102564116  16.615384615384755 9.943910256410248  16.615384615384755 8.461538461538453  C 16.615384615384755 6.979166666666657  15.983173076923094 5.711137820512818  14.71875 4.657451923076906  C 13.454326923076906 3.603766025641022  11.932692307692378 3.0769230769230944  10.153846153846189 3.0769230769230944  C 8.375 3.0769230769230944  6.853365384615472 3.603766025641022  5.588942307692378 4.657451923076906  C 4.324519230769283 5.711137820512818  3.6923076923076223 6.979166666666657  3.6923076923076223 8.461538461538453  C 3.6923076923076223 9.943910256410248  4.324519230769283 11.211939102564116  5.588942307692378 12.265625  C 6.853365384615472 13.319310897435884  8.375 13.846153846153868  10.153846153846189 13.846153846153868  C 11.932692307692378 13.846153846153868  13.454326923076906 13.319310897435884  14.71875 12.265625  Z M 23.46634615384619 17.37980769230768  C 23.822115384615472 17.676282051282044  24 18.03685897435895  24 18.461538461538453  C 24 18.87820512820514  23.817307692307622 19.238782051282044  23.451923076923094 19.543269230769226  C 23.08653846153834 19.84775641025641  22.653846153846416 20  22.15384615384619 20  C 21.634615384615245 20  21.201923076923094 19.84775641025641  20.855769230769283 19.543269230769226  L 15.908653846153811 15.43269230769232  C 14.1875 16.426282051282044  12.269230769230717 16.923076923076906  10.153846153846189 16.923076923076906  C 8.778846153846416 16.923076923076906  7.463942307692378 16.700721153846132  6.209134615384755 16.256009615384585  C 4.954326923076906 15.811298076923094  3.872596153846189 15.210336538461547  2.9639423076923777 14.453125  C 2.055288461538339 13.695913461538453  1.3341346153847553 12.794471153846132  0.8004807692307168 11.748798076923094  C 0.2668269230769056 10.703125  0 9.607371794871796  0 8.461538461538453  C 0 7.315705128205138  0.2668269230769056 6.219951923076906  0.8004807692307168 5.174278846153868  C 1.3341346153847553 4.128605769230774  2.055288461538339 3.227163461538453  2.9639423076923777 2.4699519230769056  C 3.872596153846189 1.7127403846153868  4.954326923076906 1.111778846153868  6.209134615384755 0.6670673076923208  C 7.463942307692378 0.2223557692307736  8.778846153846416 0  10.153846153846189 0  C 11.528846153846189 0  12.84375 0.2223557692307736  14.098557692307622 0.6670673076923208  C 15.353365384615245 1.111778846153868  16.43509615384619 1.7127403846153868  17.34375 2.4699519230769056  C 18.25240384615381 3.227163461538453  18.973557692307622 4.128605769230774  19.50721153846166 5.174278846153868  C 20.040865384615245 6.219951923076906  20.307692307692378 7.315705128205138  20.307692307692378 8.461538461538453  C 20.307692307692378 10.22435897435895  19.71153846153834 11.822916666666657  18.519230769230717 13.257211538461547  L 23.46634615384619 17.37980769230768  Z " fill-rule="nonzero" fill="#ffffff" stroke="none" transform="matrix(1 0 0 1 1597 181 )" />
  </g>
</svg>