<?xml version="1.0" encoding="utf-8"?>
<svg version="1.1" xmlns:xlink="http://www.w3.org/1999/xlink" width="37px" height="29px" xmlns="http://www.w3.org/2000/svg">
  <g transform="matrix(1 0 0 1 -79 -172 )">
    <path d="M 36.26420454545453 11.122159090909093  C 36.754734848484844 11.506628787878782  37 11.973484848484844  37 12.52272727272728  L 37 16.47727272727272  C 37 17.026515151515156  36.754734848484844 17.493371212121218  36.26420454545453 17.877840909090907  C 35.77367424242425 18.262310606060595  35.1780303030303 18.45454545454544  34.47727272727272 18  L 23.545454545454533 18  L 23.545454545454533 27.02272727272728  C 23.545454545454533 27.57196969696969  23.30018939393939 28.03882575757575  22.809659090909093 28.42329545454544  C 22.319128787878796 28.807765151515156  21.723484848484844 29  21.022727272727266 29  L 15.977272727272734 29  C 15.276515151515156 29  14.680871212121218 28.807765151515156  14.190340909090907 28.42329545454544  C 13.699810606060609 28.03882575757575  13.454545454545453 27.57196969696969  13.454545454545453 27.02272727272728  L 13.454545454545453 18  L 2.5227272727272663 18  C 1.8219696969697026 18.45454545454544  1.2263257575757507 18.262310606060595  0.7357954545454533 17.877840909090907  C 0.24526515151515582 17.493371212121218  0 17.026515151515156  0 16.47727272727272  L 0 12.52272727272728  C 0 11.973484848484844  0.24526515151515582 11.506628787878782  0.7357954545454533 11.122159090909093  C 1.2263257575757507 10.737689393939405  1.8219696969697026 10.545454545454561  2.5227272727272663 11  L 13.454545454545453 11  L 13.454545454545453 1.9772727272727195  C 13.454545454545453 1.4280303030303116  13.699810606060609 0.9611742424242209  14.190340909090907 0.5767045454545325  C 14.680871212121218 0.19223484848484418  15.276515151515156 0  15.977272727272734 0  L 21.022727272727266 0  C 21.723484848484844 0  22.319128787878796 0.19223484848484418  22.809659090909093 0.5767045454545325  C 23.30018939393939 0.9611742424242209  23.545454545454533 1.4280303030303116  23.545454545454533 1.9772727272727195  L 23.545454545454533 11  L 34.47727272727272 11  C 35.1780303030303 10.545454545454561  35.77367424242425 10.737689393939405  36.26420454545453 11.122159090909093  Z " fill-rule="nonzero" fill="#ffffff" stroke="none" transform="matrix(1 0 0 1 79 172 )" />
  </g>
</svg>