<?xml version="1.0" encoding="utf-8"?>
<svg version="1.1" xmlns:xlink="http://www.w3.org/1999/xlink" width="42px" height="42px" xmlns="http://www.w3.org/2000/svg">
  <g transform="matrix(1 0 0 1 -1571 -172 )">
    <path d="M 25.7578125 25.7578125  C 27.970552884615472 23.545072115384613  29.076923076923094 20.88221153846152  29.076923076923094 17.769230769230774  C 29.076923076923094 14.65625  27.970552884615472 11.993389423076907  25.7578125 9.780649038461519  C 23.545072115384528 7.567908653846132  20.882211538461434 6.461538461538482  17.769230769230717 6.461538461538482  C 14.65625 6.461538461538482  11.993389423076907 7.567908653846132  9.780649038461661 9.780649038461519  C 7.56790865384619 11.993389423076907  6.461538461538339 14.65625  6.461538461538339 17.769230769230774  C 6.461538461538339 20.88221153846152  7.56790865384619 23.545072115384613  9.780649038461661 25.7578125  C 11.993389423076907 27.970552884615387  14.65625 29.076923076923094  17.769230769230717 29.076923076923094  C 20.882211538461434 29.076923076923094  23.545072115384528 27.970552884615387  25.7578125 25.7578125  Z M 41.06610576923072 36.49759615384616  C 41.688701923076906 37.12019230769232  42 37.87740384615384  42 38.769230769230774  C 42 39.644230769230774  41.68028846153857 40.40144230769232  41.04086538461547 41.04086538461539  C 40.40144230769238 41.68028846153845  39.644230769230944 42  38.76923076923072 42  C 37.860576923076906 42  37.10336538461547 41.68028846153845  36.49759615384619 41.04086538461539  L 27.840144230769283 32.40865384615384  C 24.828125 34.49519230769232  21.47115384615381 35.53846153846152  17.769230769230717 35.53846153846152  C 15.362980769230942 35.53846153846152  13.061899038461661 35.071514423076906  10.865985576923094 34.13762019230768  C 8.670072115384528 33.20372596153848  6.777043269230717 31.94170673076923  5.186899038461661 30.3515625  C 3.5967548076923777 28.76141826923077  2.3347355769230944 26.868389423076906  1.4008413461538112 24.67247596153848  C 0.4669471153845279 22.4765625  0 20.175480769230774  0 17.769230769230774  C 0 15.362980769230774  0.4669471153845279 13.061899038461519  1.4008413461538112 10.865985576923094  C 2.3347355769230944 8.670072115384613  3.5967548076923777 6.777043269230774  5.186899038461661 5.186899038461519  C 6.777043269230717 3.5967548076922924  8.670072115384528 2.3347355769230944  10.865985576923094 1.400841346153868  C 13.061899038461661 0.4669471153846132  15.362980769230942 0  17.769230769230717 0  C 20.175480769230717 0  22.4765625 0.4669471153846132  24.67247596153834 1.400841346153868  C 26.868389423076906 2.3347355769230944  28.761418269230717 3.5967548076922924  30.3515625 5.186899038461519  C 31.941706730769283 6.777043269230774  33.20372596153834 8.670072115384613  34.13762019230762 10.865985576923094  C 35.071514423076906 13.061899038461519  35.53846153846166 15.362980769230774  35.53846153846166 17.769230769230774  C 35.53846153846166 21.47115384615384  34.49519230769238 24.828125  32.40865384615381 27.84014423076923  L 41.06610576923072 36.49759615384616  Z " fill-rule="nonzero" fill="#000000" stroke="none" transform="matrix(1 0 0 1 1571 172 )" />
  </g>
</svg>